g 04_lamp
v -0.1700322 0.1570731 0.4323318
v 0.1597485 -0.1580302 0.4323318
v -0.1700322 -0.1580302 0.4323318
v 0.1597485 0.1570731 0.4323318
v -0.1700322 0.1570731 0.4323318
v 0.1597481 0.1570731 0.3070136
v 0.1597485 0.1570731 0.4323318
v -0.1700326 0.1570731 0.3070136
v 0.1597485 0.1570731 0.4323318
v 0.1597481 -0.1580302 0.3070136
v 0.1597485 -0.1580302 0.4323318
v 0.1597481 0.1570731 0.3070136
v 0.1597485 -0.1580302 0.4323318
v -0.1700326 -0.1580302 0.3070136
v -0.1700322 -0.1580302 0.4323318
v 0.1597481 -0.1580302 0.3070136
v -0.1700322 -0.1580302 0.4323318
v -0.1700326 0.1570731 0.3070136
v -0.1700322 0.1570731 0.4323318
v -0.1700326 -0.1580302 0.3070136
v -0.1700326 0.1570731 0.3070136
v 0.365544 0.3537103 0.2112291
v 0.1597481 0.1570731 0.3070136
v -0.3758277 0.3537103 0.2112291
v 0.1597481 0.1570731 0.3070136
v 0.365544 -0.3546675 0.2112291
v 0.1597481 -0.1580302 0.3070136
v 0.365544 0.3537103 0.2112291
v 0.1597481 -0.1580302 0.3070136
v -0.3758277 -0.3546675 0.2112291
v -0.1700326 -0.1580302 0.3070136
v 0.365544 -0.3546675 0.2112291
v -0.1700326 -0.1580302 0.3070136
v -0.3758277 0.3537103 0.2112291
v -0.1700326 0.1570731 0.3070136
v -0.3758277 -0.3546675 0.2112291
v -0.3758277 0.3537103 0.2112291
v 0.365544 0.3537103 0.1293753
v 0.365544 0.3537103 0.2112291
v -0.3758277 0.3537103 0.1293753
v 0.365544 0.3537103 0.2112291
v 0.365544 -0.3546675 0.1293752
v 0.365544 -0.3546675 0.2112291
v 0.365544 0.3537103 0.1293753
v 0.365544 -0.3546675 0.2112291
v -0.3758277 -0.3546675 0.1293752
v -0.3758277 -0.3546675 0.2112291
v 0.365544 -0.3546675 0.1293752
v -0.3758277 -0.3546675 0.2112291
v -0.3758277 0.3537103 0.1293753
v -0.3758277 0.3537103 0.2112291
v -0.3758277 -0.3546675 0.1293752
v -0.3758277 0.3537103 0.1293753
v 0.2807399 0.2726803 0.1293753
v 0.365544 0.3537103 0.1293753
v -0.2910237 0.2726803 0.1293753
v 0.2807399 -0.2736365 0.1293752
v 0.365544 -0.3546675 0.1293752
v -0.2910237 -0.2736365 0.1293752
v -0.3758277 -0.3546675 0.1293752
v -0.3758277 -0.3546675 0.1293752
v -0.2910237 -0.2736365 0.1293752
v 0.2807399 0.2726803 0.1293753
v 0.2223284 0.2667318 0.0781294
v 0.1738416 0.2204032 -0.3210027
v 0.2198022 0.2144551 -0.3722485
v -0.1841259 0.2204032 -0.3210027
v -0.2300866 0.2144551 -0.3722485
v -0.2326124 0.2667318 0.0781294
v -0.2910237 0.2726803 0.1293753
v 0.2807399 -0.2736365 0.1293752
v 0.2741484 -0.2145437 0.07511684
v 0.2263936 -0.1689145 -0.3179902
v 0.2198022 -0.215411 -0.3722485
v 0.2263936 0.1679583 -0.3179902
v 0.2198022 0.2144551 -0.3722485
v 0.2741484 0.2135877 0.07511684
v 0.2807399 0.2726803 0.1293753
v -0.2300866 -0.215411 -0.3722485
v -0.1841821 -0.2213521 -0.3210652
v 0.1738978 -0.2213521 -0.3210652
v 0.2198022 -0.215411 -0.3722485
v 0.2223999 -0.2676954 0.07819192
v 0.2807399 -0.2736365 0.1293752
v -0.2910237 -0.2736365 0.1293752
v -0.2326838 -0.2676954 0.07819192
v -0.2300866 -0.215411 -0.3722485
v -0.2367121 -0.1686729 -0.3177081
v -0.2843985 -0.214237 0.07483508
v -0.2910237 -0.2736365 0.1293752
v -0.2300866 0.2144551 -0.3722485
v -0.2367121 0.1677169 -0.3177081
v -0.2367121 -0.1686729 -0.3177081
v -0.2300866 -0.215411 -0.3722485
v -0.2910237 0.2726803 0.1293753
v -0.2843985 0.2132807 0.07483508
v -0.2910237 -0.2736365 0.1293752
v -0.2843985 -0.214237 0.07483508
v -0.2300866 0.2144551 -0.3722485
v 0.2829161 0.2747612 -0.4049015
v 0.2198022 0.2144551 -0.3722485
v -0.2932 0.2747612 -0.4049015
v 0.2198022 0.2144551 -0.3722485
v 0.2829161 -0.2757165 -0.4049015
v 0.2198022 -0.215411 -0.3722485
v 0.2829161 0.2747612 -0.4049015
v 0.2198022 -0.215411 -0.3722485
v -0.2932 -0.2757165 -0.4049015
v -0.2300866 -0.215411 -0.3722485
v 0.2829161 -0.2757165 -0.4049015
v -0.2300866 -0.215411 -0.3722485
v -0.2932 0.2747612 -0.4049015
v -0.2300866 0.2144551 -0.3722485
v -0.2932 -0.2757165 -0.4049015
v -0.2932 0.2747612 -0.4049015
v 0.2829161 0.2747612 -0.5038695
v 0.2829161 0.2747612 -0.4049015
v -0.2932 0.2747612 -0.5038695
v 0.2829161 0.2747612 -0.4049015
v 0.2829161 -0.2757165 -0.5038695
v 0.2829161 -0.2757165 -0.4049015
v 0.2829161 0.2747612 -0.5038695
v 0.2829161 -0.2757165 -0.4049015
v -0.2932 -0.2757165 -0.5038695
v -0.2932 -0.2757165 -0.4049015
v 0.2829161 -0.2757165 -0.5038695
v -0.2932 -0.2757165 -0.4049015
v -0.2932 0.2747612 -0.5038695
v -0.2932 0.2747612 -0.4049015
v -0.2932 -0.2757165 -0.5038695
v 0.2829161 -0.2757165 -0.5038695
v -0.2932 0.2747612 -0.5038695
v -0.2932 -0.2757165 -0.5038695
v 0.2829161 0.2747612 -0.5038695
v 0.04949546 0.08535293 0.5784004
v 0.04949546 -0.03785893 0.5246419
v 0.04949546 -0.08806893 0.5784004
v 0.04949546 0.03926681 0.5246419
v 0.04949524 -0.06897534 0.4123284
v 0.04949524 0.1262171 0.4123284
v 0.04949546 -0.08806893 0.5784004
v 0.04949524 -0.1312166 0.4123284
v 0.04949546 0.03926681 0.5246419
v 0.04949524 0.06504507 0.4123284
v -0.05977922 -0.08806893 0.5784004
v 0.04949546 0.08535293 0.5784004
v 0.04949546 -0.08806893 0.5784004
v -0.05977922 0.08535293 0.5784004
v -0.05977949 -0.1312166 0.4123284
v 0.04949546 -0.08806893 0.5784004
v 0.04949524 -0.1312166 0.4123284
v -0.05977922 -0.08806893 0.5784004
v -0.05977922 0.08535293 0.5784004
v -0.05977922 -0.03785893 0.5246419
v -0.05977922 0.03926681 0.5246419
v -0.05977922 -0.08806893 0.5784004
v -0.05977949 -0.06897534 0.4123284
v -0.05977949 -0.1312166 0.4123284
v -0.05977949 0.1262171 0.4123284
v -0.05977949 0.06504507 0.4123284
v 0.04949546 0.08535293 0.5784004
v -0.05977949 0.1262171 0.4123284
v 0.04949524 0.1262171 0.4123284
v -0.05977922 0.08535293 0.5784004
v -0.05977949 0.06504507 0.4123284
v 0.04949546 0.03926681 0.5246419
v 0.04949524 0.06504507 0.4123284
v -0.05977922 0.03926681 0.5246419
v -0.05977922 0.03926681 0.5246419
v 0.04949546 -0.03785893 0.5246419
v 0.04949546 0.03926681 0.5246419
v -0.05977922 -0.03785893 0.5246419
v -0.05977922 -0.03785893 0.5246419
v 0.04949524 -0.06897534 0.4123284
v 0.04949546 -0.03785893 0.5246419
v -0.05977949 -0.06897534 0.4123284
v 0.2741484 -0.2145437 0.07511684
v 0.2471189 -0.2145437 0.07840041
v 0.199364 -0.1689145 -0.3147068
v 0.2263936 -0.1689145 -0.3179902
v 0.199364 0.1679583 -0.3147068
v 0.2263936 0.1679583 -0.3179902
v 0.2741484 0.2135877 0.07511684
v 0.2471189 0.2135877 0.07840041
v -0.2367121 0.1677169 -0.3177081
v -0.2074217 0.1677169 -0.3141502
v -0.2074217 -0.1686729 -0.3141502
v -0.2367121 -0.1686729 -0.3177081
v -0.2843985 0.2132807 0.07483508
v -0.2551081 0.2132807 0.07839324
v -0.2843985 -0.214237 0.07483508
v -0.2551081 -0.214237 0.07839324
v -0.1841259 0.2204032 -0.3210027
v -0.1841259 0.1921699 -0.3177255
v -0.2326124 0.2384984 0.08140643
v -0.2326124 0.2667318 0.0781294
v 0.2223284 0.2384984 0.08140643
v 0.2223284 0.2667318 0.0781294
v 0.1738416 0.1921699 -0.3177255
v 0.1738416 0.2204032 -0.3210027
v -0.2326838 -0.2676954 0.07819192
v -0.2326838 -0.2409867 0.08129217
v -0.1841821 -0.1946435 -0.3179651
v -0.1841821 -0.2213521 -0.3210652
v 0.1738978 -0.1946435 -0.3179651
v 0.1738978 -0.2213521 -0.3210652
v 0.2223999 -0.2676954 0.07819192
v 0.2223999 -0.2409867 0.08129217
v -0.2551081 -0.214237 0.07839324
v -0.2074217 0.1677169 -0.3141502
v -0.2551081 0.2132807 0.07839324
v -0.2074217 -0.1686729 -0.3141502
v -0.2367121 -0.1686729 -0.3177081
v -0.2074217 -0.1686729 -0.3141502
v -0.2551081 -0.214237 0.07839324
v -0.2843985 -0.214237 0.07483508
v 0.2471189 0.2135877 0.07840041
v 0.199364 -0.1689145 -0.3147068
v 0.2471189 -0.2145437 0.07840041
v 0.199364 0.1679583 -0.3147068
v -0.2326124 0.2384984 0.08140643
v 0.1738416 0.1921699 -0.3177255
v 0.2223284 0.2384984 0.08140643
v -0.1841259 0.1921699 -0.3177255
v 0.2223999 -0.2409867 0.08129217
v -0.1841821 -0.1946435 -0.3179651
v -0.2326838 -0.2409867 0.08129217
v 0.1738978 -0.1946435 -0.3179651
vt 0.1525237 0.7306195
vt 0.1484661 0.7272004
vt 0.1488795 0.7310145
vt 0.1521103 0.7268055
vt 0.1559673 0.7268541
vt 0.1520382 0.7253138
vt 0.1521103 0.7268055
vt 0.1561175 0.7252519
vt 0.1521103 0.7268055
vt 0.1481908 0.7256925
vt 0.1484661 0.7272004
vt 0.1520382 0.7253138
vt 0.1484661 0.7272004
vt 0.1441919 0.7267847
vt 0.1445932 0.7282564
vt 0.1481908 0.7256925
vt 0.1600255 0.7277113
vt 0.1561175 0.7252519
vt 0.1559673 0.7268541
vt 0.1603664 0.7260973
vt 0.02631124 0.6917238
vt 0.02234788 0.6901192
vt 0.02223186 0.6917857
vt 0.02653082 0.6896302
vt 0.02223186 0.6917857
vt 0.01852431 0.6900155
vt 0.01838451 0.6921643
vt 0.02234788 0.6901192
vt 0.01838451 0.6921643
vt 0.01112876 0.6913588
vt 0.01438562 0.6932566
vt 0.01852431 0.6900155
vt 0.03056014 0.6925691
vt 0.02653082 0.6896302
vt 0.02631124 0.6917238
vt 0.03356537 0.6903608
vt 0.02653082 0.6896302
vt 0.02233214 0.6896018
vt 0.02234788 0.6901192
vt 0.02662931 0.6891901
vt 0.02234788 0.6901192
vt 0.01837261 0.6895892
vt 0.01852431 0.6900155
vt 0.02233214 0.6896018
vt 0.01852431 0.6900155
vt 0.01134397 0.690228
vt 0.01112876 0.6913588
vt 0.01837261 0.6895892
vt 0.03356537 0.6903608
vt 0.02662931 0.6891901
vt 0.02653082 0.6896302
vt 0.03327414 0.6892503
vt 0.02662931 0.6891901
vt 0.02234208 0.6889936
vt 0.02233214 0.6896018
vt 0.02684525 0.6887012
vt 0.01807263 0.6891312
vt 0.01837261 0.6895892
vt 0.01247901 0.6890755
vt 0.01134397 0.690228
vt 0.03327414 0.6892503
vt 0.03209537 0.6881511
vt 0.02234208 0.6889936
vt 0.02234208 0.6889936
vt 0.02218619 0.6845987
vt 0.02218619 0.6845987
vt 0.02635617 0.6841587
vt 0.02635617 0.6841587
vt 0.02684525 0.6887012
vt 0.02684525 0.6887012
vt 0.01807263 0.6891312
vt 0.01807263 0.6891312
vt 0.01815647 0.6845701
vt 0.01815647 0.6845701
vt 0.02218619 0.6845987
vt 0.02218619 0.6845987
vt 0.02234208 0.6889936
vt 0.02234208 0.6889936
vt 0.01365798 0.6841494
vt 0.01365798 0.6841494
vt 0.01815647 0.6845701
vt 0.01815647 0.6845701
vt 0.01807263 0.6891312
vt 0.01807263 0.6891312
vt 0.01247901 0.6890755
vt 0.01247901 0.6890755
vt 0.01365798 0.6841494
vt 0.01365798 0.6841494
vt 0.01247901 0.6890755
vt 0.01247901 0.6890755
vt 0.02635617 0.6841587
vt 0.02635617 0.6841587
vt 0.03047689 0.6834123
vt 0.03047689 0.6834123
vt 0.02684525 0.6887012
vt 0.02684525 0.6887012
vt 0.03209537 0.6881511
vt 0.03209537 0.6881511
vt 0.02635617 0.6841587
vt 0.02216017 0.6840622
vt 0.02218619 0.6845987
vt 0.02626484 0.683566
vt 0.02218619 0.6845987
vt 0.01824335 0.6839657
vt 0.01815647 0.6845701
vt 0.02216017 0.6840622
vt 0.01815647 0.6845701
vt 0.01317824 0.6835018
vt 0.01365798 0.6841494
vt 0.01824335 0.6839657
vt 0.03047689 0.6834123
vt 0.02626484 0.683566
vt 0.02635617 0.6841587
vt 0.030859 0.6827325
vt 0.02626484 0.683566
vt 0.02212843 0.6833608
vt 0.02216017 0.6840622
vt 0.02614826 0.682806
vt 0.02216017 0.6840622
vt 0.01829091 0.6831841
vt 0.01824335 0.6839657
vt 0.02212843 0.6833608
vt 0.01824335 0.6839657
vt 0.01327177 0.6826396
vt 0.01317824 0.6835018
vt 0.01829091 0.6831841
vt 0.030859 0.6827325
vt 0.02614826 0.682806
vt 0.02626484 0.683566
vt 0.03069873 0.6819144
vt 0.01829091 0.6831841
vt 0.02231331 0.6793446
vt 0.01847582 0.6791679
vt 0.02212843 0.6833608
vt 0.066918 0.6915119
vt 0.06390461 0.6905792
vt 0.06373867 0.6916493
vt 0.06674001 0.6904907
vt 0.06093579 0.6906675
vt 0.07005218 0.6913748
vt 0.06373867 0.6916493
vt 0.06059422 0.6917868
vt 0.06674001 0.6904907
vt 0.06960986 0.6903057
vt 0.06382606 0.6936524
vt 0.066918 0.6915119
vt 0.06373867 0.6916493
vt 0.06700518 0.693515
vt 0.06068133 0.6937898
vt 0.06373867 0.6916493
vt 0.06059422 0.6917868
vt 0.06382606 0.6936524
vt 0.06700518 0.693515
vt 0.06397072 0.694711
vt 0.06700432 0.6945381
vt 0.06382606 0.6936524
vt 0.06101625 0.6948819
vt 0.06068133 0.6937898
vt 0.07013944 0.6933779
vt 0.06991895 0.6944782
vt 0.066918 0.6915119
vt 0.07013944 0.6933779
vt 0.07005218 0.6913748
vt 0.06700518 0.693515
vt 0.06932306 0.6878323
vt 0.06674001 0.6904907
vt 0.06960986 0.6903057
vt 0.06650433 0.68764
vt 0.06650433 0.68764
vt 0.06390461 0.6905792
vt 0.06674001 0.6904907
vt 0.06376988 0.6877729
vt 0.06376988 0.6877729
vt 0.06093579 0.6906675
vt 0.06390461 0.6905792
vt 0.0609674 0.6882752
vt 0.01807263 0.6891312
vt 0.01807263 0.6891312
vt 0.01815647 0.6845701
vt 0.01815647 0.6845701
vt 0.02218619 0.6845987
vt 0.02218619 0.6845987
vt 0.02234208 0.6889936
vt 0.02234208 0.6889936
vt 0.02635617 0.6841587
vt 0.02635617 0.6841587
vt 0.03047689 0.6834123
vt 0.03047689 0.6834123
vt 0.02684525 0.6887012
vt 0.02684525 0.6887012
vt 0.03209537 0.6881511
vt 0.03209537 0.6881511
vt 0.02635617 0.6841587
vt 0.02635617 0.6841587
vt 0.02684525 0.6887012
vt 0.02684525 0.6887012
vt 0.02234208 0.6889936
vt 0.02234208 0.6889936
vt 0.02218619 0.6845987
vt 0.02218619 0.6845987
vt 0.01247901 0.6890755
vt 0.01247901 0.6890755
vt 0.01365798 0.6841494
vt 0.01365798 0.6841494
vt 0.01815647 0.6845701
vt 0.01815647 0.6845701
vt 0.01807263 0.6891312
vt 0.01807263 0.6891312
vt 0.2928128 0.6146013
vt 0.2870736 0.6106089
vt 0.2875627 0.6151514
vt 0.2911943 0.6098626
vt 0.01365798 0.6841494
vt 0.01365798 0.6841494
vt 0.01247901 0.6890755
vt 0.01247901 0.6890755
vt 0.2830595 0.6154438
vt 0.2788739 0.6110203
vt 0.2787901 0.6155815
vt 0.2829036 0.611049
vt 0.2875627 0.6151514
vt 0.2829036 0.611049
vt 0.2830595 0.6154438
vt 0.2870736 0.6106089
vt 0.2787901 0.6155815
vt 0.2743754 0.6105997
vt 0.2731964 0.6155258
vt 0.2788739 0.6110203
vn 0 0 1
vn 0 0 1
vn 0 0 1
vn 0 0 1
vn 0 1 0
vn 0 1 0
vn 0 1 0
vn 0 1 0
vn 1 0 0
vn 1 0 0
vn 1 0 0
vn 1 0 0
vn 0 -1 0
vn 0 -1 0
vn 0 -1 0
vn 0 -1 0
vn -1 0 0
vn -1 0 0
vn -1 0 0
vn -1 0 0
vn 0 0.4379208 0.8990135
vn 0 0.4379208 0.8990135
vn 0 0.4379208 0.8990135
vn 0 0.4379208 0.8990135
vn 0.4219679 0 0.9066108
vn 0.4219679 0 0.9066108
vn 0.421968 0 0.9066107
vn 0.4219678 0 0.9066108
vn 0 -0.4379207 0.8990136
vn 0 -0.4379207 0.8990136
vn 0 -0.4379206 0.8990136
vn 0 -0.4379207 0.8990136
vn -0.4219691 0 0.9066103
vn -0.4219692 0 0.9066102
vn -0.4219693 0 0.9066101
vn -0.421969 0 0.9066103
vn 0 1 0
vn 0 1 0
vn 0 1 0
vn 0 1 0
vn 1 0 0
vn 1 0 0
vn 1 0 0
vn 1 0 0
vn 0 -1 0
vn 0 -1 0
vn 0 -1 0
vn 0 -1 0
vn -1 0 0
vn -1 0 0
vn -1 0 0
vn -1 0 0
vn 0 0 -1
vn 0 0 -1
vn 0 0 -1
vn 0 0 -1
vn 0 0 -1
vn 0 0 -1
vn 0 0 -1
vn 0 0 -1
vn 0 0 -1
vn 0 0 -1
vn 0 0.9933305 -0.1153011
vn 0 0.9933305 -0.1153011
vn 0 0.9933311 -0.1152969
vn 0 0.9933311 -0.1152969
vn 0 0.9933311 -0.1152968
vn 0 0.9933311 -0.1152969
vn 0 0.9933305 -0.1153011
vn 0 0.9933305 -0.115301
vn 0.9927018 0 -0.1205954
vn 0.9927018 0 -0.1205954
vn 0.9927018 0 -0.1205954
vn 0.9927018 0 -0.1205954
vn 0.9927018 0 -0.1205954
vn 0.9927018 0 -0.1205954
vn 0.9927018 0 -0.1205954
vn 0.9927018 0 -0.1205954
vn 0 -0.9933307 -0.1153003
vn 0 -0.9933307 -0.1153003
vn 0 -0.9933307 -0.1153002
vn 0 -0.9933307 -0.1153002
vn 0 -0.9933307 -0.1153005
vn 0 -0.9933307 -0.1153005
vn 0 -0.9933307 -0.1153005
vn 0 -0.9933307 -0.1153005
vn -0.9927019 0 -0.1205938
vn -0.9927019 0 -0.1205938
vn -0.9927023 0 -0.1205905
vn -0.9927023 0 -0.1205904
vn -0.9927019 0 -0.1205938
vn -0.9927019 0 -0.1205938
vn -0.9927019 0 -0.1205938
vn -0.9927019 0 -0.1205938
vn -0.9927023 0 -0.1205904
vn -0.9927023 0 -0.1205905
vn -0.9927023 0 -0.1205904
vn -0.9927023 0 -0.1205905
vn 0 0.4761383 0.8793704
vn 0 0.4761384 0.8793704
vn 0 0.4761383 0.8793704
vn 0 0.4761383 0.8793704
vn 0.4595098 0 0.8881727
vn 0.4595087 0 0.8881732
vn 0.4595085 0 0.8881733
vn 0.4595098 0 0.8881726
vn 0 -0.4761419 0.8793684
vn 0 -0.4761418 0.8793685
vn 0 -0.4761417 0.8793685
vn 0 -0.4761419 0.8793684
vn -0.4595127 0 0.8881712
vn -0.4595121 0 0.8881716
vn -0.459512 0 0.8881716
vn -0.4595128 0 0.8881711
vn 0 1 0
vn 0 1 0
vn 0 1 0
vn 0 1 0
vn 1 0 0
vn 1 0 0
vn 1 0 0
vn 1 0 0
vn 0 -1 0
vn 0 -1 0
vn 0 -1 0
vn 0 -1 0
vn -1 0 0
vn -1 0 0
vn -1 0 0
vn -1 0 0
vn 0 0 -1
vn 0 0 -1
vn 0 0 -1
vn 0 0 -1
vn 1 0 0
vn 1 0 0
vn 1 0 0
vn 1 0 0
vn 1 0 0
vn 1 0 0
vn 1 0 0
vn 1 0 0
vn 1 0 0
vn 1 0 0
vn 0 0 1
vn 0 0 1
vn 0 0 1
vn 0 0 1
vn 0 -0.9678667 0.251464
vn 0 -0.9678667 0.251464
vn 0 -0.9678667 0.251464
vn 0 -0.9678667 0.251464
vn -1 0 0
vn -1 0 0
vn -1 0 0
vn -1 0 0
vn -1 0 0
vn -1 0 0
vn -1 0 0
vn -1 0 0
vn 0 0.9710354 0.2389359
vn 0 0.9710354 0.2389359
vn 0 0.9710354 0.2389359
vn 0 0.9710354 0.238936
vn 0 -0.9746572 -0.2237039
vn 0 -0.9746572 -0.2237039
vn 0 -0.9746572 -0.2237039
vn 0 -0.9746572 -0.2237039
vn 0 0 -1
vn 0 0 -1
vn 0 0 -1
vn 0 0 -1
vn 0 0.9636987 -0.2669924
vn 0 0.9636987 -0.2669924
vn 0 0.9636987 -0.2669924
vn 0 0.9636987 -0.2669923
vn -0.08024468 0.7464815 -0.6605498
vn -0.08024471 0.7464812 -0.6605502
vn 0.09001625 0.6654048 0.7410355
vn 0.09001593 0.6654078 0.7410328
vn 0.09001629 -0.6654046 0.7410356
vn 0.09001598 -0.6654076 0.741033
vn -0.08024463 -0.7464817 -0.6605497
vn -0.08024465 -0.7464814 -0.6605499
vn -0.09001562 -0.6654078 0.7410328
vn -0.09001596 -0.6654047 0.7410356
vn -0.09001596 0.6654044 0.7410358
vn -0.09001563 0.6654075 0.741033
vn 0.08024294 -0.7464809 -0.6605507
vn 0.08024282 -0.7464818 -0.6605498
vn 0.08024293 0.7464812 -0.6605505
vn 0.0802428 0.7464821 -0.6605494
vn 0.6634002 0.08627372 0.7432746
vn 0.6634003 0.0862737 0.7432745
vn 0.7482658 -0.07648712 -0.6589749
vn 0.7482638 -0.07648739 -0.6589772
vn -0.7482661 -0.07648623 -0.6589748
vn -0.748264 -0.07648649 -0.6589771
vn -0.6634 0.0862745 0.7432746
vn -0.6633999 0.08627451 0.7432747
vn 0.7482654 0.07649137 -0.6589749
vn 0.7482643 0.07649153 -0.6589762
vn 0.6633989 -0.08627135 0.7432759
vn 0.6634011 -0.08627114 0.743274
vn -0.6633987 -0.08627104 0.7432762
vn -0.6634009 -0.08627082 0.7432743
vn -0.7482657 0.07649173 -0.6589746
vn -0.7482645 0.07649188 -0.6589759
vn -0.9927019 0 -0.120594
vn -0.9927019 0 -0.120594
vn -0.9927019 0 -0.120594
vn -0.9927019 0 -0.120594
vn -0.09001563 0.6654075 0.741033
vn -0.09001596 0.6654044 0.7410358
vn 0.0802428 0.7464821 -0.6605494
vn 0.08024293 0.7464812 -0.6605505
vn 0.9927019 0 -0.1205941
vn 0.9927019 0 -0.1205941
vn 0.9927019 0 -0.1205941
vn 0.9927019 0 -0.1205941
vn 0 0.9933308 -0.1152989
vn 0 0.9933308 -0.1152989
vn 0 0.9933308 -0.1152989
vn 0 0.9933308 -0.1152989
vn 0 -0.9933308 -0.1152992
vn 0 -0.9933308 -0.1152992
vn 0 -0.9933308 -0.1152992
vn 0 -0.9933308 -0.1152993
g 04_lamp_0
f 3/3/3 2/2/2 1/1/1
f 4/4/4 1/1/1 2/2/2
f 7/7/7 6/6/6 5/5/5
f 8/8/8 5/5/5 6/6/6
f 11/11/11 10/10/10 9/9/9
f 12/12/12 9/9/9 10/10/10
f 15/15/15 14/14/14 13/13/13
f 16/16/16 13/13/13 14/14/14
f 19/19/19 18/18/18 17/17/17
f 20/20/20 17/17/17 18/18/18
f 23/23/23 22/22/22 21/21/21
f 24/24/24 21/21/21 22/22/22
f 27/27/27 26/26/26 25/25/25
f 28/28/28 25/25/25 26/26/26
f 31/31/31 30/30/30 29/29/29
f 32/32/32 29/29/29 30/30/30
f 35/35/35 34/34/34 33/33/33
f 36/36/36 33/33/33 34/34/34
f 39/39/39 38/38/38 37/37/37
f 40/40/40 37/37/37 38/38/38
f 43/43/43 42/42/42 41/41/41
f 44/44/44 41/41/41 42/42/42
f 47/47/47 46/46/46 45/45/45
f 48/48/48 45/45/45 46/46/46
f 51/51/51 50/50/50 49/49/49
f 52/52/52 49/49/49 50/50/50
f 55/55/55 54/54/54 53/53/53
f 56/56/56 53/53/53 54/54/54
f 54/54/54 55/55/55 57/57/57
f 58/58/58 57/57/57 55/55/55
f 57/57/57 58/58/58 59/59/59
f 60/60/60 59/59/59 58/58/58
f 53/53/53 56/56/56 61/61/61
f 62/62/62 61/61/61 56/56/56
f 65/65/65 64/64/64 63/63/63
f 66/66/66 65/65/65 63/63/63
f 67/67/67 65/65/65 66/66/66
f 68/68/68 67/67/67 66/66/66
f 69/69/69 67/67/67 68/68/68
f 70/70/70 69/69/69 68/68/68
f 64/64/64 69/69/69 70/70/70
f 63/63/63 64/64/64 70/70/70
f 73/73/73 72/72/72 71/71/71
f 74/74/74 73/73/73 71/71/71
f 75/75/75 73/73/73 74/74/74
f 76/76/76 75/75/75 74/74/74
f 77/77/77 75/75/75 76/76/76
f 78/78/78 77/77/77 76/76/76
f 72/72/72 77/77/77 78/78/78
f 71/71/71 72/72/72 78/78/78
f 81/81/81 80/80/80 79/79/79
f 82/82/82 81/81/81 79/79/79
f 83/83/83 81/81/81 82/82/82
f 84/84/84 83/83/83 82/82/82
f 79/79/79 80/80/80 85/85/85
f 80/80/80 86/86/86 85/85/85
f 86/86/86 83/83/83 84/84/84
f 85/85/85 86/86/86 84/84/84
f 89/89/89 88/88/88 87/87/87
f 90/90/90 89/89/89 87/87/87
f 93/93/93 92/92/92 91/91/91
f 94/94/94 93/93/93 91/91/91
f 91/91/91 92/92/92 95/95/95
f 92/92/92 96/96/96 95/95/95
f 95/95/95 96/96/96 97/97/97
f 96/96/96 98/98/98 97/97/97
f 101/101/101 100/100/100 99/99/99
f 102/102/102 99/99/99 100/100/100
f 105/105/105 104/104/104 103/103/103
f 106/106/106 103/103/103 104/104/104
f 109/109/109 108/108/108 107/107/107
f 110/110/110 107/107/107 108/108/108
f 113/113/113 112/112/112 111/111/111
f 114/114/114 111/111/111 112/112/112
f 117/117/117 116/116/116 115/115/115
f 118/118/118 115/115/115 116/116/116
f 121/121/121 120/120/120 119/119/119
f 122/122/122 119/119/119 120/120/120
f 125/125/125 124/124/124 123/123/123
f 126/126/126 123/123/123 124/124/124
f 129/129/129 128/128/128 127/127/127
f 130/130/130 127/127/127 128/128/128
f 133/133/133 132/132/132 131/131/131
f 134/134/134 131/131/131 132/132/132
f 137/137/137 136/136/136 135/135/135
f 138/138/138 135/135/135 136/136/136
f 136/136/136 137/137/137 139/139/139
f 135/135/135 138/138/138 140/140/140
f 142/142/142 139/139/139 141/141/141
f 144/144/144 140/140/140 143/143/143
f 147/147/147 146/146/146 145/145/145
f 148/148/148 145/145/145 146/146/146
f 151/151/151 150/150/150 149/149/149
f 152/152/152 149/149/149 150/150/150
f 155/155/155 154/154/154 153/153/153
f 156/156/156 153/153/153 154/154/154
f 154/154/154 157/157/157 156/156/156
f 158/158/158 156/156/156 157/157/157
f 153/153/153 159/159/159 155/155/155
f 160/160/160 155/155/155 159/159/159
f 163/163/163 162/162/162 161/161/161
f 164/164/164 161/161/161 162/162/162
f 167/167/167 166/166/166 165/165/165
f 168/168/168 165/165/165 166/166/166
f 171/171/171 170/170/170 169/169/169
f 172/172/172 169/169/169 170/170/170
f 175/175/175 174/174/174 173/173/173
f 176/176/176 173/173/173 174/174/174
f 179/179/179 178/178/178 177/177/177
f 180/180/180 179/179/179 177/177/177
f 181/181/181 179/179/179 180/180/180
f 182/182/182 181/181/181 180/180/180
f 177/177/177 178/178/178 183/183/183
f 178/178/178 184/184/184 183/183/183
f 184/184/184 181/181/181 182/182/182
f 183/183/183 184/184/184 182/182/182
f 187/187/187 186/186/186 185/185/185
f 188/188/188 187/187/187 185/185/185
f 185/185/185 186/186/186 189/189/189
f 186/186/186 190/190/190 189/189/189
f 189/189/189 190/190/190 191/191/191
f 190/190/190 192/192/192 191/191/191
f 195/195/195 194/194/194 193/193/193
f 196/196/196 195/195/195 193/193/193
f 197/197/197 195/195/195 196/196/196
f 198/198/198 197/197/197 196/196/196
f 199/199/199 197/197/197 198/198/198
f 200/200/200 199/199/199 198/198/198
f 194/194/194 199/199/199 200/200/200
f 193/193/193 194/194/194 200/200/200
f 203/203/203 202/202/202 201/201/201
f 204/204/204 203/203/203 201/201/201
f 205/205/205 203/203/203 204/204/204
f 206/206/206 205/205/205 204/204/204
f 201/201/201 202/202/202 207/207/207
f 202/202/202 208/208/208 207/207/207
f 208/208/208 205/205/205 206/206/206
f 207/207/207 208/208/208 206/206/206
f 211/211/211 210/210/210 209/209/209
f 212/212/212 209/209/209 210/210/210
f 215/215/215 214/214/214 213/213/213
f 216/216/216 215/215/215 213/213/213
f 219/219/219 218/218/218 217/217/217
f 220/220/220 217/217/217 218/218/218
f 223/223/223 222/222/222 221/221/221
f 224/224/224 221/221/221 222/222/222
f 227/227/227 226/226/226 225/225/225
f 228/228/228 225/225/225 226/226/226
