g 75_gold bar
v -0.2881844 -0.4440133 -0.232532
v 0.2692645 -0.4652138 -0.232532
v 0.2881844 -0.4440129 -0.232532
v -0.2692639 -0.4652138 -0.232532
v -0.2881844 0.4548101 -0.232532
v 0.2881849 0.4548101 -0.232532
v -0.2692641 0.4760101 -0.232532
v 0.2692645 0.4760102 -0.232532
v 0.1883179 -0.4029284 0.1213632
v -0.1977187 -0.3819036 0.1370133
v 0.1977189 -0.3819034 0.1370133
v -0.1883178 -0.4029285 0.1213632
v 0.1748367 -0.3597335 0.1370133
v 0.1748366 0.3705298 0.1370133
v 0.1977189 0.3926997 0.1370133
v -0.1748364 -0.3597337 0.1370133
v -0.1977186 0.3926997 0.1370133
v 0.1883172 0.4137247 0.1213632
v -0.1883175 0.4137246 0.1213632
v -0.1748363 0.3705297 0.1370133
v -0.2692639 -0.4652138 -0.232532
v 0.1883179 -0.4029284 0.1213632
v 0.2692645 -0.4652138 -0.232532
v -0.1883178 -0.4029285 0.1213632
v 0.2881844 -0.4440129 -0.232532
v 0.1883179 -0.4029284 0.1213632
v 0.1977189 -0.3819034 0.1370133
v 0.2692645 -0.4652138 -0.232532
v 0.2881849 0.4548101 -0.232532
v 0.1977189 0.3926997 0.1370133
v 0.1883172 0.4137247 0.1213632
v 0.2692645 0.4760102 -0.232532
v 0.2692645 0.4760102 -0.232532
v -0.1883175 0.4137246 0.1213632
v -0.2692641 0.4760101 -0.232532
v 0.1883172 0.4137247 0.1213632
v -0.2881844 0.4548101 -0.232532
v -0.1883175 0.4137246 0.1213632
v -0.1977186 0.3926997 0.1370133
v -0.2692641 0.4760101 -0.232532
v -0.1977187 -0.3819036 0.1370133
v -0.2881844 -0.4440133 -0.232532
v -0.1883178 -0.4029285 0.1213632
v -0.2692639 -0.4652138 -0.232532
v -0.1748364 -0.3597337 0.1370133
v -0.1748364 -0.3597337 0.1216566
v 0.1748367 -0.3597335 0.1216566
v 0.1748367 -0.3597335 0.1370133
v 0.1748366 0.3705298 0.1216566
v 0.1748366 0.3705298 0.1370133
v -0.1748363 0.3705297 0.1216566
v -0.1748363 0.3705297 0.1370133
v 0.1528715 0.3473103 0.1370133
v -0.1528712 -0.3365142 0.1370133
v -0.1528711 0.3473102 0.1370133
v 0.1528715 -0.3365141 0.1370133
v 0.1528715 -0.3365141 0.1370133
v 0.1528715 -0.3365141 0.1216566
v -0.1528712 -0.3365142 0.1216566
v -0.1528712 -0.3365142 0.1370133
v -0.1528711 0.3473102 0.1216566
v -0.1528711 0.3473102 0.1370133
v 0.1528715 0.3473103 0.1370133
v 0.1528715 0.3473103 0.1216566
v 0.1748366 0.3705298 0.1216566
v 0.1528715 0.3473103 0.1216566
v -0.1528711 0.3473102 0.1216566
v -0.1748363 0.3705297 0.1216566
v 0.1748367 -0.3597335 0.1216566
v 0.1528715 -0.3365141 0.1216566
v -0.1748364 -0.3597337 0.1216566
v -0.1528712 -0.3365142 0.1216566
vt 0.2702531 0.6218051
vt 0.2744597 0.6220942
vt 0.2744814 0.6219015
vt 0.2702486 0.6219963
vt 0.2704414 0.6136971
vt 0.2746697 0.6137972
vt 0.2704459 0.6135059
vt 0.274657 0.6136037
vt 0.277253 0.621572
vt 0.2801312 0.6214724
vt 0.2772717 0.621406
vt 0.2801422 0.6216391
vt 0.2772717 0.621406
vt 0.277434 0.6144217
vt 0.277434 0.6144217
vt 0.2801312 0.6214724
vt 0.2802935 0.6144881
vt 0.277423 0.614255
vt 0.2803122 0.6143221
vt 0.2802935 0.6144881
vt 0.280739 0.6244175
vt 0.277253 0.621572
vt 0.2765279 0.6243197
vt 0.2801422 0.6216391
vt 0.2744814 0.6219015
vt 0.277253 0.621572
vt 0.2772717 0.621406
vt 0.2744597 0.6220942
vt 0.2746697 0.6137972
vt 0.277434 0.6144217
vt 0.277423 0.614255
vt 0.274657 0.6136037
vt 0.2768263 0.6114766
vt 0.2803122 0.6143221
vt 0.2810374 0.6115745
vt 0.277423 0.614255
vt 0.2830666 0.6139941
vt 0.2803122 0.6143221
vt 0.2802935 0.6144881
vt 0.2831056 0.6138
vt 0.2801312 0.6214724
vt 0.2828784 0.6220948
vt 0.2801422 0.6216391
vt 0.2829083 0.6222904
vt 0.2801312 0.6214724
vt 0.2801312 0.6214724
vt 0.2772717 0.621406
vt 0.2772717 0.621406
vt 0.277434 0.6144217
vt 0.277434 0.6144217
vt 0.2802935 0.6144881
vt 0.2802935 0.6144881
vt 0.277434 0.6144217
vt 0.2801312 0.6214724
vt 0.2802935 0.6144881
vt 0.2772717 0.621406
vt 0.2772717 0.621406
vt 0.2772717 0.621406
vt 0.2801312 0.6214724
vt 0.2801312 0.6214724
vt 0.2802935 0.6144881
vt 0.2802935 0.6144881
vt 0.277434 0.6144217
vt 0.277434 0.6144217
vt 0.277434 0.6144217
vt 0.277434 0.6144217
vt 0.2802935 0.6144881
vt 0.2802935 0.6144881
vt 0.2772717 0.621406
vt 0.2772717 0.621406
vt 0.2801312 0.6214724
vt 0.2801312 0.6214724
vn 0 0 -1
vn 0 0 -1
vn 0 0 -1
vn 0 0 -1
vn 0 0 -1
vn 0 0 -1
vn 0 0 -1
vn 0 0 -1
vn 0 -0.5971006 0.8021664
vn 0 -0.2755614 0.9612834
vn 0 -0.2755594 0.961284
vn 0 -0.5971026 0.8021648
vn 0 0 1
vn 0 0 1
vn 0 0.2755568 0.9612848
vn 0 0 1
vn 0 0.2755599 0.9612839
vn 0 0.5971001 0.8021667
vn 0 0.5971012 0.8021659
vn 0 0 1
vn 0 -0.9848629 0.1733355
vn 0 -0.9848629 0.1733354
vn 0 -0.9848629 0.1733354
vn 0 -0.9848628 0.1733356
vn 0.8941898 -0.3533824 0.2748555
vn 0.7762159 -0.5626937 0.2843672
vn 0.9417163 -0.2068488 0.2652997
vn 0.7169929 -0.6398495 0.2766112
vn 0.8941837 0.3533957 0.274858
vn 0.9417139 0.2068571 0.2653018
vn 0.7762024 0.5627117 0.2843685
vn 0.7169723 0.6398721 0.2766123
vn 0 0.9848629 0.1733354
vn 0 0.9848629 0.1733354
vn 0 0.9848629 0.1733353
vn 0 0.9848629 0.1733355
vn -0.8941833 0.3533972 0.2748573
vn -0.7762116 0.5626994 0.2843677
vn -0.9417158 0.2068502 0.2653005
vn -0.7169704 0.6398748 0.2766108
vn -0.9417164 -0.206848 0.2652999
vn -0.8941849 -0.353394 0.2748566
vn -0.7762148 -0.5626951 0.2843671
vn -0.7169749 -0.6398702 0.2766102
vn 0.7071066 0.7071069 0
vn 0.7071066 0.7071069 0
vn -0.707107 0.7071065 0
vn -0.707107 0.7071065 0
vn -0.7071066 -0.7071069 0
vn -0.7071066 -0.7071069 0
vn 0.7071068 -0.7071068 0
vn 0.7071068 -0.7071068 0
vn 0 0 1
vn 0 0 1
vn 0 0 1
vn 0 0 1
vn 0.707107 -0.7071066 0
vn 0.707107 -0.7071066 0
vn -0.7071066 -0.7071069 0
vn -0.7071066 -0.7071069 0
vn -0.7071069 0.7071066 0
vn -0.7071069 0.7071066 0
vn 0.7071066 0.7071069 0
vn 0.7071066 0.7071069 0
vn 0 0 1
vn 0 0 1
vn 0 0 1
vn 0 0 1
vn 0 0 1
vn 0 0 1
vn 0 0 1
vn 0 0 1
g 75_gold bar_0
f 3/3/3 2/2/2 1/1/1
f 4/4/4 1/1/1 2/2/2
f 1/1/1 5/5/5 3/3/3
f 6/6/6 3/3/3 5/5/5
f 5/5/5 7/7/7 6/6/6
f 8/8/8 6/6/6 7/7/7
f 11/11/11 10/10/10 9/9/9
f 12/12/12 9/9/9 10/10/10
f 11/11/11 13/13/13 10/10/10
f 14/14/14 13/13/13 11/11/11
f 15/15/15 14/14/14 11/11/11
f 13/13/13 16/16/16 10/10/10
f 10/10/10 16/16/16 17/17/17
f 15/15/15 18/18/18 17/17/17
f 19/19/19 17/17/17 18/18/18
f 16/16/16 20/20/20 17/17/17
f 20/20/20 14/14/14 15/15/15
f 17/17/17 20/20/20 15/15/15
f 23/23/23 22/22/22 21/21/21
f 24/24/24 21/21/21 22/22/22
f 27/27/27 26/26/26 25/25/25
f 28/28/28 25/25/25 26/26/26
f 25/25/25 29/29/29 27/27/27
f 30/30/30 27/27/27 29/29/29
f 30/30/30 29/29/29 31/31/31
f 32/32/32 31/31/31 29/29/29
f 35/35/35 34/34/34 33/33/33
f 36/36/36 33/33/33 34/34/34
f 39/39/39 38/38/38 37/37/37
f 40/40/40 37/37/37 38/38/38
f 39/39/39 37/37/37 41/41/41
f 42/42/42 41/41/41 37/37/37
f 41/41/41 42/42/42 43/43/43
f 44/44/44 43/43/43 42/42/42
f 47/47/47 46/46/46 45/45/45
f 48/48/48 47/47/47 45/45/45
f 49/49/49 47/47/47 48/48/48
f 50/50/50 49/49/49 48/48/48
f 51/51/51 49/49/49 50/50/50
f 52/52/52 51/51/51 50/50/50
f 46/46/46 51/51/51 52/52/52
f 45/45/45 46/46/46 52/52/52
f 55/55/55 54/54/54 53/53/53
f 56/56/56 53/53/53 54/54/54
f 59/59/59 58/58/58 57/57/57
f 60/60/60 59/59/59 57/57/57
f 61/61/61 59/59/59 60/60/60
f 62/62/62 61/61/61 60/60/60
f 57/57/57 58/58/58 63/63/63
f 58/58/58 64/64/64 63/63/63
f 64/64/64 61/61/61 62/62/62
f 63/63/63 64/64/64 62/62/62
f 67/67/67 66/66/66 65/65/65
f 68/68/68 67/67/67 65/65/65
f 65/65/65 66/66/66 69/69/69
f 66/66/66 70/70/70 69/69/69
f 69/69/69 70/70/70 71/71/71
f 70/70/70 72/72/72 71/71/71
f 72/72/72 67/67/67 68/68/68
f 71/71/71 72/72/72 68/68/68
