g ball
v -0.2847215 -0.2847215 0.2847215
v -0.1688916 -0.3348713 0.3348713
v -0.1824805 -0.4270823 0.1824806
v -0.3348712 -0.3348714 0.1688916
v -0.3596225 -0.3596227 1.055963E-08
v -0.1960695 -0.4581428 5.207828E-08
v 9.725216E-08 -0.4911445 8.714411E-08
v 6.200902E-08 -0.4581427 0.1960696
v 2.048369E-08 -0.3596226 0.3596227
v -0.1824805 -0.4270823 -0.1824805
v 1.212204E-07 -0.4581428 -0.1960695
v 1.290867E-07 -0.3596227 -0.3596225
v -0.1688915 -0.3348714 -0.3348712
v -0.2847213 -0.2847216 -0.2847215
v -0.3348711 -0.3348714 -0.1688916
v 0.1824807 -0.4270823 -0.1824805
v 0.1960696 -0.4581427 1.108037E-07
v 0.3596227 -0.3596226 1.182713E-07
v 0.3348714 -0.3348713 -0.1688915
v 0.2847216 -0.2847215 -0.2847214
v 0.1688917 -0.3348714 -0.3348711
v 0.1824806 -0.4270822 0.1824807
v 0.1688916 -0.3348712 0.3348714
v 0.2847215 -0.2847214 0.2847215
v 0.3348713 -0.3348712 0.1688917
v -0.2847216 0.2847214 0.2847214
v -0.3348713 0.3348712 0.1688915
v -0.1824807 0.4270821 0.1824805
v -0.1688917 0.3348712 0.3348712
v -1.023799E-07 0.3596225 0.3596225
v -9.451361E-08 0.4581427 0.1960695
v -7.054539E-08 0.4911444 -8.260774E-08
v -0.1960696 0.4581426 -1.062673E-07
v -0.3596226 0.3596224 -1.137349E-07
v 0.1824805 0.4270821 0.1824805
v 0.1960695 0.4581427 -4.754191E-08
v 0.3596225 0.3596225 -6.023249E-09
v 0.3348712 0.3348713 0.1688916
v 0.2847213 0.2847215 0.2847215
v 0.1688915 0.3348713 0.3348712
v 0.1824805 0.4270821 -0.1824806
v -3.530225E-08 0.4581426 -0.1960696
v 6.223083E-09 0.3596224 -0.3596226
v 0.1688916 0.3348712 -0.3348713
v 0.2847215 0.2847214 -0.2847215
v 0.3348712 0.3348712 -0.1688916
v -0.1824806 0.427082 -0.1824807
v -0.3348712 0.3348711 -0.1688917
v -0.2847215 0.2847213 -0.2847216
v -0.1688916 0.3348711 -0.3348713
v -0.2847215 -0.2847215 0.2847215
v -0.3348712 -0.1688916 0.3348712
v -0.1824806 -0.1824806 0.4270823
v -0.1688916 -0.3348713 0.3348713
v 2.048369E-08 -0.3596226 0.3596227
v -2.233106E-08 -0.1960696 0.4581428
v -6.080737E-08 -4.101809E-08 0.4911445
v -0.1960696 -7.501821E-08 0.4581427
v -0.3596226 -1.128328E-07 0.3596225
v 0.1824805 -0.1824805 0.4270823
v 0.1960695 -1.580686E-08 0.4581428
v 0.3596225 -4.229786E-09 0.3596226
v 0.3348712 -0.1688915 0.3348714
v 0.2847215 -0.2847214 0.2847215
v 0.1688916 -0.3348712 0.3348714
v 0.1824805 0.1824805 0.4270822
v -8.931744E-08 0.1960695 0.4581427
v -1.023799E-07 0.3596225 0.3596225
v 0.1688915 0.3348713 0.3348712
v 0.2847213 0.2847215 0.2847215
v 0.3348712 0.1688916 0.3348713
v -0.1824807 0.1824805 0.4270822
v -0.3348713 0.1688915 0.3348712
v -0.2847216 0.2847214 0.2847214
v -0.1688917 0.3348712 0.3348712
v 0.2847215 -0.2847214 0.2847215
v 0.3348712 -0.1688915 0.3348714
v 0.4270823 -0.1824805 0.1824806
v 0.3348713 -0.3348712 0.1688917
v 0.3596227 -0.3596226 1.182713E-07
v 0.4581428 -0.1960696 1.047614E-07
v 0.4911445 -3.225716E-08 7.582032E-08
v 0.4581427 -1.113205E-08 0.1960696
v 0.3596225 -4.229786E-09 0.3596226
v 0.4270823 -0.1824806 -0.1824805
v 0.4581428 -6.334852E-08 -0.1960695
v 0.3596227 -1.00003E-07 -0.3596225
v 0.3348714 -0.1688916 -0.3348711
v 0.2847216 -0.2847215 -0.2847214
v 0.3348714 -0.3348713 -0.1688915
v 0.4270823 0.1824805 -0.1824805
v 0.4581427 0.1960695 3.699481E-08
v 0.3596225 0.3596225 -6.023249E-09
v 0.3348712 0.3348712 -0.1688916
v 0.2847215 0.2847214 -0.2847215
v 0.3348713 0.1688915 -0.3348712
v 0.4270822 0.1824805 0.1824806
v 0.3348712 0.1688916 0.3348713
v 0.2847213 0.2847215 0.2847215
v 0.3348712 0.3348713 0.1688916
v 0.2847216 -0.2847215 -0.2847214
v 0.3348714 -0.1688916 -0.3348711
v 0.1824807 -0.1824807 -0.4270821
v 0.1688917 -0.3348714 -0.3348711
v 1.290867E-07 -0.3596227 -0.3596225
v 1.160242E-07 -0.1960697 -0.4581426
v 8.751415E-08 -1.718177E-07 -0.4911445
v 0.1960696 -1.378176E-07 -0.4581427
v 0.3596227 -1.00003E-07 -0.3596225
v -0.1824805 -0.1824807 -0.4270822
v -0.1960695 -1.97029E-07 -0.4581428
v -0.3596225 -2.08606E-07 -0.3596226
v -0.3348711 -0.1688917 -0.3348712
v -0.2847213 -0.2847216 -0.2847215
v -0.1688915 -0.3348714 -0.3348712
v -0.1824805 0.1824804 -0.4270823
v 4.903783E-08 0.1960694 -0.4581428
v 6.223083E-09 0.3596224 -0.3596226
v -0.1688916 0.3348711 -0.3348713
v -0.2847215 0.2847213 -0.2847216
v -0.3348712 0.1688914 -0.3348713
v 0.1824806 0.1824804 -0.4270822
v 0.3348713 0.1688915 -0.3348712
v 0.2847215 0.2847214 -0.2847215
v 0.1688916 0.3348712 -0.3348713
v -0.2847213 -0.2847216 -0.2847215
v -0.3348711 -0.1688917 -0.3348712
v -0.4270821 -0.1824807 -0.1824806
v -0.3348711 -0.3348714 -0.1688916
v -0.3596225 -0.3596227 1.055963E-08
v -0.4581426 -0.1960697 -3.245842E-08
v -0.4911444 -1.805787E-07 -7.128393E-08
v -0.4581426 -2.017038E-07 -0.1960696
v -0.3596225 -2.08606E-07 -0.3596226
v -0.4270822 -0.1824807 0.1824805
v -0.4581427 -1.494873E-07 0.1960695
v -0.3596226 -1.128328E-07 0.3596225
v -0.3348712 -0.1688916 0.3348712
v -0.2847215 -0.2847215 0.2847215
v -0.3348712 -0.3348714 0.1688916
v -0.4270822 0.1824804 0.1824805
v -0.4581427 0.1960694 -1.00225E-07
v -0.3596226 0.3596224 -1.137349E-07
v -0.3348713 0.3348712 0.1688915
v -0.2847216 0.2847214 0.2847214
v -0.3348713 0.1688915 0.3348712
v -0.4270822 0.1824804 -0.1824807
v -0.3348712 0.1688914 -0.3348713
v -0.2847215 0.2847213 -0.2847216
v -0.3348712 0.3348711 -0.1688917
vt 0.5386635 0.9209759
vt 0.5314734 0.919194
vt 0.5312898 0.9283922
vt 0.5405195 0.9281533
vt 0.5414965 0.9374778
vt 0.5317032 0.9374778
vt 0.5222034 0.9374778
vt 0.5222034 0.92801
vt 0.5222034 0.9183152
vt 0.5312898 0.9465635
vt 0.5222034 0.9469455
vt 0.5222034 0.9566405
vt 0.5314734 0.9557617
vt 0.5386635 0.9539797
vt 0.5405195 0.9468024
vt 0.513117 0.9465635
vt 0.5127035 0.9374778
vt 0.5029103 0.9374778
vt 0.5038873 0.9468024
vt 0.5057433 0.9539797
vt 0.5129334 0.9557617
vt 0.513117 0.9283922
vt 0.5129334 0.919194
vt 0.5057433 0.9209758
vt 0.5038873 0.9281533
vt 0.5386635 0.9137729
vt 0.5405195 0.9065955
vt 0.5312898 0.9063566
vt 0.5314734 0.9155548
vt 0.5222034 0.9164336
vt 0.5222034 0.9067388
vt 0.5222034 0.8972709
vt 0.5317032 0.8972709
vt 0.5414965 0.8972709
vt 0.513117 0.9063566
vt 0.5127036 0.8972709
vt 0.5029103 0.8972709
vt 0.5038873 0.9065955
vt 0.5057433 0.9137729
vt 0.5129334 0.9155548
vt 0.513117 0.8881853
vt 0.5222034 0.8878032
vt 0.5222034 0.8781083
vt 0.5129334 0.8789871
vt 0.5057433 0.880769
vt 0.5038873 0.8879464
vt 0.5312898 0.8881853
vt 0.5405195 0.8879464
vt 0.5386635 0.880769
vt 0.5314734 0.8789871
vt 0.5792687 0.9538867
vt 0.5810903 0.9465833
vt 0.5717448 0.9464487
vt 0.5719834 0.9557489
vt 0.5625856 0.9566627
vt 0.5625856 0.946866
vt 0.5625856 0.9373702
vt 0.5720682 0.9373388
vt 0.5817932 0.9372346
vt 0.5534264 0.9464487
vt 0.5531031 0.9373388
vt 0.5433781 0.9372346
vt 0.5440809 0.9465833
vt 0.5459026 0.9538867
vt 0.5531878 0.9557489
vt 0.5535585 0.9282987
vt 0.5625856 0.9279362
vt 0.5625856 0.9183152
vt 0.5534019 0.9191737
vt 0.5462757 0.9209119
vt 0.5444074 0.9280105
vt 0.5716127 0.9282986
vt 0.5807638 0.9280105
vt 0.5788954 0.9209119
vt 0.5717693 0.9191737
vt 0.6195654 0.9941158
vt 0.621387 0.9868124
vt 0.6120415 0.9866778
vt 0.6122801 0.995978
vt 0.6028823 0.9968917
vt 0.6028823 0.9870951
vt 0.6028823 0.9775993
vt 0.6123648 0.9775679
vt 0.6220897 0.9774637
vt 0.5937231 0.9866778
vt 0.5933997 0.9775678
vt 0.5836747 0.9774637
vt 0.5843775 0.9868124
vt 0.5861992 0.9941158
vt 0.5934844 0.995978
vt 0.5938551 0.9685277
vt 0.6028823 0.9681653
vt 0.6028823 0.9585443
vt 0.5936986 0.9594028
vt 0.5865724 0.9611409
vt 0.584704 0.9682395
vt 0.6119093 0.9685277
vt 0.6210605 0.9682395
vt 0.6191921 0.961141
vt 0.6120659 0.9594028
vt 0.5459025 0.9613202
vt 0.5440809 0.9686236
vt 0.5534264 0.9687582
vt 0.5531878 0.959458
vt 0.5625856 0.9585443
vt 0.5625856 0.9683409
vt 0.5625856 0.9778367
vt 0.5531031 0.9778681
vt 0.5433781 0.9779723
vt 0.5717448 0.9687582
vt 0.5720682 0.9778681
vt 0.5817932 0.9779723
vt 0.5810903 0.9686236
vt 0.5792687 0.9613202
vt 0.5719835 0.959458
vt 0.5716127 0.9869083
vt 0.5625856 0.9872707
vt 0.5625856 0.9968917
vt 0.5717694 0.9960332
vt 0.5788954 0.994295
vt 0.5807638 0.9871964
vt 0.5535585 0.9869083
vt 0.5444074 0.9871964
vt 0.5462757 0.994295
vt 0.5534019 0.9960332
vt 0.5054348 0.961298
vt 0.5036131 0.9686015
vt 0.5129586 0.9687359
vt 0.51272 0.9594357
vt 0.5221179 0.958522
vt 0.5221179 0.9683186
vt 0.5221179 0.9778146
vt 0.5126352 0.9778459
vt 0.5029103 0.9779501
vt 0.5312771 0.9687359
vt 0.5316004 0.9778459
vt 0.5413254 0.9779501
vt 0.5406226 0.9686015
vt 0.538801 0.961298
vt 0.5315156 0.9594357
vt 0.5311449 0.986886
vt 0.5221178 0.9872484
vt 0.5221177 0.9968696
vt 0.5313015 0.996011
vt 0.5384277 0.9942728
vt 0.5402961 0.9871743
vt 0.5130907 0.986886
vt 0.5039396 0.9871743
vt 0.5058079 0.9942728
vt 0.5129341 0.9960109
vn -0.5773504 -0.5773503 0.5773503
vn -0.3380857 -0.6654691 0.6654691
vn -0.3462383 -0.8719163 0.3462383
vn -0.6654691 -0.6654691 0.3380856
vn -0.7071066 -0.7071069 0
vn -0.3550304 -0.9348547 0
vn 0 -1 0
vn 0 -0.9348546 0.3550307
vn 0 -0.7071068 0.7071068
vn -0.3462381 -0.8719164 -0.3462383
vn 0 -0.9348547 -0.3550304
vn 0 -0.7071069 -0.7071066
vn -0.3380854 -0.6654692 -0.6654691
vn -0.5773501 -0.5773503 -0.5773504
vn -0.6654689 -0.6654692 -0.3380857
vn 0.3462385 -0.8719163 -0.3462381
vn 0.3550307 -0.9348546 0
vn 0.7071068 -0.7071068 0
vn 0.6654691 -0.6654691 -0.3380855
vn 0.5773503 -0.5773502 -0.5773502
vn 0.3380858 -0.6654691 -0.6654689
vn 0.3462384 -0.8719162 0.3462385
vn 0.3380856 -0.665469 0.6654691
vn 0.5773503 -0.57735 0.5773504
vn 0.6654691 -0.665469 0.3380858
vn -0.5773506 0.5773503 0.57735
vn -0.6654692 0.665469 0.3380853
vn -0.3462385 0.8719164 0.3462381
vn -0.3380857 0.6654692 0.6654688
vn 0 0.7071069 0.7071066
vn 0 0.9348547 0.3550304
vn 0 1 0
vn -0.3550308 0.9348546 0
vn -0.707107 0.7071066 0
vn 0.3462381 0.8719165 0.3462382
vn 0.3550304 0.9348547 0
vn 0.7071065 0.707107 0
vn 0.6654688 0.6654694 0.3380855
vn 0.57735 0.5773505 0.5773503
vn 0.3380853 0.6654693 0.6654689
vn 0.3462382 0.8719164 -0.3462383
vn 0 0.9348546 -0.3550307
vn 0 0.7071066 -0.7071069
vn 0.3380854 0.6654691 -0.6654691
vn 0.5773501 0.5773503 -0.5773503
vn 0.6654689 0.6654693 -0.3380855
vn -0.3462384 0.8719162 -0.3462385
vn -0.6654691 0.6654689 -0.3380857
vn -0.5773503 0.57735 -0.5773504
vn -0.3380855 0.665469 -0.6654692
vn -0.5773504 -0.5773503 0.5773503
vn -0.6654693 -0.3380855 0.6654689
vn -0.3462386 -0.3462383 0.8719162
vn -0.3380857 -0.6654691 0.6654691
vn 0 -0.7071068 0.7071068
vn 0 -0.3550305 0.9348547
vn 0 0 1
vn -0.3550309 0 0.9348546
vn -0.7071069 0 0.7071066
vn 0.3462383 -0.3462381 0.8719164
vn 0.3550304 2.684038E-07 0.9348547
vn 0.7071066 0 0.7071069
vn 0.665469 -0.3380854 0.6654692
vn 0.5773503 -0.57735 0.5773504
vn 0.3380856 -0.665469 0.6654691
vn 0.3462381 0.3462385 0.8719164
vn 0 0.3550307 0.9348546
vn 0 0.7071069 0.7071066
vn 0.3380853 0.6654693 0.6654689
vn 0.57735 0.5773505 0.5773503
vn 0.6654689 0.3380858 0.6654692
vn -0.3462385 0.3462383 0.8719162
vn -0.6654693 0.3380855 0.6654689
vn -0.5773506 0.5773503 0.57735
vn -0.3380857 0.6654692 0.6654688
vn 0.5773503 -0.57735 0.5773504
vn 0.665469 -0.3380854 0.6654692
vn 0.8719162 -0.3462383 0.3462386
vn 0.6654691 -0.665469 0.3380858
vn 0.7071068 -0.7071068 0
vn 0.9348547 -0.3550306 0
vn 1 0 0
vn 0.9348546 0 0.3550309
vn 0.7071066 0 0.7071069
vn 0.8719163 -0.3462383 -0.3462383
vn 0.9348547 0 -0.3550306
vn 0.7071068 0 -0.7071068
vn 0.6654691 -0.3380856 -0.6654691
vn 0.5773503 -0.5773502 -0.5773502
vn 0.6654691 -0.6654691 -0.3380855
vn 0.8719163 0.3462384 -0.3462383
vn 0.9348546 0.3550309 0
vn 0.7071065 0.707107 0
vn 0.6654689 0.6654693 -0.3380855
vn 0.5773501 0.5773503 -0.5773503
vn 0.6654691 0.3380855 -0.6654691
vn 0.8719162 0.3462385 0.3462384
vn 0.6654689 0.3380858 0.6654692
vn 0.57735 0.5773505 0.5773503
vn 0.6654688 0.6654694 0.3380855
vn 0.5773503 -0.5773502 -0.5773502
vn 0.6654691 -0.3380856 -0.6654691
vn 0.3462386 -0.3462386 -0.8719162
vn 0.3380858 -0.6654691 -0.6654689
vn 0 -0.7071069 -0.7071066
vn 0 -0.3550308 -0.9348546
vn 0 -2.774157E-07 -1
vn 0.3550308 0 -0.9348546
vn 0.7071068 0 -0.7071068
vn -0.3462382 -0.3462386 -0.8719162
vn -0.3550305 -3.436639E-07 -0.9348547
vn -0.7071066 -3.290907E-07 -0.7071069
vn -0.6654689 -0.3380857 -0.6654692
vn -0.5773501 -0.5773503 -0.5773504
vn -0.3380854 -0.6654692 -0.6654691
vn -0.3462383 0.3462381 -0.8719164
vn 0 0.3550305 -0.9348547
vn 0 0.7071066 -0.7071069
vn -0.3380855 0.665469 -0.6654692
vn -0.5773503 0.57735 -0.5773504
vn -0.665469 0.3380853 -0.6654692
vn 0.3462384 0.3462382 -0.8719163
vn 0.6654691 0.3380855 -0.6654691
vn 0.5773501 0.5773503 -0.5773503
vn 0.3380854 0.6654691 -0.6654691
vn -0.5773501 -0.5773503 -0.5773504
vn -0.6654689 -0.3380857 -0.6654692
vn -0.8719162 -0.3462385 -0.3462385
vn -0.6654689 -0.6654692 -0.3380857
vn -0.7071066 -0.7071069 0
vn -0.9348546 -0.3550308 0
vn -1 0 0
vn -0.9348546 0 -0.3550308
vn -0.7071066 -3.290907E-07 -0.7071069
vn -0.8719163 -0.3462384 0.3462383
vn -0.9348547 0 0.3550305
vn -0.7071069 0 0.7071066
vn -0.6654693 -0.3380855 0.6654689
vn -0.5773504 -0.5773503 0.5773503
vn -0.6654691 -0.6654691 0.3380856
vn -0.8719165 0.3462382 0.3462381
vn -0.9348547 0.3550304 0
vn -0.707107 0.7071066 0
vn -0.6654692 0.665469 0.3380853
vn -0.5773506 0.5773503 0.57735
vn -0.6654693 0.3380855 0.6654689
vn -0.8719164 0.3462381 -0.3462385
vn -0.665469 0.3380853 -0.6654692
vn -0.5773503 0.57735 -0.5773504
vn -0.6654691 0.6654689 -0.3380857
g ball_0
f 3/3/3 2/2/2 1/1/1
f 4/4/4 3/3/3 1/1/1
f 3/3/3 4/4/4 5/5/5
f 6/6/6 3/3/3 5/5/5
f 3/3/3 6/6/6 7/7/7
f 8/8/8 3/3/3 7/7/7
f 3/3/3 8/8/8 9/9/9
f 2/2/2 3/3/3 9/9/9
f 6/6/6 10/10/10 7/7/7
f 10/10/10 6/6/6 5/5/5
f 10/10/10 11/11/11 7/7/7
f 11/11/11 10/10/10 12/12/12
f 10/10/10 13/13/13 12/12/12
f 13/13/13 10/10/10 14/14/14
f 10/10/10 15/15/15 14/14/14
f 15/15/15 10/10/10 5/5/5
f 11/11/11 16/16/16 7/7/7
f 16/16/16 11/11/11 12/12/12
f 16/16/16 17/17/17 7/7/7
f 17/17/17 16/16/16 18/18/18
f 16/16/16 19/19/19 18/18/18
f 19/19/19 16/16/16 20/20/20
f 16/16/16 21/21/21 20/20/20
f 21/21/21 16/16/16 12/12/12
f 8/8/8 22/22/22 9/9/9
f 22/22/22 8/8/8 7/7/7
f 17/17/17 22/22/22 7/7/7
f 22/22/22 17/17/17 18/18/18
f 22/22/22 23/23/23 9/9/9
f 23/23/23 22/22/22 24/24/24
f 22/22/22 25/25/25 24/24/24
f 25/25/25 22/22/22 18/18/18
f 28/28/28 27/27/27 26/26/26
f 29/29/29 28/28/28 26/26/26
f 28/28/28 29/29/29 30/30/30
f 31/31/31 28/28/28 30/30/30
f 28/28/28 31/31/31 32/32/32
f 33/33/33 28/28/28 32/32/32
f 28/28/28 33/33/33 34/34/34
f 27/27/27 28/28/28 34/34/34
f 31/31/31 35/35/35 32/32/32
f 35/35/35 31/31/31 30/30/30
f 35/35/35 36/36/36 32/32/32
f 36/36/36 35/35/35 37/37/37
f 35/35/35 38/38/38 37/37/37
f 38/38/38 35/35/35 39/39/39
f 35/35/35 40/40/40 39/39/39
f 40/40/40 35/35/35 30/30/30
f 36/36/36 41/41/41 32/32/32
f 41/41/41 36/36/36 37/37/37
f 41/41/41 42/42/42 32/32/32
f 42/42/42 41/41/41 43/43/43
f 41/41/41 44/44/44 43/43/43
f 44/44/44 41/41/41 45/45/45
f 41/41/41 46/46/46 45/45/45
f 46/46/46 41/41/41 37/37/37
f 33/33/33 47/47/47 34/34/34
f 47/47/47 33/33/33 32/32/32
f 42/42/42 47/47/47 32/32/32
f 47/47/47 42/42/42 43/43/43
f 47/47/47 48/48/48 34/34/34
f 48/48/48 47/47/47 49/49/49
f 47/47/47 50/50/50 49/49/49
f 50/50/50 47/47/47 43/43/43
f 53/53/53 52/52/52 51/51/51
f 54/54/54 53/53/53 51/51/51
f 53/53/53 54/54/54 55/55/55
f 56/56/56 53/53/53 55/55/55
f 53/53/53 56/56/56 57/57/57
f 58/58/58 53/53/53 57/57/57
f 53/53/53 58/58/58 59/59/59
f 52/52/52 53/53/53 59/59/59
f 56/56/56 60/60/60 57/57/57
f 60/60/60 56/56/56 55/55/55
f 60/60/60 61/61/61 57/57/57
f 61/61/61 60/60/60 62/62/62
f 60/60/60 63/63/63 62/62/62
f 63/63/63 60/60/60 64/64/64
f 60/60/60 65/65/65 64/64/64
f 65/65/65 60/60/60 55/55/55
f 61/61/61 66/66/66 57/57/57
f 66/66/66 61/61/61 62/62/62
f 66/66/66 67/67/67 57/57/57
f 67/67/67 66/66/66 68/68/68
f 66/66/66 69/69/69 68/68/68
f 69/69/69 66/66/66 70/70/70
f 66/66/66 71/71/71 70/70/70
f 71/71/71 66/66/66 62/62/62
f 58/58/58 72/72/72 59/59/59
f 72/72/72 58/58/58 57/57/57
f 67/67/67 72/72/72 57/57/57
f 72/72/72 67/67/67 68/68/68
f 72/72/72 73/73/73 59/59/59
f 73/73/73 72/72/72 74/74/74
f 72/72/72 75/75/75 74/74/74
f 75/75/75 72/72/72 68/68/68
f 78/78/78 77/77/77 76/76/76
f 79/79/79 78/78/78 76/76/76
f 78/78/78 79/79/79 80/80/80
f 81/81/81 78/78/78 80/80/80
f 78/78/78 81/81/81 82/82/82
f 83/83/83 78/78/78 82/82/82
f 78/78/78 83/83/83 84/84/84
f 77/77/77 78/78/78 84/84/84
f 81/81/81 85/85/85 82/82/82
f 85/85/85 81/81/81 80/80/80
f 85/85/85 86/86/86 82/82/82
f 86/86/86 85/85/85 87/87/87
f 85/85/85 88/88/88 87/87/87
f 88/88/88 85/85/85 89/89/89
f 85/85/85 90/90/90 89/89/89
f 90/90/90 85/85/85 80/80/80
f 86/86/86 91/91/91 82/82/82
f 91/91/91 86/86/86 87/87/87
f 91/91/91 92/92/92 82/82/82
f 92/92/92 91/91/91 93/93/93
f 91/91/91 94/94/94 93/93/93
f 94/94/94 91/91/91 95/95/95
f 91/91/91 96/96/96 95/95/95
f 96/96/96 91/91/91 87/87/87
f 83/83/83 97/97/97 84/84/84
f 97/97/97 83/83/83 82/82/82
f 92/92/92 97/97/97 82/82/82
f 97/97/97 92/92/92 93/93/93
f 97/97/97 98/98/98 84/84/84
f 98/98/98 97/97/97 99/99/99
f 97/97/97 100/100/100 99/99/99
f 100/100/100 97/97/97 93/93/93
f 103/103/103 102/102/102 101/101/101
f 104/104/104 103/103/103 101/101/101
f 103/103/103 104/104/104 105/105/105
f 106/106/106 103/103/103 105/105/105
f 103/103/103 106/106/106 107/107/107
f 108/108/108 103/103/103 107/107/107
f 103/103/103 108/108/108 109/109/109
f 102/102/102 103/103/103 109/109/109
f 106/106/106 110/110/110 107/107/107
f 110/110/110 106/106/106 105/105/105
f 110/110/110 111/111/111 107/107/107
f 111/111/111 110/110/110 112/112/112
f 110/110/110 113/113/113 112/112/112
f 113/113/113 110/110/110 114/114/114
f 110/110/110 115/115/115 114/114/114
f 115/115/115 110/110/110 105/105/105
f 111/111/111 116/116/116 107/107/107
f 116/116/116 111/111/111 112/112/112
f 116/116/116 117/117/117 107/107/107
f 117/117/117 116/116/116 118/118/118
f 116/116/116 119/119/119 118/118/118
f 119/119/119 116/116/116 120/120/120
f 116/116/116 121/121/121 120/120/120
f 121/121/121 116/116/116 112/112/112
f 108/108/108 122/122/122 109/109/109
f 122/122/122 108/108/108 107/107/107
f 117/117/117 122/122/122 107/107/107
f 122/122/122 117/117/117 118/118/118
f 122/122/122 123/123/123 109/109/109
f 123/123/123 122/122/122 124/124/124
f 122/122/122 125/125/125 124/124/124
f 125/125/125 122/122/122 118/118/118
f 128/128/128 127/127/127 126/126/126
f 129/129/129 128/128/128 126/126/126
f 128/128/128 129/129/129 130/130/130
f 131/131/131 128/128/128 130/130/130
f 128/128/128 131/131/131 132/132/132
f 133/133/133 128/128/128 132/132/132
f 128/128/128 133/133/133 134/134/134
f 127/127/127 128/128/128 134/134/134
f 131/131/131 135/135/135 132/132/132
f 135/135/135 131/131/131 130/130/130
f 135/135/135 136/136/136 132/132/132
f 136/136/136 135/135/135 137/137/137
f 135/135/135 138/138/138 137/137/137
f 138/138/138 135/135/135 139/139/139
f 135/135/135 140/140/140 139/139/139
f 140/140/140 135/135/135 130/130/130
f 136/136/136 141/141/141 132/132/132
f 141/141/141 136/136/136 137/137/137
f 141/141/141 142/142/142 132/132/132
f 142/142/142 141/141/141 143/143/143
f 141/141/141 144/144/144 143/143/143
f 144/144/144 141/141/141 145/145/145
f 141/141/141 146/146/146 145/145/145
f 146/146/146 141/141/141 137/137/137
f 133/133/133 147/147/147 134/134/134
f 147/147/147 133/133/133 132/132/132
f 142/142/142 147/147/147 132/132/132
f 147/147/147 142/142/142 143/143/143
f 147/147/147 148/148/148 134/134/134
f 148/148/148 147/147/147 149/149/149
f 147/147/147 150/150/150 149/149/149
f 150/150/150 147/147/147 143/143/143
