g kiwi
v -0.247192 0.2687548 0.06273362
v -0.3145756 0.1483009 0.1651238
v -0.29063 0.1483009 0.04474098
v -0.2675585 0.2687548 0.1651238
v -0.1891924 0.2687548 -0.02406856
v -0.2224385 0.1483009 -0.05731462
v -0.1023903 0.2687548 -0.08206794
v -0.1203829 0.1483009 -0.125506
v -2.192304E-08 0.2687548 -0.1024346
v -2.756987E-08 0.1483009 -0.1494516
v 0.1023902 0.2687548 -0.08206794
v 0.1203828 0.148301 -0.125506
v 0.1891923 0.2687549 -0.02406852
v 0.2224384 0.148301 -0.05731462
v 0.2471918 0.2687549 0.06273368
v 0.2906299 0.148301 0.04474112
v 0.2675585 0.2687549 0.165124
v 0.3145755 0.148301 0.165124
v -0.3051093 -4.091121E-08 0.03874348
v -0.3302479 -2.787847E-08 0.1651239
v -1.717813E-08 0.3613616 -0.02407295
v -0.07240252 0.3613616 -0.009671174
v -0.1337823 0.3613616 0.03134152
v -0.1747951 0.3613616 0.09272134
v -0.1891968 0.3613616 0.1651238
v 0.3051092 5.122922E-08 0.03874355
v 0.2335205 2.615306E-08 -0.06839655
v 0.1263804 4.427285E-10 -0.1399853
v -2.623697E-09 -2.198758E-08 -0.1651239
v -0.1263805 -3.772309E-08 -0.1399853
v -0.2335205 -4.436817E-08 -0.06839662
v -0.07541305 0.4210279 0.1338867
v -0.08162648 0.4210278 0.1651239
v -0.05771863 0.4210278 0.1074053
v -0.03123714 0.4210279 0.08971086
v -5.556149E-08 0.4210278 0.08349741
v 0.03123699 0.4210279 0.08971085
v 0.07240237 0.3613617 -0.009671176
v 0.1337822 0.3613616 0.03134152
v 0.174795 0.3613617 0.09272139
v 0.1891967 0.3613617 0.165124
v 0.0577185 0.4210278 0.1074052
v 0.07541291 0.4210279 0.1338868
v 0.08162633 0.4210278 0.1651239
v -7.740343E-08 0.431594 0.1651239
v 0.3302478 7.185363E-08 0.165124
v 0.3145756 -0.1483009 0.1651241
v 0.2906299 -0.1483009 0.04474115
v 0.2675585 -0.2687548 0.1651241
v 0.2471919 -0.2687548 0.06273375
v 0.2224385 -0.1483009 -0.05731458
v 0.1891924 -0.2687548 -0.02406845
v 0.1203828 -0.148301 -0.125506
v 0.1023902 -0.2687548 -0.08206787
v 1.721577E-08 -0.148301 -0.1494516
v 5.923864E-08 -0.2687548 -0.1024345
v -0.1203828 -0.148301 -0.125506
v -0.1023902 -0.2687549 -0.08206788
v -0.2224385 -0.148301 -0.05731457
v -0.1891923 -0.2687549 -0.02406848
v -0.2906299 -0.148301 0.04474102
v -0.2471919 -0.2687549 0.06273369
v -0.3145755 -0.148301 0.1651239
v -0.2675584 -0.2687549 0.1651239
v -0.174795 -0.3613617 0.09272144
v -0.1891967 -0.3613616 0.1651239
v -0.1337822 -0.3613616 0.03134162
v -0.07240241 -0.3613617 -0.009671078
v 9.195002E-08 -0.3613616 -0.02407285
v 0.07240248 -0.3613617 -0.00967108
v 0.1337823 -0.3613616 0.03134162
v 0.1747951 -0.3613616 0.09272148
v 0.1891968 -0.3613616 0.1651241
v -0.03123702 -0.4210279 0.08971097
v -0.05771851 -0.4210278 0.1074054
v -0.07541292 -0.4210279 0.1338869
v -0.08162636 -0.4210278 0.165124
v 0.05771863 -0.4210278 0.1074053
v 0.03123712 -0.4210279 0.08971097
v 0.07541303 -0.4210278 0.1338869
v 0.08162646 -0.4210277 0.165124
v 5.321547E-08 -0.431594 0.165124
v 7.158534E-08 -0.4210278 0.08349752
v -0.3145755 -0.148301 0.1651239
v -0.1891967 -0.3613616 0.1651239
v -0.2675584 -0.2687549 0.1651239
v -0.3145756 0.1483009 0.1651238
v 0.1891968 -0.3613616 0.1651241
v 5.321547E-08 -0.431594 0.165124
v -0.08162636 -0.4210278 0.165124
v 0.08162646 -0.4210277 0.165124
v 0.3145755 0.148301 0.165124
v 0.3145756 -0.1483009 0.1651241
v 0.2675585 -0.2687548 0.1651241
v 0.3302478 7.185363E-08 0.165124
v -7.740343E-08 0.431594 0.1651239
v 0.1891967 0.3613617 0.165124
v 0.2675585 0.2687549 0.165124
v 0.08162633 0.4210278 0.1651239
v -0.1891968 0.3613616 0.1651238
v -0.08162648 0.4210278 0.1651239
v -0.2675585 0.2687548 0.1651238
v -0.3302479 -2.787847E-08 0.1651239
vt 0.1793731 0.9358051
vt 0.1912211 0.9297351
vt 0.1822312 0.9273285
vt 0.1863817 0.9396607
vt 0.1729726 0.9335128
vt 0.1745779 0.9259428
vt 0.1669828 0.9322883
vt 0.1677067 0.9252202
vt 0.1611955 0.9318921
vt 0.1611951 0.9249929
vt 0.1554039 0.9322527
vt 0.1546823 0.9252122
vt 0.1493985 0.9334437
vt 0.1478055 0.9259284
vt 0.1429617 0.935712
vt 0.1401347 0.9273122
vt 0.1358738 0.9395759
vt 0.1310963 0.929727
vt 0.1834555 0.9172096
vt 0.1935171 0.9172096
vt 0.1612115 0.9388707
vt 0.1658187 0.9393693
vt 0.1704208 0.9408351
vt 0.1749722 0.9434518
vt 0.1792884 0.9475413
vt 0.1389161 0.9172096
vt 0.1471537 0.9172096
vt 0.1543953 0.9172096
vt 0.1611968 0.9172096
vt 0.167997 0.9172096
vt 0.1752332 0.9172096
vt 0.1682492 0.9507564
vt 0.1696165 0.9533326
vt 0.1662516 0.9488263
vt 0.1638541 0.9476154
vt 0.1612493 0.9471529
vt 0.1586058 0.9474552
vt 0.1565891 0.9392824
vt 0.1519379 0.94067
vt 0.1472961 0.9432355
vt 0.1428471 0.9473434
vt 0.1560965 0.9485393
vt 0.1539294 0.9504136
vt 0.1523745 0.9530428
vt 0.1610621 0.9547079
vt 0.1288188 0.9172096
vt 0.1310963 0.9046921
vt 0.1401348 0.9071069
vt 0.1358739 0.8948432
vt 0.1429618 0.8987071
vt 0.1478055 0.9084907
vt 0.1493986 0.9009754
vt 0.1546823 0.9092069
vt 0.1554039 0.9021664
vt 0.1611951 0.9094263
vt 0.1611955 0.902527
vt 0.1677067 0.9091989
vt 0.1669828 0.9021308
vt 0.1745779 0.9084763
vt 0.1729726 0.9009064
vt 0.1822312 0.9070907
vt 0.179373 0.898614
vt 0.1912211 0.904684
vt 0.1863817 0.8947585
vt 0.1749722 0.8909674
vt 0.1792883 0.886878
vt 0.1704208 0.8935841
vt 0.1658187 0.8950499
vt 0.1612116 0.8955485
vt 0.1565891 0.8951368
vt 0.151938 0.8937492
vt 0.1472962 0.8911836
vt 0.1428472 0.8870757
vt 0.1638542 0.8868038
vt 0.1662516 0.885593
vt 0.1682492 0.8836629
vt 0.1696165 0.8810866
vt 0.1560966 0.8858799
vt 0.1586059 0.886964
vt 0.1539296 0.8840056
vt 0.1523746 0.8813763
vt 0.1610622 0.8797113
vt 0.1612493 0.8872663
vt 0.2448173 0.971646
vt 0.2339057 0.9901884
vt 0.2407254 0.9821289
vt 0.2448173 0.945833
vt 0.2009745 0.9901884
vt 0.2174401 0.9963006
vt 0.2245439 0.9953811
vt 0.2103362 0.9953811
vt 0.1900629 0.945833
vt 0.1900629 0.971646
vt 0.1941547 0.9821289
vt 0.188699 0.9587395
vt 0.2174401 0.9211783
vt 0.2009745 0.9272906
vt 0.1941547 0.9353501
vt 0.2103362 0.9220979
vt 0.2339057 0.9272906
vt 0.2245439 0.9220979
vt 0.2407254 0.93535
vt 0.2461812 0.9587395
vn -0.7985225 0.5029516 -0.330759
vn -0.954836 0.2285075 -0.189928
vn -0.898508 0.2327436 -0.3721744
vn -0.8518175 0.4956798 -0.1694357
vn -0.6111625 0.5029516 -0.611163
vn -0.6876881 0.2327439 -0.6876885
vn -0.330759 0.5029515 -0.7985226
vn -0.3721741 0.2327438 -0.8985081
vn 0 0.5029514 -0.8643147
vn 0 0.2327439 -0.9725381
vn 0.3307589 0.5029515 -0.7985226
vn 0.3721741 0.232744 -0.898508
vn 0.6111624 0.5029518 -0.6111628
vn 0.6876881 0.2327441 -0.6876884
vn 0.7985224 0.5029517 -0.330759
vn 0.898508 0.2327439 -0.3721741
vn 0.8518174 0.4956797 -0.1694369
vn 0.9548358 0.2285076 -0.1899285
vn -0.9238794 0 -0.3826836
vn -0.9807853 0 -0.1950901
vn 0 0.7619585 -0.6476257
vn -0.2478357 0.7619588 -0.5983279
vn -0.4579404 0.7619587 -0.4579406
vn -0.5983278 0.761959 -0.2478357
vn -0.6423181 0.7557141 -0.1277641
vn 0.9238796 0 -0.3826834
vn 0.7071069 0 -0.7071066
vn 0.3826835 0 -0.9238795
vn 0 0 -1
vn -0.3826834 0 -0.9238796
vn -0.7071067 0 -0.7071068
vn -0.3077601 0.9428854 -0.1274789
vn -0.3323891 0.9408222 -0.06611333
vn -0.2355503 0.9428851 -0.23555
vn -0.1274784 0.9428854 -0.3077602
vn -4.011633E-07 0.9428851 -0.3331181
vn 0.1274785 0.9428855 -0.30776
vn 0.2478357 0.7619587 -0.5983279
vn 0.45794 0.7619588 -0.4579408
vn 0.5983278 0.7619588 -0.2478356
vn 0.6423178 0.7557143 -0.1277645
vn 0.2355497 0.9428851 -0.2355503
vn 0.30776 0.9428855 -0.1274782
vn 0.3323892 0.9408222 -0.06611374
vn 0 0.9964435 -0.0842636
vn 0.9807853 0 -0.1950903
vn 0.9548359 -0.2285073 -0.1899284
vn 0.8985081 -0.2327438 -0.372174
vn 0.8518175 -0.4956794 -0.1694368
vn 0.7985225 -0.5029516 -0.3307589
vn 0.6876881 -0.2327441 -0.6876883
vn 0.6111625 -0.5029519 -0.6111627
vn 0.3721741 -0.2327441 -0.898508
vn 0.3307591 -0.5029516 -0.7985225
vn 0 -0.2327442 -0.972538
vn 0 -0.5029516 -0.8643146
vn -0.3721741 -0.2327442 -0.898508
vn -0.3307588 -0.5029519 -0.7985224
vn -0.6876881 -0.2327443 -0.6876883
vn -0.6111623 -0.5029519 -0.6111628
vn -0.8985078 -0.232744 -0.3721744
vn -0.7985224 -0.5029519 -0.3307588
vn -0.9548359 -0.2285078 -0.1899279
vn -0.8518174 -0.4956801 -0.1694355
vn -0.5983275 -0.7619592 -0.2478354
vn -0.6423178 -0.7557143 -0.1277639
vn -0.4579402 -0.7619589 -0.4579403
vn -0.2478355 -0.761959 -0.5983278
vn 0 -0.7619587 -0.6476256
vn 0.2478359 -0.7619588 -0.5983277
vn 0.4579403 -0.7619588 -0.4579405
vn 0.5983281 -0.7619588 -0.2478354
vn 0.642318 -0.7557142 -0.1277643
vn -0.127478 -0.9428856 -0.3077597
vn -0.2355498 -0.9428853 -0.2355496
vn -0.3077596 -0.9428856 -0.1274785
vn -0.3323887 -0.9408225 -0.06611303
vn 0.2355497 -0.9428852 -0.2355499
vn 0.1274788 -0.9428856 -0.3077596
vn 0.3077601 -0.9428855 -0.1274779
vn 0.3323893 -0.9408222 -0.06611346
vn 0 -0.9964436 -0.08426296
vn 0 -0.9428853 -0.3331177
vn -2.546339E-07 0 1
vn -3.352351E-07 0 1
vn -4.37905E-07 0 1
vn -3.159389E-07 0 1
vn -3.212637E-07 0 1
vn -3.32503E-07 0 1
vn -2.759938E-07 3.13784E-07 1
vn -2.759937E-07 0 1
vn -3.088145E-07 0 1
vn -2.546339E-07 0 1
vn -4.379046E-07 0 1
vn 0 0 1
vn -3.173918E-07 0 1
vn -3.688108E-07 0 1
vn -4.379046E-07 0 1
vn -2.759936E-07 3.137841E-07 1
vn -3.688109E-07 0 1
vn -2.759936E-07 0 1
vn -4.37905E-07 0 1
vn 0 0 1
g kiwi_0
f 3/3/3 2/2/2 1/1/1
f 4/4/4 1/1/1 2/2/2
f 1/1/1 5/5/5 3/3/3
f 6/6/6 3/3/3 5/5/5
f 5/5/5 7/7/7 6/6/6
f 8/8/8 6/6/6 7/7/7
f 7/7/7 9/9/9 8/8/8
f 10/10/10 8/8/8 9/9/9
f 9/9/9 11/11/11 10/10/10
f 12/12/12 10/10/10 11/11/11
f 11/11/11 13/13/13 12/12/12
f 14/14/14 12/12/12 13/13/13
f 13/13/13 15/15/15 14/14/14
f 16/16/16 14/14/14 15/15/15
f 15/15/15 17/17/17 16/16/16
f 18/18/18 16/16/16 17/17/17
f 3/3/3 6/6/6 19/19/19
f 19/19/19 20/20/20 3/3/3
f 2/2/2 3/3/3 20/20/20
f 9/9/9 7/7/7 21/21/21
f 22/22/22 21/21/21 7/7/7
f 7/7/7 5/5/5 22/22/22
f 23/23/23 22/22/22 5/5/5
f 5/5/5 1/1/1 23/23/23
f 24/24/24 23/23/23 1/1/1
f 1/1/1 4/4/4 24/24/24
f 25/25/25 24/24/24 4/4/4
f 16/16/16 18/18/18 26/26/26
f 26/26/26 27/27/27 16/16/16
f 14/14/14 16/16/16 27/27/27
f 27/27/27 28/28/28 14/14/14
f 12/12/12 14/14/14 28/28/28
f 28/28/28 29/29/29 12/12/12
f 10/10/10 12/12/12 29/29/29
f 29/29/29 30/30/30 10/10/10
f 8/8/8 10/10/10 30/30/30
f 30/30/30 31/31/31 8/8/8
f 6/6/6 8/8/8 31/31/31
f 31/31/31 19/19/19 6/6/6
f 24/24/24 25/25/25 32/32/32
f 33/33/33 32/32/32 25/25/25
f 32/32/32 34/34/34 24/24/24
f 23/23/23 24/24/24 34/34/34
f 34/34/34 35/35/35 23/23/23
f 22/22/22 23/23/23 35/35/35
f 35/35/35 36/36/36 22/22/22
f 21/21/21 22/22/22 36/36/36
f 36/36/36 37/37/37 21/21/21
f 38/38/38 21/21/21 37/37/37
f 21/21/21 38/38/38 9/9/9
f 11/11/11 9/9/9 38/38/38
f 38/38/38 39/39/39 11/11/11
f 13/13/13 11/11/11 39/39/39
f 39/39/39 40/40/40 13/13/13
f 15/15/15 13/13/13 40/40/40
f 40/40/40 41/41/41 15/15/15
f 17/17/17 15/15/15 41/41/41
f 37/37/37 42/42/42 38/38/38
f 39/39/39 38/38/38 42/42/42
f 42/42/42 43/43/43 39/39/39
f 40/40/40 39/39/39 43/43/43
f 43/43/43 44/44/44 40/40/40
f 41/41/41 40/40/40 44/44/44
f 45/45/45 37/37/37 36/36/36
f 45/45/45 42/42/42 37/37/37
f 45/45/45 43/43/43 42/42/42
f 45/45/45 44/44/44 43/43/43
f 45/45/45 36/36/36 35/35/35
f 45/45/45 35/35/35 34/34/34
f 45/45/45 34/34/34 32/32/32
f 45/45/45 32/32/32 33/33/33
f 46/46/46 26/26/26 18/18/18
f 46/46/46 47/47/47 26/26/26
f 48/48/48 26/26/26 47/47/47
f 47/47/47 49/49/49 48/48/48
f 50/50/50 48/48/48 49/49/49
f 48/48/48 50/50/50 51/51/51
f 52/52/52 51/51/51 50/50/50
f 51/51/51 52/52/52 53/53/53
f 54/54/54 53/53/53 52/52/52
f 53/53/53 54/54/54 55/55/55
f 56/56/56 55/55/55 54/54/54
f 55/55/55 56/56/56 57/57/57
f 58/58/58 57/57/57 56/56/56
f 57/57/57 58/58/58 59/59/59
f 60/60/60 59/59/59 58/58/58
f 59/59/59 60/60/60 61/61/61
f 62/62/62 61/61/61 60/60/60
f 61/61/61 62/62/62 63/63/63
f 64/64/64 63/63/63 62/62/62
f 62/62/62 65/65/65 64/64/64
f 66/66/66 64/64/64 65/65/65
f 63/63/63 20/20/20 61/61/61
f 19/19/19 61/61/61 20/20/20
f 61/61/61 19/19/19 59/59/59
f 65/65/65 62/62/62 67/67/67
f 60/60/60 67/67/67 62/62/62
f 31/31/31 59/59/59 19/19/19
f 59/59/59 31/31/31 57/57/57
f 67/67/67 60/60/60 68/68/68
f 58/58/58 68/68/68 60/60/60
f 30/30/30 57/57/57 31/31/31
f 68/68/68 58/58/58 69/69/69
f 56/56/56 69/69/69 58/58/58
f 69/69/69 56/56/56 70/70/70
f 54/54/54 70/70/70 56/56/56
f 70/70/70 54/54/54 71/71/71
f 52/52/52 71/71/71 54/54/54
f 71/71/71 52/52/52 72/72/72
f 50/50/50 72/72/72 52/52/52
f 72/72/72 50/50/50 73/73/73
f 49/49/49 73/73/73 50/50/50
f 68/68/68 74/74/74 67/67/67
f 75/75/75 67/67/67 74/74/74
f 67/67/67 75/75/75 65/65/65
f 76/76/76 65/65/65 75/75/75
f 65/65/65 76/76/76 66/66/66
f 77/77/77 66/66/66 76/76/76
f 71/71/71 78/78/78 70/70/70
f 79/79/79 70/70/70 78/78/78
f 72/72/72 80/80/80 71/71/71
f 78/78/78 71/71/71 80/80/80
f 73/73/73 81/81/81 72/72/72
f 80/80/80 72/72/72 81/81/81
f 76/76/76 82/82/82 77/77/77
f 75/75/75 82/82/82 76/76/76
f 74/74/74 82/82/82 75/75/75
f 78/78/78 82/82/82 79/79/79
f 80/80/80 82/82/82 78/78/78
f 81/81/81 82/82/82 80/80/80
f 83/83/83 82/82/82 74/74/74
f 79/79/79 82/82/82 83/83/83
f 74/74/74 68/68/68 83/83/83
f 69/69/69 83/83/83 68/68/68
f 83/83/83 69/69/69 79/79/79
f 70/70/70 79/79/79 69/69/69
f 29/29/29 55/55/55 30/30/30
f 57/57/57 30/30/30 55/55/55
f 55/55/55 29/29/29 53/53/53
f 28/28/28 53/53/53 29/29/29
f 53/53/53 28/28/28 51/51/51
f 27/27/27 51/51/51 28/28/28
f 51/51/51 27/27/27 48/48/48
f 26/26/26 48/48/48 27/27/27
f 86/86/86 85/85/85 84/84/84
f 85/85/85 87/87/87 84/84/84
f 88/88/88 87/87/87 85/85/85
f 89/89/89 88/88/88 85/85/85
f 90/90/90 89/89/89 85/85/85
f 91/91/91 88/88/88 89/89/89
f 92/92/92 87/87/87 88/88/88
f 93/93/93 92/92/92 88/88/88
f 94/94/94 93/93/93 88/88/88
f 95/95/95 92/92/92 93/93/93
f 96/96/96 87/87/87 92/92/92
f 97/97/97 96/96/96 92/92/92
f 98/98/98 97/97/97 92/92/92
f 99/99/99 96/96/96 97/97/97
f 100/100/100 87/87/87 96/96/96
f 101/101/101 100/100/100 96/96/96
f 102/102/102 87/87/87 100/100/100
f 84/84/84 87/87/87 103/103/103
