g orange
v -6.299522E-08 0.4306224 -5.74575E-08
v -0.06599955 0.396317 -0.159337
v -3.931244E-08 0.396317 -0.1724651
v -0.1219512 0.396317 -0.1219513
v -0.159337 0.396317 -0.0659996
v -0.1724651 0.396317 -7.893095E-08
v 0.06599929 0.396317 -0.159337
v 0.121951 0.396317 -0.1219514
v 0.1593368 0.396317 -0.06599967
v 0.172465 0.396317 -2.684796E-08
v -0.116324 0.3032243 -0.280831
v -1.317443E-08 0.3032243 -0.3039693
v -0.2149388 0.3032243 -0.2149388
v -0.280831 0.3032243 -0.1163241
v -0.3039693 0.3032243 -8.627485E-08
v 0.2808309 0.3032244 -0.1163242
v 0.3039692 0.3032244 5.521318E-09
v 0.2149385 0.3032244 -0.214939
v 0.1163237 0.3032244 -0.2808312
v -0.1519846 0.163762 -0.3669234
v 1.788117E-08 0.163762 -0.397155
v -0.280831 0.163762 -0.2808311
v -0.3669234 0.163762 -0.1519847
v -0.397155 0.163762 -8.177498E-08
v 0.3669233 0.1637621 -0.1519849
v 0.397155 0.1637621 3.81625E-08
v 0.2808308 0.1637621 -0.2808312
v 0.1519843 0.163762 -0.3669235
v -0.164507 -0.0007450123 -0.397155
v 4.623164E-08 -0.0007449918 -0.4298775
v -0.3039692 -0.0007450209 -0.3039693
v -0.397155 -0.0007450164 -0.1645071
v -0.4298775 -0.0007449994 -6.48105E-08
v 0.3971549 -0.0007448964 -0.1645073
v 0.4298775 -0.0007448696 6.500889E-08
v 0.303969 -0.0007449291 -0.3039696
v 0.1645066 -0.0007449625 -0.3971552
v -0.1519846 -0.165252 -0.3669234
v 6.756089E-08 -0.165252 -0.397155
v -0.2808309 -0.165252 -0.280831
v -0.3669233 -0.165252 -0.1519847
v -0.397155 -0.165252 -3.796411E-08
v 0.3669233 -0.1652519 -0.1519849
v 0.397155 -0.1652519 8.197336E-08
v 0.2808308 -0.165252 -0.2808312
v 0.1519843 -0.165252 -0.3669235
v -0.116324 -0.3047142 -0.280831
v 7.862172E-08 -0.3047142 -0.3039692
v -0.2149387 -0.3047143 -0.2149387
v -0.2808309 -0.3047142 -0.116324
v -0.3039692 -0.3047142 -5.322935E-09
v 0.280831 -0.3047142 -0.1163241
v 0.3039693 -0.3047141 8.647324E-08
v 0.2149386 -0.3047142 -0.2149389
v 0.1163238 -0.3047142 -0.2808311
v -0.06295404 -0.3979 -0.1519846
v 7.773025E-08 -0.3979 -0.164507
v -0.116324 -0.3979 -0.116324
v -0.1519846 -0.3979 -0.06295409
v -0.164507 -0.3979 2.814371E-08
v 0.1519847 -0.3978999 -0.06295416
v 0.1645071 -0.3978999 7.782345E-08
v 0.116324 -0.3978999 -0.1163241
v 0.06295402 -0.3978999 -0.1519847
v 6.502216E-08 -0.4306224 5.734084E-08
v -6.299522E-08 0.4306224 -5.74575E-08
v -9.139544E-08 0.396317 0.172465
v -0.0659996 0.396317 0.1593369
v -0.1219513 0.396317 0.1219511
v -0.159337 0.396317 0.06599944
v -0.1724651 0.396317 -7.893095E-08
v 0.06599925 0.396317 0.1593369
v 0.121951 0.396317 0.1219513
v 0.1593368 0.396317 0.06599961
v 0.172465 0.396317 -2.684796E-08
v -0.1163241 0.3032244 0.2808309
v -1.049706E-07 0.3032244 0.3039692
v -0.2149388 0.3032244 0.2149387
v -0.2808311 0.3032244 0.1163239
v -0.3039693 0.3032243 -8.627485E-08
v 0.2808308 0.3032244 0.1163242
v 0.3039692 0.3032244 5.521318E-09
v 0.2149385 0.3032244 0.214939
v 0.1163236 0.3032244 0.2808311
v -0.1519848 0.1637621 0.3669233
v -1.020563E-07 0.1637621 0.397155
v -0.2808311 0.1637621 0.2808309
v -0.3669234 0.163762 0.1519846
v -0.397155 0.163762 -8.177498E-08
v 0.3669232 0.1637621 0.151985
v 0.397155 0.1637621 3.81625E-08
v 0.2808307 0.1637622 0.2808313
v 0.1519841 0.1637621 0.3669235
v -0.1645071 -0.0007449064 0.397155
v -8.358776E-08 -0.0007448773 0.4298775
v -0.3039693 -0.00074494 0.3039692
v -0.397155 -0.0007449726 0.164507
v -0.4298775 -0.0007449994 -6.48105E-08
v 0.3971549 -0.0007448526 0.1645074
v 0.4298775 -0.0007448696 6.500889E-08
v 0.3039689 -0.0007448481 0.3039697
v 0.1645065 -0.0007448568 0.3971552
v -0.1519847 -0.1652519 0.3669234
v -5.23766E-08 -0.1652519 0.397155
v -0.280831 -0.165252 0.280831
v -0.3669234 -0.165252 0.1519846
v -0.397155 -0.165252 -3.796411E-08
v 0.3669233 -0.1652519 0.151985
v 0.397155 -0.1652519 8.197336E-08
v 0.2808307 -0.1652519 0.2808314
v 0.1519842 -0.1652519 0.3669236
v -0.116324 -0.3047142 0.280831
v -1.317445E-08 -0.3047141 0.3039693
v -0.2149387 -0.3047142 0.2149387
v -0.280831 -0.3047142 0.116324
v -0.3039692 -0.3047142 -5.322935E-09
v 0.2808309 -0.3047141 0.1163243
v 0.3039693 -0.3047141 8.647324E-08
v 0.2149386 -0.3047141 0.214939
v 0.1163237 -0.3047141 0.2808312
v -0.06295409 -0.3978999 0.1519847
v 2.805051E-08 -0.3978999 0.1645071
v -0.116324 -0.3978999 0.1163241
v -0.1519846 -0.3979 0.06295415
v -0.164507 -0.3979 2.814371E-08
v 0.1519847 -0.3978999 0.06295431
v 0.1645071 -0.3978999 7.782345E-08
v 0.116324 -0.3978999 0.1163242
v 0.06295398 -0.3978999 0.1519848
v 6.502216E-08 -0.4306224 5.734084E-08
v 0.116324 -0.3978999 0.1163242
vt 0.8121367 0.6204811
vt 0.8191423 0.6016406
vt 0.8125732 0.6006142
vt 0.8254107 0.6044166
vt 0.8310102 0.6090848
vt 0.8353069 0.6157848
vt 0.8059343 0.601294
vt 0.7994542 0.6037729
vt 0.7935046 0.6082654
vt 0.7887696 0.6150151
vt 0.8220382 0.5870649
vt 0.8125204 0.5862401
vt 0.8318689 0.589535
vt 0.8422686 0.5942082
vt 0.8532392 0.6021987
vt 0.7825624 0.5937288
vt 0.7713479 0.6017256
vt 0.7930962 0.5891924
vt 0.8029864 0.5868921
vt 0.8234873 0.5743617
vt 0.8124937 0.5739255
vt 0.8352478 0.575743
vt 0.8487061 0.5785462
vt 0.8651024 0.5839695
vt 0.7762702 0.5783948
vt 0.7597812 0.5838134
vt 0.7897425 0.5756354
vt 0.8015016 0.5743066
vt 0.8239473 0.5625079
vt 0.8125 0.5624999
vt 0.836339 0.5625111
vt 0.8509853 0.5625062
vt 0.870321 0.5624999
vt 0.7740147 0.5624936
vt 0.754679 0.5624999
vt 0.788661 0.5624887
vt 0.8010527 0.562492
vt 0.8234984 0.5506932
vt 0.8125062 0.5510744
vt 0.8352574 0.5493644
vt 0.8487298 0.546605
vt 0.8652186 0.5411863
vt 0.7762939 0.5464537
vt 0.7598976 0.5410303
vt 0.7897522 0.5492569
vt 0.8015127 0.5506382
vt 0.8220135 0.5381078
vt 0.8124795 0.5387598
vt 0.8319038 0.5358074
vt 0.8424375 0.5312711
vt 0.853652 0.5232742
vt 0.7827315 0.5307916
vt 0.7717609 0.5228013
vt 0.7931312 0.5354649
vt 0.8029619 0.537935
vt 0.8190657 0.5237058
vt 0.8124268 0.5243857
vt 0.8255457 0.521227
vt 0.8314953 0.5167345
vt 0.8362303 0.5099847
vt 0.7939898 0.5159151
vt 0.7896932 0.5092152
vt 0.7995893 0.5205834
vt 0.8058577 0.5233594
vt 0.8128632 0.5045188
vt 0.8121367 0.6204811
vt 0.8125732 0.6006142
vt 0.8191423 0.6016406
vt 0.8254107 0.6044166
vt 0.8310102 0.6090848
vt 0.8353069 0.6157848
vt 0.8059343 0.601294
vt 0.7994542 0.6037729
vt 0.7935046 0.6082654
vt 0.7887696 0.6150151
vt 0.8220382 0.5870649
vt 0.8125204 0.5862401
vt 0.8318689 0.589535
vt 0.8422686 0.5942082
vt 0.8532392 0.6021987
vt 0.7825624 0.5937288
vt 0.7713479 0.6017256
vt 0.7930962 0.5891924
vt 0.8029864 0.5868921
vt 0.8234873 0.5743617
vt 0.8124937 0.5739255
vt 0.8352478 0.575743
vt 0.8487061 0.5785462
vt 0.8651024 0.5839695
vt 0.7762702 0.5783948
vt 0.7597812 0.5838134
vt 0.7897425 0.5756354
vt 0.8015016 0.5743066
vt 0.8239473 0.5625079
vt 0.8125 0.5624999
vt 0.836339 0.5625111
vt 0.8509853 0.5625062
vt 0.870321 0.5624999
vt 0.7740147 0.5624936
vt 0.754679 0.5624999
vt 0.788661 0.5624887
vt 0.8010527 0.562492
vt 0.8234984 0.5506932
vt 0.8125062 0.5510744
vt 0.8352574 0.5493644
vt 0.8487298 0.546605
vt 0.8652186 0.5411863
vt 0.7762939 0.5464537
vt 0.7598976 0.5410303
vt 0.7897522 0.5492569
vt 0.8015127 0.5506382
vt 0.8220135 0.5381078
vt 0.8124795 0.5387598
vt 0.8319038 0.5358074
vt 0.8424375 0.5312711
vt 0.853652 0.5232742
vt 0.7827315 0.5307916
vt 0.7717609 0.5228013
vt 0.7931312 0.5354649
vt 0.8029619 0.537935
vt 0.8190657 0.5237058
vt 0.8124268 0.5243857
vt 0.8255457 0.521227
vt 0.8314953 0.5167345
vt 0.8362303 0.5099847
vt 0.7939898 0.5159151
vt 0.7896932 0.5092152
vt 0.7995893 0.5205834
vt 0.8058577 0.5233594
vt 0.8128632 0.5045188
vt 0.7995893 0.5205834
vn 0 1 0
vn -0.159428 0.9090873 -0.3848934
vn 0 0.9090874 -0.4166055
vn -0.2945846 0.9090873 -0.2945847
vn -0.3848934 0.9090873 -0.1594281
vn -0.4166055 0.9090874 0
vn 0.1594275 0.9090874 -0.3848934
vn 0.2945842 0.9090874 -0.2945849
vn 0.384893 0.9090875 -0.1594283
vn 0.4166053 0.9090875 0
vn -0.2783077 0.6863695 -0.6718941
vn 0 0.6863695 -0.727253
vn -0.5142455 0.6863694 -0.5142457
vn -0.6718941 0.6863695 -0.2783078
vn -0.7272529 0.6863695 0
vn 0.6718939 0.6863697 -0.278308
vn 0.7272528 0.6863697 0
vn 0.514245 0.6863695 -0.514246
vn 0.2783071 0.6863695 -0.6718944
vn -0.354855 0.3743668 -0.8566957
vn 0 0.3743668 -0.9272807
vn -0.6556864 0.3743668 -0.6556866
vn -0.8566955 0.3743668 -0.3548552
vn -0.9272807 0.3743668 0
vn 0.8566954 0.3743671 -0.3548554
vn 0.9272805 0.3743672 0
vn 0.6556858 0.374367 -0.655687
vn 0.3548542 0.3743669 -0.8566959
vn -0.3826833 0 -0.9238796
vn 0 0 -1
vn -0.7071066 0 -0.7071069
vn -0.9238794 0 -0.3826837
vn -1 0 0
vn 0.9238794 0 -0.3826838
vn 1 0 0
vn 0.7071062 0 -0.7071073
vn 0.3826827 0 -0.9238799
vn -0.3548548 -0.3743672 -0.8566955
vn 0 -0.3743672 -0.9272805
vn -0.6556862 -0.3743673 -0.6556864
vn -0.8566954 -0.3743673 -0.3548551
vn -0.9272805 -0.3743672 0
vn 0.8566955 -0.3743669 -0.3548552
vn 0.9272807 -0.3743668 0
vn 0.655686 -0.3743671 -0.6556869
vn 0.3548544 -0.3743672 -0.8566957
vn -0.2750949 -0.6951568 -0.6641383
vn 0 -0.6951568 -0.7188581
vn -0.5083094 -0.6951568 -0.5083095
vn -0.6641382 -0.6951568 -0.2750952
vn -0.7188581 -0.6951569 0
vn 0.6641384 -0.6951567 -0.2750953
vn 0.7188583 -0.6951566 0
vn 0.5083092 -0.6951567 -0.5083099
vn 0.2750947 -0.6951568 -0.6641385
vn -0.1542567 -0.9151592 -0.3724089
vn 0 -0.9151592 -0.4030925
vn -0.2850294 -0.9151593 -0.2850294
vn -0.3724089 -0.9151592 -0.1542569
vn -0.4030926 -0.9151592 0
vn 0.3724091 -0.9151592 -0.1542569
vn 0.4030929 -0.9151591 0
vn 0.2850295 -0.9151592 -0.2850296
vn 0.1542567 -0.9151592 -0.372409
vn 0 -1 0
vn 0 1 0
vn -3.403548E-07 0.9090875 0.4166052
vn -0.1594281 0.9090874 0.3848931
vn -0.2945847 0.9090874 0.2945844
vn -0.3848934 0.9090874 0.1594278
vn -0.4166055 0.9090874 0
vn 0.1594274 0.9090875 0.3848932
vn 0.2945841 0.9090875 0.2945847
vn 0.384893 0.9090875 0.1594281
vn 0.4166053 0.9090875 0
vn -0.2783079 0.6863697 0.671894
vn -4.561969E-07 0.6863698 0.7272528
vn -0.5142456 0.6863695 0.5142453
vn -0.6718941 0.6863695 0.2783075
vn -0.7272529 0.6863695 0
vn 0.6718938 0.6863697 0.278308
vn 0.7272528 0.6863697 0
vn 0.5142449 0.6863697 0.514246
vn 0.2783069 0.6863697 0.6718943
vn -0.3548552 0.3743671 0.8566954
vn -4.479333E-07 0.3743671 0.9272806
vn -0.6556866 0.374367 0.6556863
vn -0.8566957 0.3743669 0.3548548
vn -0.9272807 0.3743668 0
vn 0.8566952 0.3743672 0.3548556
vn 0.9272805 0.3743672 0
vn 0.6556857 0.3743671 0.6556872
vn 0.354854 0.3743671 0.8566959
vn -0.3826837 0 0.9238794
vn -4.388268E-07 0 1
vn -0.7071069 0 0.7071066
vn -0.9238796 0 0.3826834
vn -1 0 0
vn 0.9238792 0 0.3826841
vn 1 0 0
vn 0.7071059 0 0.7071076
vn 0.3826824 0 0.9238799
vn -0.354855 -0.374367 0.8566955
vn -3.650444E-07 -0.374367 0.9272807
vn -0.6556864 -0.3743671 0.6556863
vn -0.8566955 -0.3743672 0.3548549
vn -0.9272805 -0.3743672 0
vn 0.8566954 -0.3743668 0.3548556
vn 0.9272807 -0.3743668 0
vn 0.6556857 -0.3743668 0.6556872
vn 0.3548542 -0.3743669 0.856696
vn -0.2750952 -0.6951567 0.6641385
vn 0 -0.6951566 0.7188583
vn -0.5083095 -0.6951567 0.5083095
vn -0.6641383 -0.6951568 0.2750952
vn -0.7188581 -0.6951569 0
vn 0.6641382 -0.6951566 0.2750957
vn 0.7188583 -0.6951566 0
vn 0.5083091 -0.6951566 0.5083102
vn 0.2750945 -0.6951566 0.6641387
vn -0.1542569 -0.9151592 0.3724092
vn 0 -0.9151592 0.4030927
vn -0.2850295 -0.9151592 0.2850296
vn -0.3724089 -0.9151592 0.154257
vn -0.4030926 -0.9151592 0
vn 0.3724091 -0.9151591 0.1542573
vn 0.4030929 -0.9151591 0
vn 0.2850294 -0.9151591 0.28503
vn 0.1542566 -0.9151591 0.3724093
vn 0 -1 0
vn 0.2850294 -0.9151591 0.28503
g orange_0
f 3/3/3 2/2/2 1/1/1
f 2/2/2 4/4/4 1/1/1
f 4/4/4 5/5/5 1/1/1
f 5/5/5 6/6/6 1/1/1
f 7/7/7 3/3/3 1/1/1
f 8/8/8 7/7/7 1/1/1
f 9/9/9 8/8/8 1/1/1
f 10/10/10 9/9/9 1/1/1
f 2/2/2 3/3/3 11/11/11
f 12/12/12 11/11/11 3/3/3
f 3/3/3 7/7/7 12/12/12
f 4/4/4 2/2/2 13/13/13
f 11/11/11 13/13/13 2/2/2
f 5/5/5 4/4/4 14/14/14
f 13/13/13 14/14/14 4/4/4
f 6/6/6 5/5/5 15/15/15
f 14/14/14 15/15/15 5/5/5
f 9/9/9 10/10/10 16/16/16
f 17/17/17 16/16/16 10/10/10
f 8/8/8 9/9/9 18/18/18
f 16/16/16 18/18/18 9/9/9
f 7/7/7 8/8/8 19/19/19
f 18/18/18 19/19/19 8/8/8
f 19/19/19 12/12/12 7/7/7
f 11/11/11 12/12/12 20/20/20
f 21/21/21 20/20/20 12/12/12
f 12/12/12 19/19/19 21/21/21
f 13/13/13 11/11/11 22/22/22
f 20/20/20 22/22/22 11/11/11
f 14/14/14 13/13/13 23/23/23
f 22/22/22 23/23/23 13/13/13
f 15/15/15 14/14/14 24/24/24
f 23/23/23 24/24/24 14/14/14
f 16/16/16 17/17/17 25/25/25
f 26/26/26 25/25/25 17/17/17
f 18/18/18 16/16/16 27/27/27
f 25/25/25 27/27/27 16/16/16
f 19/19/19 18/18/18 28/28/28
f 27/27/27 28/28/28 18/18/18
f 28/28/28 21/21/21 19/19/19
f 20/20/20 21/21/21 29/29/29
f 30/30/30 29/29/29 21/21/21
f 21/21/21 28/28/28 30/30/30
f 22/22/22 20/20/20 31/31/31
f 29/29/29 31/31/31 20/20/20
f 23/23/23 22/22/22 32/32/32
f 31/31/31 32/32/32 22/22/22
f 24/24/24 23/23/23 33/33/33
f 32/32/32 33/33/33 23/23/23
f 25/25/25 26/26/26 34/34/34
f 35/35/35 34/34/34 26/26/26
f 27/27/27 25/25/25 36/36/36
f 34/34/34 36/36/36 25/25/25
f 28/28/28 27/27/27 37/37/37
f 36/36/36 37/37/37 27/27/27
f 37/37/37 30/30/30 28/28/28
f 29/29/29 30/30/30 38/38/38
f 39/39/39 38/38/38 30/30/30
f 30/30/30 37/37/37 39/39/39
f 31/31/31 29/29/29 40/40/40
f 38/38/38 40/40/40 29/29/29
f 32/32/32 31/31/31 41/41/41
f 40/40/40 41/41/41 31/31/31
f 33/33/33 32/32/32 42/42/42
f 41/41/41 42/42/42 32/32/32
f 34/34/34 35/35/35 43/43/43
f 44/44/44 43/43/43 35/35/35
f 36/36/36 34/34/34 45/45/45
f 43/43/43 45/45/45 34/34/34
f 37/37/37 36/36/36 46/46/46
f 45/45/45 46/46/46 36/36/36
f 46/46/46 39/39/39 37/37/37
f 38/38/38 39/39/39 47/47/47
f 48/48/48 47/47/47 39/39/39
f 39/39/39 46/46/46 48/48/48
f 40/40/40 38/38/38 49/49/49
f 47/47/47 49/49/49 38/38/38
f 41/41/41 40/40/40 50/50/50
f 49/49/49 50/50/50 40/40/40
f 42/42/42 41/41/41 51/51/51
f 50/50/50 51/51/51 41/41/41
f 43/43/43 44/44/44 52/52/52
f 53/53/53 52/52/52 44/44/44
f 45/45/45 43/43/43 54/54/54
f 52/52/52 54/54/54 43/43/43
f 46/46/46 45/45/45 55/55/55
f 54/54/54 55/55/55 45/45/45
f 55/55/55 48/48/48 46/46/46
f 47/47/47 48/48/48 56/56/56
f 57/57/57 56/56/56 48/48/48
f 48/48/48 55/55/55 57/57/57
f 49/49/49 47/47/47 58/58/58
f 56/56/56 58/58/58 47/47/47
f 50/50/50 49/49/49 59/59/59
f 58/58/58 59/59/59 49/49/49
f 51/51/51 50/50/50 60/60/60
f 59/59/59 60/60/60 50/50/50
f 52/52/52 53/53/53 61/61/61
f 62/62/62 61/61/61 53/53/53
f 54/54/54 52/52/52 63/63/63
f 61/61/61 63/63/63 52/52/52
f 55/55/55 54/54/54 64/64/64
f 63/63/63 64/64/64 54/54/54
f 64/64/64 57/57/57 55/55/55
f 56/56/56 57/57/57 65/65/65
f 58/58/58 56/56/56 65/65/65
f 59/59/59 58/58/58 65/65/65
f 60/60/60 59/59/59 65/65/65
f 61/61/61 62/62/62 65/65/65
f 63/63/63 61/61/61 65/65/65
f 64/64/64 63/63/63 65/65/65
f 57/57/57 64/64/64 65/65/65
f 68/68/68 67/67/67 66/66/66
f 69/69/69 68/68/68 66/66/66
f 70/70/70 69/69/69 66/66/66
f 71/71/71 70/70/70 66/66/66
f 67/67/67 72/72/72 66/66/66
f 72/72/72 73/73/73 66/66/66
f 73/73/73 74/74/74 66/66/66
f 74/74/74 75/75/75 66/66/66
f 68/68/68 76/76/76 67/67/67
f 77/77/77 67/67/67 76/76/76
f 67/67/67 77/77/77 72/72/72
f 76/76/76 68/68/68 78/78/78
f 69/69/69 78/78/78 68/68/68
f 78/78/78 69/69/69 79/79/79
f 70/70/70 79/79/79 69/69/69
f 79/79/79 70/70/70 80/80/80
f 71/71/71 80/80/80 70/70/70
f 74/74/74 81/81/81 75/75/75
f 82/82/82 75/75/75 81/81/81
f 81/81/81 74/74/74 83/83/83
f 73/73/73 83/83/83 74/74/74
f 83/83/83 73/73/73 84/84/84
f 72/72/72 84/84/84 73/73/73
f 84/84/84 72/72/72 77/77/77
f 76/76/76 85/85/85 77/77/77
f 86/86/86 77/77/77 85/85/85
f 77/77/77 86/86/86 84/84/84
f 85/85/85 76/76/76 87/87/87
f 78/78/78 87/87/87 76/76/76
f 87/87/87 78/78/78 88/88/88
f 79/79/79 88/88/88 78/78/78
f 88/88/88 79/79/79 89/89/89
f 80/80/80 89/89/89 79/79/79
f 81/81/81 90/90/90 82/82/82
f 91/91/91 82/82/82 90/90/90
f 90/90/90 81/81/81 92/92/92
f 83/83/83 92/92/92 81/81/81
f 92/92/92 83/83/83 93/93/93
f 84/84/84 93/93/93 83/83/83
f 93/93/93 84/84/84 86/86/86
f 85/85/85 94/94/94 86/86/86
f 95/95/95 86/86/86 94/94/94
f 86/86/86 95/95/95 93/93/93
f 94/94/94 85/85/85 96/96/96
f 87/87/87 96/96/96 85/85/85
f 96/96/96 87/87/87 97/97/97
f 88/88/88 97/97/97 87/87/87
f 97/97/97 88/88/88 98/98/98
f 89/89/89 98/98/98 88/88/88
f 90/90/90 99/99/99 91/91/91
f 100/100/100 91/91/91 99/99/99
f 99/99/99 90/90/90 101/101/101
f 92/92/92 101/101/101 90/90/90
f 101/101/101 92/92/92 102/102/102
f 93/93/93 102/102/102 92/92/92
f 102/102/102 93/93/93 95/95/95
f 94/94/94 103/103/103 95/95/95
f 104/104/104 95/95/95 103/103/103
f 95/95/95 104/104/104 102/102/102
f 103/103/103 94/94/94 105/105/105
f 96/96/96 105/105/105 94/94/94
f 105/105/105 96/96/96 106/106/106
f 97/97/97 106/106/106 96/96/96
f 106/106/106 97/97/97 107/107/107
f 98/98/98 107/107/107 97/97/97
f 99/99/99 108/108/108 100/100/100
f 109/109/109 100/100/100 108/108/108
f 108/108/108 99/99/99 110/110/110
f 101/101/101 110/110/110 99/99/99
f 110/110/110 101/101/101 111/111/111
f 102/102/102 111/111/111 101/101/101
f 111/111/111 102/102/102 104/104/104
f 103/103/103 112/112/112 104/104/104
f 113/113/113 104/104/104 112/112/112
f 104/104/104 113/113/113 111/111/111
f 112/112/112 103/103/103 114/114/114
f 105/105/105 114/114/114 103/103/103
f 114/114/114 105/105/105 115/115/115
f 106/106/106 115/115/115 105/105/105
f 115/115/115 106/106/106 116/116/116
f 107/107/107 116/116/116 106/106/106
f 108/108/108 117/117/117 109/109/109
f 118/118/118 109/109/109 117/117/117
f 117/117/117 108/108/108 119/119/119
f 110/110/110 119/119/119 108/108/108
f 119/119/119 110/110/110 120/120/120
f 111/111/111 120/120/120 110/110/110
f 120/120/120 111/111/111 113/113/113
f 112/112/112 121/121/121 113/113/113
f 122/122/122 113/113/113 121/121/121
f 113/113/113 122/122/122 120/120/120
f 121/121/121 112/112/112 123/123/123
f 114/114/114 123/123/123 112/112/112
f 123/123/123 114/114/114 124/124/124
f 115/115/115 124/124/124 114/114/114
f 124/124/124 115/115/115 125/125/125
f 116/116/116 125/125/125 115/115/115
f 117/117/117 126/126/126 118/118/118
f 127/127/127 118/118/118 126/126/126
f 126/126/126 117/117/117 128/128/128
f 119/119/119 128/128/128 117/117/117
f 128/128/128 119/119/119 129/129/129
f 120/120/120 129/129/129 119/119/119
f 129/129/129 120/120/120 122/122/122
f 122/122/122 121/121/121 130/130/130
f 121/121/121 123/123/123 130/130/130
f 123/123/123 124/124/124 130/130/130
f 124/124/124 125/125/125 130/130/130
f 127/127/127 126/126/126 130/130/130
f 129/129/129 122/122/122 130/130/130
f 126/126/126 131/131/131 130/130/130
f 131/131/131 129/129/129 130/130/130
