g star
v -1.601053E-07 0.5790583 -4.89106E-08
v -2.805877E-08 -0.0611327 0.2469576
v -0.1099133 0.0901498 0.1321952
v -0.608858 0.136697 -1.811372E-07
v -0.1661842 0.1676 -4.628952E-08
v -0.608858 0.136697 -1.811372E-07
v -2.805877E-08 -0.0611327 0.2469576
v -0.1778433 -0.1189176 0.1321952
v -0.3762947 -0.5790584 -1.282312E-08
v -0.2688915 -0.148501 -3.643965E-08
v -0.3762947 -0.5790584 -1.282312E-08
v -2.805877E-08 -0.0611327 0.2469576
v 6.595204E-08 -0.2481282 0.1321953
v 0.3762952 -0.5790581 2.234272E-07
v 1.48815E-07 -0.3438621 7.398374E-08
v 0.3762952 -0.5790581 2.234272E-07
v -2.805877E-08 -0.0611327 0.2469576
v 0.1778434 -0.1189175 0.1321953
v 0.6088581 0.1366975 2.011239E-07
v 0.2688916 -0.1485008 1.323793E-07
v 0.6088581 0.1366975 2.011239E-07
v -2.805877E-08 -0.0611327 0.2469576
v 0.1099131 0.09014989 0.1321953
v -1.601053E-07 0.5790583 -4.89106E-08
v 0.166184 0.1676002 5.804631E-08
v -1.601053E-07 0.5790583 -4.89106E-08
v -0.1099132 0.09014977 -0.1321952
v 1.434136E-07 -0.06113276 -0.2469575
v -0.608858 0.136697 -1.811372E-07
v -0.1661842 0.1676 -4.628952E-08
v -0.608858 0.136697 -1.811372E-07
v -0.1778432 -0.1189176 -0.1321952
v 1.434136E-07 -0.06113276 -0.2469575
v -0.3762947 -0.5790584 -1.282312E-08
v -0.2688915 -0.148501 -3.643965E-08
v -0.3762947 -0.5790584 -1.282312E-08
v 1.543206E-07 -0.2481282 -0.1321952
v 1.434136E-07 -0.06113276 -0.2469575
v 0.3762952 -0.5790581 2.234272E-07
v 1.48815E-07 -0.3438621 7.398374E-08
v 0.3762952 -0.5790581 2.234272E-07
v 0.1778434 -0.1189175 -0.1321951
v 1.434136E-07 -0.06113276 -0.2469575
v 0.5070859 0.1036297 -0.07682654
v 0.2688916 -0.1485008 1.323793E-07
v 0.6088581 0.1366975 2.011239E-07
v 0.5070859 0.1036297 -0.07682654
v 0.1099132 0.09014985 -0.1321952
v 1.434136E-07 -0.06113276 -0.2469575
v -1.601053E-07 0.5790583 -4.89106E-08
v 0.166184 0.1676002 5.804631E-08
v 0.6088581 0.1366975 2.011239E-07
vt 0.6874813 0.1080974
vt 0.6874996 0.05761135
vt 0.6753924 0.07393268
vt 0.626544 0.07579295
vt 0.6680598 0.08370034
vt 0.626544 0.07579295
vt 0.6874996 0.05761135
vt 0.6684142 0.05116925
vt 0.658875 0.01752532
vt 0.6537369 0.04577894
vt 0.658875 0.01752532
vt 0.6874996 0.05761135
vt 0.6874912 0.03786985
vt 0.7224222 0.008434035
vt 0.6875458 0.02264047
vt 0.7224222 0.008434035
vt 0.6874996 0.05761135
vt 0.7065666 0.05115099
vt 0.7366456 0.07246915
vt 0.7213312 0.04589418
vt 0.7366456 0.07246915
vt 0.6874996 0.05761135
vt 0.6996341 0.07393412
vt 0.6874813 0.1080974
vt 0.7090428 0.08691768
vt 0.6875002 0.1196019
vt 0.6753924 0.07393268
vt 0.6874996 0.05761135
vt 0.6383833 0.07251529
vt 0.6658417 0.08682553
vt 0.6383833 0.07251529
vt 0.6684142 0.05116925
vt 0.6874996 0.05761135
vt 0.652576 0.008435883
vt 0.6572058 0.0470706
vt 0.652576 0.008435883
vt 0.6874912 0.03786985
vt 0.6874996 0.05761135
vt 0.7161134 0.01745019
vt 0.6875757 0.02622176
vt 0.7161134 0.01745019
vt 0.7065666 0.05115099
vt 0.6874996 0.05761135
vt 0.7366456 0.07246915
vt 0.7178864 0.04723886
vt 0.748456 0.07579295
vt 0.7366456 0.07246915
vt 0.6996341 0.07393412
vt 0.6874996 0.05761135
vt 0.6875002 0.1196019
vt 0.7067707 0.08382527
vt 0.748456 0.07579295
vn -0.651732 0.33103 0.6823962
vn -0.3074509 0.4231693 0.852292
vn -0.3585328 0.4934775 0.792423
vn -0.1134326 0.7221277 0.6823962
vn -0.4760618 0.6552422 0.5865345
vn -0.5162244 -0.5175399 0.6823964
vn -0.4974657 -0.1616364 0.852292
vn -0.5801178 -0.1884918 0.792423
vn -0.7218369 0.1152692 0.6823962
vn -0.7702836 -0.2502804 0.5865347
vn 0.3326874 -0.650887 0.6823967
vn 0 -0.5230659 0.8522922
vn 0 -0.6099715 0.7924234
vn -0.3326872 -0.6508873 0.6823965
vn 0 -0.8099239 0.586535
vn 0.7218364 0.1152697 0.6823965
vn 0.4974652 -0.161636 0.8522923
vn 0.5801173 -0.1884912 0.7924235
vn 0.5162244 -0.5175391 0.6823969
vn 0.7702835 -0.2502798 0.586535
vn 0.1134316 0.7221276 0.6823965
vn 0.3074501 0.4231696 0.8522922
vn 0.3585319 0.4934777 0.7924232
vn 0.6517314 0.3310304 0.6823965
vn 0.4760611 0.6552425 0.5865349
vn -0.6517315 0.3310299 -0.6823968
vn -0.3585322 0.4934772 -0.7924235
vn -0.3074503 0.423169 -0.8522924
vn -0.1134322 0.7221274 -0.6823966
vn -0.4760614 0.6552421 -0.5865351
vn -0.516224 -0.5175399 -0.6823967
vn -0.5801172 -0.188492 -0.7924234
vn -0.497465 -0.1616366 -0.8522923
vn -0.7218364 0.1152689 -0.6823967
vn -0.7702832 -0.2502806 -0.5865352
vn 0.3326879 -0.6508872 -0.6823963
vn 5.448662E-07 -0.6099716 -0.7924232
vn 4.767757E-07 -0.523066 -0.8522922
vn -0.3326866 -0.6508873 -0.6823968
vn 5.472112E-07 -0.809924 -0.5865347
vn 0.7218367 0.1152696 -0.6823962
vn 0.5744413 -0.2293852 -0.7857479
vn 0.4810434 -0.2099725 -0.8511809
vn 0.5456721 -0.6883907 -0.4778705
vn 0.7702838 -0.25028 -0.5865346
vn 0.5525176 -0.6893075 -0.4685931
vn 0.06364854 0.8538597 -0.516597
vn 0.3277566 0.5226666 -0.7870166
vn 0.2657531 0.4526214 -0.851181
vn 0.6517318 0.3310302 -0.6823963
vn 0.4705602 0.6627271 -0.5825512
vn 0.06174442 0.8844731 -0.4624878
g star_0
f 3/3/3 2/2/2 1/1/1
f 4/4/4 2/2/2 3/3/3
f 3/3/3 1/1/1 5/5/5
f 3/3/3 5/5/5 4/4/4
f 8/8/8 7/7/7 6/6/6
f 9/9/9 7/7/7 8/8/8
f 10/10/10 8/8/8 6/6/6
f 8/8/8 10/10/10 9/9/9
f 13/13/13 12/12/12 11/11/11
f 14/14/14 12/12/12 13/13/13
f 13/13/13 11/11/11 15/15/15
f 13/13/13 15/15/15 14/14/14
f 18/18/18 17/17/17 16/16/16
f 19/19/19 17/17/17 18/18/18
f 18/18/18 16/16/16 20/20/20
f 18/18/18 20/20/20 19/19/19
f 23/23/23 22/22/22 21/21/21
f 24/24/24 22/22/22 23/23/23
f 25/25/25 24/24/24 23/23/23
f 23/23/23 21/21/21 25/25/25
f 28/28/28 27/27/27 26/26/26
f 28/28/28 29/29/29 27/27/27
f 26/26/26 27/27/27 30/30/30
f 27/27/27 29/29/29 30/30/30
f 33/33/33 32/32/32 31/31/31
f 33/33/33 34/34/34 32/32/32
f 32/32/32 35/35/35 31/31/31
f 35/35/35 32/32/32 34/34/34
f 38/38/38 37/37/37 36/36/36
f 38/38/38 39/39/39 37/37/37
f 36/36/36 37/37/37 40/40/40
f 37/37/37 39/39/39 40/40/40
f 43/43/43 42/42/42 41/41/41
f 43/43/43 44/44/44 42/42/42
f 41/41/41 42/42/42 45/45/45
f 44/44/44 46/46/46 42/42/42
f 45/45/45 42/42/42 46/46/46
f 49/49/49 48/48/48 47/47/47
f 49/49/49 50/50/50 48/48/48
f 50/50/50 51/51/51 48/48/48
f 48/48/48 51/51/51 47/47/47
f 52/52/52 47/47/47 51/51/51
