g Text_I
v 0.2674286 0.9890284 0.2295281
v 0.1396628 1.25872E-13 0.2295281
v 0.2300433 1.106788 0.2295281
v 0.2793256 1.268139E-13 0.2295281
v 0.1314648 1.212837 0.2295281
v -2.887646E-15 1.249301E-13 0.2295281
v -1.155058E-14 1.237557 0.2295281
v 0.2674286 -0.9890284 0.2295281
v 0.2300433 -1.106788 0.2295281
v 0.1314648 -1.212837 0.2295281
v 5.775291E-15 -1.237557 0.2295281
v -0.1314648 1.212837 0.2295281
v -0.1396628 1.239883E-13 0.2295281
v -0.2300433 1.106788 0.2295281
v -0.2674286 0.9890284 0.2295281
v -0.2793256 1.230408E-13 0.2295281
v -0.2674286 -0.9890284 0.2295281
v -0.2300433 -1.106788 0.2295281
v -0.1314648 -1.212837 0.2295281
v 0.2674286 0.9890284 0.2295281
v 0.2300433 1.106788 -0.229528
v 0.2674286 0.9890284 -0.229528
v 0.2300433 1.106788 0.2295281
v 0.2793256 1.268139E-13 0.2295281
v 0.2793256 1.268421E-13 -0.229528
v 0.1314648 1.212837 -0.229528
v 0.1314648 1.212837 0.2295281
v 0.2674286 -0.9890284 0.2295281
v 0.2674286 -0.9890284 -0.229528
v 0.2300433 -1.106788 -0.229528
v 0.2300433 -1.106788 0.2295281
v 0.1314648 -1.212837 -0.229528
v 0.1314648 -1.212837 0.2295281
v 0.1314648 1.212837 0.2295281
v -5.775291E-15 1.237557 -0.229528
v 0.1314648 1.212837 -0.229528
v -1.155058E-14 1.237557 0.2295281
v -0.1314648 1.212837 -0.229528
v -0.1314648 1.212837 0.2295281
v -0.2674286 0.9890284 0.2295281
v -0.2793256 1.23069E-13 -0.229528
v -0.2674286 0.9890284 -0.229528
v -0.2793256 1.230408E-13 0.2295281
v -0.2300433 1.106788 0.2295281
v -0.2300433 1.106788 -0.229528
v -0.1314648 1.212837 0.2295281
v -0.1314648 1.212837 -0.229528
v -0.2674286 -0.9890284 0.2295281
v -0.2674286 -0.9890284 -0.229528
v -0.2300433 -1.106788 0.2295281
v -0.2300433 -1.106788 -0.229528
v -0.1314648 -1.212837 0.2295281
v -0.1314648 -1.212837 -0.229528
v 0.2674286 0.9890284 -0.229528
v 0.1396628 1.259002E-13 -0.229528
v 0.2793256 1.268421E-13 -0.229528
v 0.2300433 1.106788 -0.229528
v 0.1314648 1.212837 -0.229528
v 2.887646E-15 1.249584E-13 -0.229528
v -5.775291E-15 1.237557 -0.229528
v 0.2674286 -0.9890284 -0.229528
v 0.2300433 -1.106788 -0.229528
v 0.1314648 -1.212837 -0.229528
v 1.155058E-14 -1.237557 -0.229528
v -0.1314648 1.212837 -0.229528
v -0.1396628 1.240165E-13 -0.229528
v -0.2300433 1.106788 -0.229528
v -0.2674286 0.9890284 -0.229528
v -0.2793256 1.23069E-13 -0.229528
v -0.2674286 -0.9890284 -0.229528
v -0.2300433 -1.106788 -0.229528
v -0.1314648 -1.212837 -0.229528
v 0.1314648 -1.212837 0.2295281
v 1.155058E-14 -1.237557 -0.229528
v 5.775291E-15 -1.237557 0.2295281
v 0.1314648 -1.212837 -0.229528
v -0.1314648 -1.212837 -0.229528
v -0.1314648 -1.212837 0.2295281
vt 0.2863169 0.8587664
vt 0.28034 0.8125
vt 0.284568 0.8642752
vt 0.2868734 0.8125
vt 0.2799565 0.8692361
vt 0.2738066 0.8125
vt 0.2738066 0.8703925
vt 0.2863169 0.7662336
vt 0.284568 0.7607248
vt 0.2799565 0.7557639
vt 0.2738066 0.7546075
vt 0.2676567 0.8692361
vt 0.2672732 0.8125
vt 0.2630453 0.8642752
vt 0.2612964 0.8587664
vt 0.2607399 0.8125
vt 0.2612964 0.7662336
vt 0.2630453 0.7607248
vt 0.2676567 0.7557639
vt 0.3431726 0.8570863
vt 0.3642601 0.8624958
vt 0.3642601 0.8570863
vt 0.3431726 0.8624958
vt 0.3431726 0.8116536
vt 0.3642601 0.8116536
vt 0.3642601 0.8673674
vt 0.3431726 0.8673674
vt 0.3431726 0.7662209
vt 0.3642601 0.7662209
vt 0.3642601 0.7608114
vt 0.3431726 0.7608114
vt 0.3642601 0.7559398
vt 0.3431726 0.7559398
vt 0.3637768 0.8645814
vt 0.3426893 0.8585423
vt 0.3426893 0.8645813
vt 0.3637768 0.8585423
vt 0.3426893 0.8525032
vt 0.3637768 0.8525032
vt 0.3628798 0.8582391
vt 0.3417922 0.8128064
vt 0.3417922 0.8582391
vt 0.3628798 0.8128064
vt 0.3628798 0.8636485
vt 0.3417922 0.8636485
vt 0.3628798 0.8685201
vt 0.3417922 0.8685201
vt 0.3628798 0.7673737
vt 0.3417922 0.7673737
vt 0.3628798 0.7619642
vt 0.3417922 0.7619642
vt 0.3628798 0.7570926
vt 0.3417922 0.7570926
vt 0.2612964 0.8587664
vt 0.2672732 0.8125
vt 0.2607399 0.8125
vt 0.2630453 0.8642752
vt 0.2676567 0.8692361
vt 0.2738066 0.8125
vt 0.2738066 0.8703925
vt 0.2612964 0.7662336
vt 0.2630453 0.7607248
vt 0.2676567 0.7557639
vt 0.2738066 0.7546075
vt 0.2799565 0.8692361
vt 0.28034 0.8125
vt 0.284568 0.8642752
vt 0.2863169 0.8587664
vt 0.2868734 0.8125
vt 0.2863169 0.7662336
vt 0.284568 0.7607248
vt 0.2799565 0.7557639
vt 0.3426893 0.8496163
vt 0.3637768 0.8435773
vt 0.3426893 0.8435773
vt 0.3637768 0.8496163
vt 0.3637768 0.8375382
vt 0.3426893 0.8375382
vn 0 0 1
vn 0 0 1
vn 0 0 1
vn 0 0 1
vn 0 0 1
vn 0 0 1
vn 0 0 1
vn 0 0 1
vn 0 0 1
vn 0 0 1
vn 0 0 1
vn 0 0 1
vn 0 0 1
vn 0 0 1
vn 0 0 1
vn 0 0 1
vn 0 0 1
vn 0 0 1
vn 0 0 1
vn 0.9872721 0.1590401 0
vn 0.8637373 0.5039424 0
vn 0.9872721 0.1590402 0
vn 0.8637373 0.5039424 0
vn 1 0 0
vn 1 0 0
vn 0.4828243 0.8757172 0
vn 0.4828243 0.8757172 0
vn 0.9872721 -0.1590402 0
vn 0.9872721 -0.1590402 0
vn 0.8637373 -0.5039424 0
vn 0.8637373 -0.5039424 0
vn 0.4828243 -0.8757172 0
vn 0.4828243 -0.8757172 0
vn 0.4828243 0.8757172 0
vn 0 1 0
vn 0.4828243 0.8757172 0
vn 0 1 0
vn -0.4828243 0.8757172 0
vn -0.4828243 0.8757172 0
vn -0.9872721 0.1590402 0
vn -1 0 0
vn -0.9872721 0.1590401 0
vn -1 0 0
vn -0.8637373 0.5039424 0
vn -0.8637373 0.5039424 0
vn -0.4828243 0.8757172 0
vn -0.4828243 0.8757172 0
vn -0.9872721 -0.1590402 0
vn -0.9872721 -0.1590401 0
vn -0.8637373 -0.5039424 0
vn -0.8637373 -0.5039424 0
vn -0.4828243 -0.8757172 0
vn -0.4828243 -0.8757172 0
vn 0 0 -1
vn 0 0 -1
vn 0 0 -1
vn 0 0 -1
vn 0 0 -1
vn 0 0 -1
vn 0 0 -1
vn 0 0 -1
vn 0 0 -1
vn 0 0 -1
vn 0 0 -1
vn 0 0 -1
vn 0 0 -1
vn 0 0 -1
vn 0 0 -1
vn 0 0 -1
vn 0 0 -1
vn 0 0 -1
vn 0 0 -1
vn 0.4828243 -0.8757172 0
vn 0 -1 0
vn 0 -1 0
vn 0.4828243 -0.8757172 0
vn -0.4828243 -0.8757172 0
vn -0.4828243 -0.8757172 0
g Text_I_0
f 3/3/3 2/2/2 1/1/1
f 4/4/4 1/1/1 2/2/2
f 5/5/5 2/2/2 3/3/3
f 2/2/2 5/5/5 6/6/6
f 7/7/7 6/6/6 5/5/5
f 4/4/4 2/2/2 8/8/8
f 9/9/9 8/8/8 2/2/2
f 2/2/2 6/6/6 10/10/10
f 2/2/2 10/10/10 9/9/9
f 11/11/11 10/10/10 6/6/6
f 7/7/7 12/12/12 6/6/6
f 13/13/13 6/6/6 12/12/12
f 13/13/13 12/12/12 14/14/14
f 14/14/14 15/15/15 13/13/13
f 16/16/16 13/13/13 15/15/15
f 16/16/16 17/17/17 13/13/13
f 18/18/18 13/13/13 17/17/17
f 11/11/11 6/6/6 19/19/19
f 13/13/13 19/19/19 6/6/6
f 19/19/19 13/13/13 18/18/18
f 22/22/22 21/21/21 20/20/20
f 23/23/23 20/20/20 21/21/21
f 20/20/20 24/24/24 22/22/22
f 25/25/25 22/22/22 24/24/24
f 21/21/21 26/26/26 23/23/23
f 27/27/27 23/23/23 26/26/26
f 24/24/24 28/28/28 25/25/25
f 29/29/29 25/25/25 28/28/28
f 29/29/29 28/28/28 30/30/30
f 31/31/31 30/30/30 28/28/28
f 30/30/30 31/31/31 32/32/32
f 33/33/33 32/32/32 31/31/31
f 36/36/36 35/35/35 34/34/34
f 37/37/37 34/34/34 35/35/35
f 35/35/35 38/38/38 37/37/37
f 39/39/39 37/37/37 38/38/38
f 42/42/42 41/41/41 40/40/40
f 43/43/43 40/40/40 41/41/41
f 40/40/40 44/44/44 42/42/42
f 45/45/45 42/42/42 44/44/44
f 44/44/44 46/46/46 45/45/45
f 47/47/47 45/45/45 46/46/46
f 43/43/43 41/41/41 48/48/48
f 49/49/49 48/48/48 41/41/41
f 48/48/48 49/49/49 50/50/50
f 51/51/51 50/50/50 49/49/49
f 50/50/50 51/51/51 52/52/52
f 53/53/53 52/52/52 51/51/51
f 56/56/56 55/55/55 54/54/54
f 57/57/57 54/54/54 55/55/55
f 55/55/55 58/58/58 57/57/57
f 55/55/55 59/59/59 58/58/58
f 60/60/60 58/58/58 59/59/59
f 56/56/56 61/61/61 55/55/55
f 62/62/62 55/55/55 61/61/61
f 55/55/55 63/63/63 59/59/59
f 63/63/63 55/55/55 62/62/62
f 64/64/64 59/59/59 63/63/63
f 60/60/60 59/59/59 65/65/65
f 66/66/66 65/65/65 59/59/59
f 65/65/65 66/66/66 67/67/67
f 67/67/67 66/66/66 68/68/68
f 69/69/69 68/68/68 66/66/66
f 69/69/69 66/66/66 70/70/70
f 71/71/71 70/70/70 66/66/66
f 66/66/66 59/59/59 72/72/72
f 64/64/64 72/72/72 59/59/59
f 66/66/66 72/72/72 71/71/71
f 75/75/75 74/74/74 73/73/73
f 76/76/76 73/73/73 74/74/74
f 74/74/74 75/75/75 77/77/77
f 78/78/78 77/77/77 75/75/75
