g ToolBox
v -0.4940176 -0.01480574 0.3482762
v -0.4940176 -0.004199495 0.3816331
v -0.4940171 -0.03839049 0.3741402
v -0.4940171 0.01938525 0.3557696
v -0.4940176 0.02999151 0.3891263
v -0.4940172 0.006406705 0.4149899
v -0.4940176 -0.0277843 0.407497
v 0.5162823 -0.01480559 0.3482762
v -0.4940171 -0.03839049 0.3741402
v 0.5162823 -0.03839039 0.3741398
v -0.4940176 -0.01480574 0.3482762
v 0.5162823 -0.01480559 0.3482762
v 0.5162823 -0.03839039 0.3741398
v 0.5162823 -0.004199393 0.3816331
v 0.5162823 0.01938535 0.3557696
v 0.5162823 0.02999161 0.3891263
v 0.5162823 0.006406859 0.4149899
v 0.5162823 -0.02778415 0.407497
v 0.5162823 0.01938535 0.3557696
v -0.4940176 -0.01480574 0.3482762
v 0.5162823 -0.01480559 0.3482762
v -0.4940171 0.01938525 0.3557696
v 0.5162823 0.02999161 0.3891263
v -0.4940171 0.01938525 0.3557696
v 0.5162823 0.01938535 0.3557696
v -0.4940176 0.02999151 0.3891263
v 0.5162823 0.006406859 0.4149899
v -0.4940176 0.02999151 0.3891263
v 0.5162823 0.02999161 0.3891263
v -0.4940172 0.006406705 0.4149899
v 0.5162823 -0.02778415 0.407497
v -0.4940172 0.006406705 0.4149899
v 0.5162823 0.006406859 0.4149899
v -0.4940176 -0.0277843 0.407497
v 0.5162823 -0.03839039 0.3741398
v -0.4940176 -0.0277843 0.407497
v 0.5162823 -0.02778415 0.407497
v -0.4743592 -0.2990738 0.07021943
v -0.4743593 0.2906748 -0.3229465
v -0.4743593 0.2906748 0.07021943
v -0.4743592 -0.2990738 -0.3229465
v -0.4743593 -0.1041843 0.4378292
v -0.4743592 0.0957853 0.4378292
v -0.4145934 -0.2990738 0.07021943
v -0.3337238 -0.2990738 0.0323728
v -0.4272999 -0.2990738 0.0323728
v -0.4743592 -0.2990738 0.07021943
v 0.496624 0.2906749 0.07021927
v 0.496624 -0.2990736 -0.3229465
v 0.496624 -0.2990736 0.07021927
v 0.496624 0.2906749 -0.3229465
v 0.496624 0.09578545 0.4378292
v 0.496624 -0.1041842 0.4378292
v -0.4743593 0.2906748 -0.3229465
v -0.4286255 0.2906748 -0.2891375
v -0.4291434 0.2906748 0.02992102
v -0.4743593 0.2906748 0.07021943
v -0.4743593 0.2906748 -0.3229465
v -0.426563 0.2149273 -0.3229465
v 0.4514345 0.2149273 -0.3229465
v 0.496624 0.2906749 -0.3229465
v -0.4743592 -0.2990738 -0.3229465
v -0.4272999 -0.2990738 -0.2873427
v 0.4522373 -0.2990736 -0.2873427
v 0.496624 -0.2990736 -0.3229465
v 0.496624 0.2906749 -0.3229465
v 0.4528792 0.2906749 -0.2874976
v -0.4286255 0.2906748 -0.2891375
v -0.4743593 0.2906748 -0.3229465
v 0.4368588 -0.1041842 0.4378292
v 0.496624 0.09578545 0.4378292
v 0.496624 -0.1041842 0.4378292
v 0.4368588 0.0957854 0.4378292
v 0.496624 -0.2990736 -0.3229465
v 0.4522373 -0.2990736 -0.2873427
v 0.4522373 -0.2990736 0.03237268
v 0.496624 -0.2990736 0.07021927
v 0.4368588 0.2906749 0.07021927
v 0.4102254 0.2906749 0.03156085
v 0.4523612 0.2906749 0.03156085
v 0.496624 0.2906749 0.07021927
v -0.4145935 -0.2689764 0.07021943
v 0.4368589 -0.2990737 0.07021927
v -0.4145934 -0.2990738 0.07021943
v 0.4368588 -0.2689763 0.07021927
v -0.4145935 -0.1041843 0.4378292
v -0.4743592 0.0957853 0.4378292
v -0.4145935 0.0957853 0.4378292
v -0.4743593 -0.1041843 0.4378292
v 0.4368589 -0.2990737 0.07021927
v 0.4368588 -0.2689763 0.07021927
v 0.4368588 -0.1041842 0.4378292
v 0.4368589 0.2605775 0.07021927
v 0.4368588 0.0957854 0.4378292
v 0.4368588 0.2906749 0.07021927
v 0.4368589 0.2605775 -0.2449029
v 0.4368588 -0.2689763 -0.2449029
v 0.4368588 0.2906749 0.07021927
v -0.4145934 0.2605774 0.07021943
v -0.4145935 0.2906748 0.07021943
v 0.4368589 0.2605775 0.07021927
v 0.4368588 0.0957854 0.4378292
v 0.496624 0.2906749 0.07021927
v 0.496624 0.09578545 0.4378292
v 0.4368588 0.2906749 0.07021927
v 0.496624 -0.1041842 0.4378292
v 0.4368589 -0.2990737 0.07021927
v 0.4368588 -0.1041842 0.4378292
v 0.496624 -0.2990736 0.07021927
v 0.4368589 0.2605775 -0.2449029
v -0.4145935 -0.2689764 -0.2449029
v -0.4145934 0.2605774 -0.2449029
v 0.4368588 -0.2689763 -0.2449029
v 0.4368588 -0.2689763 -0.2449029
v -0.4145935 -0.2689764 0.07021943
v -0.4145935 -0.2689764 -0.2449029
v 0.4368588 -0.2689763 0.07021927
v -0.4145934 0.2605774 -0.2449029
v 0.4368589 0.2605775 0.07021927
v 0.4368589 0.2605775 -0.2449029
v -0.4145934 0.2605774 0.07021943
v -0.4145935 -0.2689764 -0.2449029
v -0.4145934 0.2605774 0.07021943
v -0.4145934 0.2605774 -0.2449029
v -0.4145935 -0.2689764 0.07021943
v -0.4145935 0.0957853 0.4378292
v -0.4145935 -0.1041843 0.4378292
v -0.4145934 -0.2990738 0.07021943
v -0.4145935 0.2906748 0.07021943
v -0.4145935 -0.1041843 0.4378292
v -0.4743592 -0.2990738 0.07021943
v -0.4743593 -0.1041843 0.4378292
v -0.4145934 -0.2990738 0.07021943
v -0.4743592 0.0957853 0.4378292
v -0.4145935 0.2906748 0.07021943
v -0.4145935 0.0957853 0.4378292
v -0.4743593 0.2906748 0.07021943
v -0.4940171 -0.03839049 0.3741402
v -0.4940176 -0.0277843 0.407497
v 0.5162823 -0.03839039 0.3741398
v 0.496624 -0.2990736 -0.3229465
v 0.4514345 -0.2233262 -0.3229465
v -0.426563 -0.2233263 -0.3229465
v -0.4743592 -0.2990738 -0.3229465
v 0.4368589 -0.2990737 0.07021927
v 0.3586617 -0.2990737 0.03237268
v -0.3337238 -0.2990738 0.0323728
v -0.4145934 -0.2990738 0.07021943
v -0.4145935 0.2906748 0.07021943
v -0.36997 0.2906748 0.03156095
v 0.4102254 0.2906749 0.03156085
v 0.4368588 0.2906749 0.07021927
v -0.426563 -0.2233263 -0.3229465
v -0.426563 -0.2233263 -0.3083912
v -0.426563 0.2149273 -0.3083912
v -0.426563 0.2149273 -0.3229465
v 0.4514345 -0.2233262 -0.3229465
v 0.4514345 -0.2233262 -0.3083912
v -0.426563 -0.2233263 -0.3083912
v -0.426563 -0.2233263 -0.3229465
v 0.496624 0.2906749 -0.3229465
v 0.4514345 0.2149273 -0.3229465
v 0.4514345 -0.2233262 -0.3229465
v 0.496624 -0.2990736 -0.3229465
v -0.4743592 -0.2990738 -0.3229465
v -0.426563 -0.2233263 -0.3229465
v -0.426563 0.2149273 -0.3229465
v -0.4743593 0.2906748 -0.3229465
v -0.426563 -0.2233263 -0.3083912
v 0.4514345 0.2149273 -0.3083912
v -0.426563 0.2149273 -0.3083912
v 0.4514345 -0.2233262 -0.3083912
v 0.4514345 0.2149273 -0.3229465
v 0.4514345 0.2149273 -0.3083912
v 0.4514345 -0.2233262 -0.3083912
v 0.4514345 -0.2233262 -0.3229465
v -0.426563 0.2149273 -0.3229465
v -0.426563 0.2149273 -0.3083912
v 0.4514345 0.2149273 -0.3083912
v 0.4514345 0.2149273 -0.3229465
v 0.3586617 -0.2990737 0.03237268
v 0.3586617 -0.2878486 0.03237268
v -0.3337238 -0.2878487 0.0323728
v -0.3337238 -0.2990738 0.0323728
v -0.3337238 -0.2990738 0.0323728
v -0.3337238 -0.2878487 0.0323728
v -0.4272999 -0.2878487 0.0323728
v -0.4272999 -0.2990738 0.0323728
v 0.4522373 -0.2990736 -0.2873427
v 0.4522373 -0.2878486 -0.2873427
v 0.4522373 -0.2878486 0.03237268
v 0.4522373 -0.2990736 0.03237268
v -0.4272999 -0.2990738 -0.2873427
v -0.4272999 -0.2878487 -0.2873427
v 0.4522373 -0.2878486 -0.2873427
v 0.4522373 -0.2990736 -0.2873427
v -0.4743592 -0.2990738 0.07021943
v -0.4272999 -0.2990738 0.0323728
v -0.4272999 -0.2990738 -0.2873427
v -0.4743592 -0.2990738 -0.3229465
v 0.496624 -0.2990736 0.07021927
v 0.4522373 -0.2990736 0.03237268
v 0.3586617 -0.2990737 0.03237268
v 0.4368589 -0.2990737 0.07021927
v 0.4523612 0.2906749 0.03156085
v 0.4523612 0.2772048 0.03156085
v 0.4528792 0.2772048 -0.2874976
v 0.4528792 0.2906749 -0.2874976
v -0.4286255 0.2906748 -0.2891375
v -0.4286255 0.2772048 -0.2891375
v -0.4291434 0.2772048 0.02992102
v -0.4291434 0.2906748 0.02992102
v 0.4102254 0.2906749 0.03156085
v 0.4102254 0.2772048 0.03156085
v 0.4523612 0.2772048 0.03156085
v 0.4523612 0.2906749 0.03156085
v 0.4528792 0.2906749 -0.2874976
v 0.4528792 0.2772048 -0.2874976
v -0.4286255 0.2772048 -0.2891375
v -0.4286255 0.2906748 -0.2891375
v 0.496624 0.2906749 0.07021927
v 0.4523612 0.2906749 0.03156085
v 0.4528792 0.2906749 -0.2874976
v 0.496624 0.2906749 -0.3229465
v -0.4743593 0.2906748 0.07021943
v -0.4291434 0.2906748 0.02992102
v -0.36997 0.2906748 0.03156095
v -0.4145935 0.2906748 0.07021943
v 0.4102254 0.2772048 0.03156085
v 0.4528792 0.2772048 -0.2874976
v 0.4523612 0.2772048 0.03156085
v -0.36997 0.2772048 0.03156095
v -0.4286255 0.2772048 -0.2891375
v -0.4291434 0.2772048 0.02992102
v -0.4291434 0.2906748 0.02992102
v -0.4291434 0.2772048 0.02992102
v -0.36997 0.2772048 0.03156095
v -0.36997 0.2906748 0.03156095
v -0.36997 0.2906748 0.03156095
v -0.36997 0.2772048 0.03156095
v 0.4102254 0.2772048 0.03156085
v 0.4102254 0.2906749 0.03156085
v -0.3337238 -0.2878487 0.0323728
v -0.4272999 -0.2878487 -0.2873427
v -0.4272999 -0.2878487 0.0323728
v 0.4522373 -0.2878486 -0.2873427
v 0.3586617 -0.2878486 0.03237268
v 0.4522373 -0.2878486 0.03237268
v -0.4272999 -0.2990738 0.0323728
v -0.4272999 -0.2878487 0.0323728
v -0.4272999 -0.2878487 -0.2873427
v -0.4272999 -0.2990738 -0.2873427
v 0.4522373 -0.2990736 0.03237268
v 0.4522373 -0.2878486 0.03237268
v 0.3586617 -0.2878486 0.03237268
v 0.3586617 -0.2990737 0.03237268
vt 0.07932248 0.982707
vt 0.07942902 0.9829076
vt 0.0795529 0.9827082
vt 0.07919865 0.9829063
vt 0.07930518 0.9831071
vt 0.07953557 0.9831083
vt 0.07965947 0.9829088
vt 0.0812572 0.9713034
vt 0.07042799 0.9714707
vt 0.0812572 0.9714707
vt 0.07042799 0.9713034
vt 0.06524689 0.9821471
vt 0.06524808 0.9823775
vt 0.06544756 0.9822536
vt 0.06544634 0.9820232
vt 0.06564697 0.9821298
vt 0.06564819 0.9823602
vt 0.06544877 0.9824839
vt 0.08133484 0.9722731
vt 0.08156452 0.9826981
vt 0.08156452 0.9722731
vt 0.08133484 0.9826981
vt 0.07042799 0.9720282
vt 0.0812572 0.9718125
vt 0.07042799 0.9718125
vt 0.0812572 0.9720282
vt 0.07042799 0.9721956
vt 0.0812572 0.9720282
vt 0.07042799 0.9720282
vt 0.0812572 0.9721956
vt 0.0812572 0.9716865
vt 0.07042799 0.9717349
vt 0.0812572 0.9717349
vt 0.07042799 0.9716865
vt 0.08125722 0.962557
vt 0.07042801 0.9627729
vt 0.08125722 0.9627729
vt 0.1138652 0.970245
vt 0.1099033 0.9677023
vt 0.1099033 0.970245
vt 0.1138652 0.9677023
vt 0.112556 0.9726223
vt 0.1112126 0.9726223
vt 0.09966207 0.9754955
vt 0.09966207 0.9754955
vt 0.09926053 0.9754955
vt 0.09926053 0.9754955
vt 0.1179048 0.9710181
vt 0.1139429 0.9684753
vt 0.1139429 0.9710181
vt 0.1179048 0.9684753
vt 0.1165956 0.9733953
vt 0.1152521 0.9733953
vt 0.1099033 0.9677023
vt 0.1099033 0.9677023
vt 0.1099033 0.970245
vt 0.1099033 0.970245
vt 0.1098257 0.9779506
vt 0.1098257 0.9779506
vt 0.09926053 0.9779506
vt 0.09926053 0.9779506
vt 0.09926053 0.9729528
vt 0.09926053 0.9729528
vt 0.1098257 0.9729528
vt 0.1098257 0.9729528
vt 0.09926053 0.9779506
vt 0.09926053 0.9779506
vt 0.1098257 0.9779506
vt 0.1098257 0.9779506
vt 0.1086831 0.9677933
vt 0.1073397 0.9681798
vt 0.1086831 0.9681798
vt 0.1073397 0.9677933
vt 0.1139429 0.9684753
vt 0.1139429 0.9684753
vt 0.1139429 0.9710181
vt 0.1139429 0.9710181
vt 0.09966207 0.9804932
vt 0.09966207 0.9804932
vt 0.09926053 0.9804932
vt 0.09926053 0.9804932
vt 0.1250004 0.9667921
vt 0.1252026 0.9761897
vt 0.1252026 0.9667921
vt 0.1250004 0.9761897
vt 0.1086831 0.968644
vt 0.1073397 0.9682575
vt 0.1073397 0.968644
vt 0.1086831 0.9682575
vt 0.1032225 0.9662666
vt 0.1030202 0.9662666
vt 0.1019132 0.968644
vt 0.09946274 0.9662666
vt 0.1005698 0.968644
vt 0.09926053 0.9662666
vt 0.09946274 0.9642286
vt 0.1030202 0.9642286
vt 0.112402 0.9839286
vt 0.1126042 0.9745309
vt 0.112402 0.9745309
vt 0.1126042 0.9839286
vt 0.09966207 0.9828706
vt 0.09926053 0.9804932
vt 0.09926053 0.9828706
vt 0.09966207 0.9804932
vt 0.1098257 0.9778729
vt 0.1094242 0.9754955
vt 0.1094242 0.9778729
vt 0.1098257 0.9754955
vt 0.1139429 0.9828706
vt 0.1175004 0.973473
vt 0.1139429 0.973473
vt 0.1175004 0.9828706
vt 0.09926053 0.9708374
vt 0.1090227 0.9728751
vt 0.1090227 0.9708374
vt 0.09926053 0.9728751
vt 0.09926053 0.9687216
vt 0.1090227 0.9707596
vt 0.1090227 0.9687216
vt 0.09926053 0.9707596
vt 0.1035023 0.9642286
vt 0.1070599 0.9662666
vt 0.1070599 0.9642286
vt 0.1035023 0.9662666
vt 0.1059528 0.968644
vt 0.1046094 0.968644
vt 0.1033002 0.9662666
vt 0.107262 0.9662666
vt 0.09966207 0.9778729
vt 0.09926053 0.9754955
vt 0.09926053 0.9778729
vt 0.09966207 0.9754955
vt 0.1098257 0.9828706
vt 0.1094242 0.9804932
vt 0.1094242 0.9828706
vt 0.1098257 0.9804932
vt 0.06810271 0.962557
vt 0.06810271 0.9627729
vt 0.07893192 0.962557
vt 0.1098257 0.9729528
vt 0.1098257 0.9729528
vt 0.09926053 0.9729528
vt 0.09926053 0.9729528
vt 0.1252026 0.9761897
vt 0.1252026 0.9761897
vt 0.1252026 0.9667921
vt 0.1252026 0.9667921
vt 0.1197844 0.9659182
vt 0.1197844 0.9659182
vt 0.1197844 0.9753158
vt 0.1197844 0.9753158
vt 0.1138652 0.9677023
vt 0.1138652 0.9677023
vt 0.1099033 0.9677023
vt 0.1099033 0.9677023
vt 0.1098257 0.9729528
vt 0.1098257 0.9729528
vt 0.09926053 0.9729528
vt 0.09926053 0.9729528
vt 0.1179048 0.9684753
vt 0.1179048 0.9684753
vt 0.1139429 0.9684753
vt 0.1139429 0.9684753
vt 0.1138652 0.9677023
vt 0.1138652 0.9677023
vt 0.1099033 0.9677023
vt 0.1099033 0.9677023
vt 0.208283 0.7654926
vt 0.2059152 0.7594141
vt 0.2059152 0.7654926
vt 0.208283 0.7594141
vt 0.1179048 0.9684753
vt 0.1179048 0.9684753
vt 0.1139429 0.9684753
vt 0.1139429 0.9684753
vt 0.1098257 0.9779506
vt 0.1098257 0.9779506
vt 0.09926053 0.9779506
vt 0.09926053 0.9779506
vt 0.1252026 0.9761897
vt 0.1252026 0.9761897
vt 0.1252026 0.9667921
vt 0.1252026 0.9667921
vt 0.09966207 0.9754955
vt 0.09966207 0.9754955
vt 0.09926053 0.9754955
vt 0.09926053 0.9754955
vt 0.1139429 0.9684753
vt 0.1139429 0.9684753
vt 0.1139429 0.9710181
vt 0.1139429 0.9710181
vt 0.09926053 0.9729528
vt 0.09926053 0.9729528
vt 0.1098257 0.9729528
vt 0.1098257 0.9729528
vt 0.1138652 0.970245
vt 0.1138652 0.970245
vt 0.1138652 0.9677023
vt 0.1138652 0.9677023
vt 0.1098257 0.9754955
vt 0.1098257 0.9754955
vt 0.1094242 0.9754955
vt 0.1094242 0.9754955
vt 0.1179048 0.9710181
vt 0.1179048 0.9710181
vt 0.1179048 0.9684753
vt 0.1179048 0.9684753
vt 0.1099033 0.9677023
vt 0.1099033 0.9677023
vt 0.1099033 0.970245
vt 0.1099033 0.970245
vt 0.09966207 0.9804932
vt 0.09966207 0.9804932
vt 0.09926053 0.9804932
vt 0.09926053 0.9804932
vt 0.09926053 0.9779506
vt 0.09926053 0.9779506
vt 0.1098257 0.9779506
vt 0.1098257 0.9779506
vt 0.1179048 0.9710181
vt 0.1179048 0.9710181
vt 0.1179048 0.9684753
vt 0.1179048 0.9684753
vt 0.1098257 0.9804932
vt 0.1098257 0.9804932
vt 0.1094242 0.9804932
vt 0.1094242 0.9804932
vt 0.1903749 0.7651612
vt 0.1899733 0.7626187
vt 0.1899733 0.7651612
vt 0.2001369 0.7651612
vt 0.2005384 0.7626187
vt 0.2005384 0.7651612
vt 0.1098257 0.9804932
vt 0.1098257 0.9804932
vt 0.1094242 0.9804932
vt 0.1094242 0.9804932
vt 0.1197844 0.9659182
vt 0.1197844 0.9659182
vt 0.1197844 0.9753158
vt 0.1197844 0.9753158
vt 0.1915106 0.7549654
vt 0.1911091 0.7524228
vt 0.1911091 0.7549654
vt 0.2016743 0.7524228
vt 0.2012727 0.7549654
vt 0.2016743 0.7549654
vt 0.1138652 0.970245
vt 0.1138652 0.970245
vt 0.1138652 0.9677023
vt 0.1138652 0.9677023
vt 0.1098257 0.9754955
vt 0.1098257 0.9754955
vt 0.1094242 0.9754955
vt 0.1094242 0.9754955
vn -1 0 0
vn -1 0 0
vn -1 -1.320139E-05 0
vn -1 1.011173E-05 -1.107281E-05
vn -1 0 0
vn -1 0 1.298254E-05
vn -1 0 0
vn 0 -0.7389093 -0.6738049
vn 0 -0.7389147 -0.673799
vn 0 -0.7389092 -0.673805
vn 0 -0.7389148 -0.6737989
vn 1 0 0
vn 1 0 0
vn 1 0 0
vn 1 0 0
vn 1 0 0
vn 1 0 0
vn 1 0 0
vn 0 0.2140821 -0.9768157
vn 0 0.2140818 -0.9768158
vn 0 0.2140822 -0.9768157
vn 0 0.2140819 -0.9768158
vn 0 0.9529856 -0.3030158
vn 0 0.9529856 -0.3030158
vn 0 0.9529856 -0.3030158
vn 0 0.9529856 -0.3030158
vn 0 0.7389092 0.6738051
vn 0 0.7389085 0.6738057
vn 0 0.7389092 0.6738051
vn 0 0.7389085 0.6738058
vn 0 -0.2140688 0.9768186
vn 0 -0.2140687 0.9768186
vn 0 -0.2140688 0.9768186
vn 0 -0.2140687 0.9768186
vn 0 -0.9529868 0.3030118
vn 0 -0.9529863 0.3030135
vn 0 -0.9529868 0.3030117
vn -1 0 0
vn -1 0 0
vn -1 0 0
vn -1 0 0
vn -1 0 0
vn -1 0 0
vn 0 -1 0
vn 0 -1 0
vn 0 -1 0
vn 0 -1 0
vn 1 0 0
vn 1 0 0
vn 1 0 0
vn 1 0 0
vn 1 0 0
vn 1 0 0
vn 0 1 0
vn 0 1 0
vn 0 1 0
vn 0 1 0
vn 0 0 -1
vn 0 0 -1
vn 0 0 -1
vn 0 0 -1
vn 0 -1 0
vn 0 -1 0
vn 0 -1 0
vn 0 -1 0
vn 0 1 0
vn 0 1 0
vn 0 1 0
vn 0 1 0
vn 0 0 1
vn 0 0 1
vn 0 0 1
vn 0 0 1
vn 0 -1 0
vn 0 -1 0
vn 0 -1 0
vn 0 -1 0
vn 0 1 0
vn 0 1 0
vn 0 1 0
vn 0 1 0
vn 0 0 1
vn 0 0 1
vn 0 0 1
vn 0 0 1
vn 0 0 1
vn 0 0 1
vn 0 0 1
vn 0 0 1
vn -1 0 0
vn -1 0 0
vn -1 0 0
vn -1 0 0
vn -1 0 0
vn -1 0 0
vn -1 0 0
vn -1 0 0
vn 0 0 1
vn 0 0 1
vn 0 0 1
vn 0 0 1
vn 0 0.883517 0.4683991
vn 0 0.8835172 0.4683986
vn 0 0.883517 0.4683992
vn 0 0.8835173 0.4683985
vn 0 -0.8835172 0.4683987
vn 0 -0.8835171 0.4683988
vn 0 -0.8835172 0.4683986
vn 0 -0.8835171 0.4683988
vn 0 0 1
vn 0 0 1
vn 0 0 1
vn 0 0 1
vn 0 1 0
vn 0 1 0
vn 0 1 0
vn 0 1 0
vn 0 -1 0
vn 0 -1 0
vn 0 -1 0
vn 0 -1 0
vn 1 0 0
vn 1 0 0
vn 1 0 0
vn 1 0 0
vn 1 0 0
vn 1 0 0
vn 1 0 0
vn 1 0 0
vn 0 -0.8835171 0.4683989
vn 0 -0.8835168 0.4683995
vn 0 -0.8835171 0.4683988
vn 0 -0.8835167 0.4683996
vn 0 0.8835169 0.4683992
vn 0 0.883517 0.468399
vn 0 0.8835169 0.4683992
vn 0 0.883517 0.468399
vn 0 -0.9529862 0.3030135
vn 0 -0.9529863 0.3030135
vn 0 -0.9529868 0.3030118
vn 0 0 -1
vn 0 0 -1
vn 0 0 -1
vn 0 0 -1
vn 0 -1 0
vn 0 -1 0
vn 0 -1 0
vn 0 -1 0
vn 0 1 0
vn 0 1 0
vn 0 1 0
vn 0 1 0
vn 0.7071068 0.7071068 0
vn 0.7071068 0.7071068 0
vn 0.7071068 -0.7071068 0
vn 0.7071068 -0.7071068 0
vn -0.7071068 0.7071068 0
vn -0.7071068 0.7071068 0
vn 0.7071068 0.7071068 0
vn 0.7071068 0.7071068 0
vn 0 0 -1
vn 0 0 -1
vn 0 0 -1
vn 0 0 -1
vn 0 0 -1
vn 0 0 -1
vn 0 0 -1
vn 0 0 -1
vn 0 0 -1
vn 0 0 -1
vn 0 0 -1
vn 0 0 -1
vn -0.7071068 -0.7071068 0
vn -0.7071068 -0.7071068 0
vn -0.7071068 0.7071068 0
vn -0.7071068 0.7071068 0
vn 0.7071068 -0.7071068 0
vn 0.7071068 -0.7071068 0
vn -0.7071068 -0.7071068 0
vn -0.7071068 -0.7071068 0
vn 0 0 -1
vn 0 0 -1
vn 0 0 -1
vn 0 0 -1
vn 0 0 -1
vn 0 0 -1
vn 0.7071068 0 -0.7071068
vn 0.7071068 0 -0.7071068
vn -0.7071068 0 0.7071068
vn -0.7071068 0 0.7071068
vn -0.7071069 0 -0.7071066
vn -0.7071066 0 -0.7071069
vn 0.7071068 0 0.7071068
vn 0.7071068 0 0.7071068
vn -0.7071068 0 0.7071068
vn -0.7071068 0 0.7071068
vn 0 -1 0
vn 0 -1 0
vn 0 -1 0
vn 0 -1 0
vn 0 -1 0
vn 0 -1 0
vn 0 -1 0
vn 0 -1 0
vn -0.7065325 0 -0.7076806
vn -0.7065328 0 -0.7076802
vn -0.7083375 0 0.705874
vn -0.7083375 0 0.705874
vn 0.7058741 0 0.7083374
vn 0.7058741 0 0.7083374
vn 0.7174002 0 -0.6966613
vn 0.7174002 0 -0.6966613
vn 0 0 -1
vn 0 0 -1
vn -0.7065328 0 -0.7076802
vn -0.7065325 0 -0.7076806
vn -0.7083375 0 0.705874
vn -0.7083375 0 0.705874
vn 0.7058741 0 0.7083374
vn 0.7058741 0 0.7083374
vn 0 1 0
vn 0 1 0
vn 0 1 0
vn 0 1 0
vn 0 1 0
vn 0 1 0
vn 0 1 0
vn 0 1 0
vn 0 1 0
vn 0 1 0
vn 0 1 0
vn 0 1 0
vn 0 1 0
vn 0 1 0
vn 0.7174002 0 -0.6966613
vn 0.7174002 0 -0.6966613
vn 0.01385296 0 -0.999904
vn 0.01385296 0 -0.999904
vn 0.01385296 0 -0.999904
vn 0.01385296 0 -0.999904
vn 0 0 -1
vn 0 0 -1
vn 0 -1 0
vn 0 -1 0
vn 0 -1 0
vn 0 -1 0
vn 0 -1 0
vn 0 -1 0
vn 0.7071068 0 -0.7071068
vn 0.7071068 0 -0.7071068
vn 0.7071068 0 0.7071068
vn 0.7071068 0 0.7071068
vn -0.7071066 0 -0.7071069
vn -0.7071069 0 -0.7071066
vn 0 0 -1
vn 0 0 -1
g ToolBox_0
f 3/3/3 2/2/2 1/1/1
f 1/1/1 2/2/2 4/4/4
f 4/4/4 2/2/2 5/5/5
f 5/5/5 2/2/2 6/6/6
f 6/6/6 2/2/2 7/7/7
f 7/7/7 2/2/2 3/3/3
f 10/10/10 9/9/9 8/8/8
f 8/8/8 9/9/9 11/11/11
f 14/14/14 13/13/13 12/12/12
f 14/14/14 12/12/12 15/15/15
f 14/14/14 15/15/15 16/16/16
f 14/14/14 16/16/16 17/17/17
f 14/14/14 17/17/17 18/18/18
f 14/14/14 18/18/18 13/13/13
f 21/21/21 20/20/20 19/19/19
f 19/19/19 20/20/20 22/22/22
f 25/25/25 24/24/24 23/23/23
f 23/23/23 24/24/24 26/26/26
f 29/29/29 28/28/28 27/27/27
f 27/27/27 28/28/28 30/30/30
f 33/33/33 32/32/32 31/31/31
f 31/31/31 32/32/32 34/34/34
f 37/37/37 36/36/36 35/35/35
f 40/40/40 39/39/39 38/38/38
f 38/38/38 39/39/39 41/41/41
f 42/42/42 40/40/40 38/38/38
f 43/43/43 40/40/40 42/42/42
f 46/46/46 45/45/45 44/44/44
f 47/47/47 46/46/46 44/44/44
f 50/50/50 49/49/49 48/48/48
f 48/48/48 49/49/49 51/51/51
f 52/52/52 50/50/50 48/48/48
f 53/53/53 50/50/50 52/52/52
f 56/56/56 55/55/55 54/54/54
f 57/57/57 56/56/56 54/54/54
f 60/60/60 59/59/59 58/58/58
f 61/61/61 60/60/60 58/58/58
f 64/64/64 63/63/63 62/62/62
f 65/65/65 64/64/64 62/62/62
f 68/68/68 67/67/67 66/66/66
f 69/69/69 68/68/68 66/66/66
f 72/72/72 71/71/71 70/70/70
f 70/70/70 71/71/71 73/73/73
f 76/76/76 75/75/75 74/74/74
f 77/77/77 76/76/76 74/74/74
f 80/80/80 79/79/79 78/78/78
f 81/81/81 80/80/80 78/78/78
f 84/84/84 83/83/83 82/82/82
f 82/82/82 83/83/83 85/85/85
f 88/88/88 87/87/87 86/86/86
f 86/86/86 87/87/87 89/89/89
f 92/92/92 91/91/91 90/90/90
f 92/92/92 93/93/93 91/91/91
f 94/94/94 93/93/93 92/92/92
f 94/94/94 95/95/95 93/93/93
f 96/96/96 91/91/91 93/93/93
f 97/97/97 91/91/91 96/96/96
f 100/100/100 99/99/99 98/98/98
f 98/98/98 99/99/99 101/101/101
f 104/104/104 103/103/103 102/102/102
f 102/102/102 103/103/103 105/105/105
f 108/108/108 107/107/107 106/106/106
f 106/106/106 107/107/107 109/109/109
f 112/112/112 111/111/111 110/110/110
f 110/110/110 111/111/111 113/113/113
f 116/116/116 115/115/115 114/114/114
f 114/114/114 115/115/115 117/117/117
f 120/120/120 119/119/119 118/118/118
f 118/118/118 119/119/119 121/121/121
f 124/124/124 123/123/123 122/122/122
f 122/122/122 123/123/123 125/125/125
f 126/126/126 125/125/125 123/123/123
f 127/127/127 125/125/125 126/126/126
f 127/127/127 128/128/128 125/125/125
f 126/126/126 123/123/123 129/129/129
f 132/132/132 131/131/131 130/130/130
f 130/130/130 131/131/131 133/133/133
f 136/136/136 135/135/135 134/134/134
f 134/134/134 135/135/135 137/137/137
f 140/140/140 139/139/139 138/138/138
f 143/143/143 142/142/142 141/141/141
f 144/144/144 143/143/143 141/141/141
f 147/147/147 146/146/146 145/145/145
f 148/148/148 147/147/147 145/145/145
f 151/151/151 150/150/150 149/149/149
f 152/152/152 151/151/151 149/149/149
f 155/155/155 154/154/154 153/153/153
f 156/156/156 155/155/155 153/153/153
f 159/159/159 158/158/158 157/157/157
f 160/160/160 159/159/159 157/157/157
f 163/163/163 162/162/162 161/161/161
f 164/164/164 163/163/163 161/161/161
f 167/167/167 166/166/166 165/165/165
f 168/168/168 167/167/167 165/165/165
f 171/171/171 170/170/170 169/169/169
f 169/169/169 170/170/170 172/172/172
f 175/175/175 174/174/174 173/173/173
f 176/176/176 175/175/175 173/173/173
f 179/179/179 178/178/178 177/177/177
f 180/180/180 179/179/179 177/177/177
f 183/183/183 182/182/182 181/181/181
f 184/184/184 183/183/183 181/181/181
f 187/187/187 186/186/186 185/185/185
f 188/188/188 187/187/187 185/185/185
f 191/191/191 190/190/190 189/189/189
f 192/192/192 191/191/191 189/189/189
f 195/195/195 194/194/194 193/193/193
f 196/196/196 195/195/195 193/193/193
f 199/199/199 198/198/198 197/197/197
f 200/200/200 199/199/199 197/197/197
f 203/203/203 202/202/202 201/201/201
f 204/204/204 203/203/203 201/201/201
f 207/207/207 206/206/206 205/205/205
f 208/208/208 207/207/207 205/205/205
f 211/211/211 210/210/210 209/209/209
f 212/212/212 211/211/211 209/209/209
f 215/215/215 214/214/214 213/213/213
f 216/216/216 215/215/215 213/213/213
f 219/219/219 218/218/218 217/217/217
f 220/220/220 219/219/219 217/217/217
f 223/223/223 222/222/222 221/221/221
f 224/224/224 223/223/223 221/221/221
f 227/227/227 226/226/226 225/225/225
f 228/228/228 227/227/227 225/225/225
f 231/231/231 230/230/230 229/229/229
f 229/229/229 230/230/230 232/232/232
f 232/232/232 230/230/230 233/233/233
f 234/234/234 232/232/232 233/233/233
f 237/237/237 236/236/236 235/235/235
f 238/238/238 237/237/237 235/235/235
f 241/241/241 240/240/240 239/239/239
f 242/242/242 241/241/241 239/239/239
f 245/245/245 244/244/244 243/243/243
f 244/244/244 246/246/246 243/243/243
f 243/243/243 246/246/246 247/247/247
f 248/248/248 247/247/247 246/246/246
f 251/251/251 250/250/250 249/249/249
f 252/252/252 251/251/251 249/249/249
f 255/255/255 254/254/254 253/253/253
f 256/256/256 255/255/255 253/253/253
