g yam
v 0.1162524 -0.3770316 6.775842E-08
v -0.1063709 -0.366802 3.278108E-08
v -0.1063709 -0.25787 0.2629849
v 0.1252914 -0.2674665 0.2654119
v -0.106371 0.005114809 0.3719167
v 0.1471134 -0.002953323 0.375349
v -0.1063711 0.2680996 0.2629848
v 0.1689355 0.2615598 0.2654119
v -0.1063711 0.3770315 -6.626636E-08
v 0.1779746 0.3711247 -2.254482E-08
v -0.3624493 -0.2270019 0.232829
v -0.3699874 -0.3231479 -1.283682E-08
v -0.3442504 0.00511473 0.3292699
v -0.3260516 0.2372313 0.232829
v -0.3185134 0.3333772 -9.248603E-08
v 0.3031843 -0.3217264 8.862001E-08
v 0.3104603 -0.2335317 0.213644
v 0.328026 -0.02061114 0.3021381
v 0.3455917 0.1923093 0.213644
v 0.3528677 0.2805039 1.59302E-08
v 0.4579114 -0.2373799 1.007517E-07
v 0.4631492 -0.1738897 0.1537995
v 0.4757946 -0.02061111 0.2175052
v 0.4884399 0.1326675 0.1537995
v 0.4936778 0.182733 5.021092E-08
v 0.6170313 -0.1117707 1.080523E-07
v 0.608663 -0.0786195 0.08254451
v 0.5884598 0.001414289 0.1167355
v 0.5682567 0.08144806 0.08254448
v 0.5598884 0.1276091 6.754863E-08
v 0.6880581 0.03602687 9.909663E-08
v 0.6792136 0.04780953 0.03556819
v 0.6578612 0.07625528 0.05030094
v 0.6365088 0.104701 0.03556817
v 0.6276643 0.1164837 7.926395E-08
v 0.6703789 0.08459749 8.995957E-08
v -0.4998302 -0.2452985 -4.280881E-08
v -0.5028184 -0.1790708 0.1600502
v -0.5100327 -0.01918335 0.2263451
v -0.517247 0.1407041 0.1600501
v -0.5202351 0.2069317 -1.061079E-07
v -0.6016971 -0.1011459 0.07639068
v -0.6017421 -0.132788 -7.317876E-08
v -0.6015888 -0.02475522 0.1080328
v -0.6014802 0.05163544 0.07639066
v -0.6014354 0.08327749 -1.019033E-07
v -0.6627377 -0.08440243 0.03079594
v -0.6594037 -0.09671526 -8.668879E-08
v -0.6707863 -0.05467677 0.04355207
v -0.6788347 -0.02495107 0.03079593
v -0.6821685 -0.01263832 -1.013217E-07
v -0.6880581 -0.05467678 -9.661324E-08
v 0.1162524 -0.3770316 6.775842E-08
v 0.1252915 -0.2674666 -0.2654118
v -0.1063709 -0.2578701 -0.2629849
v -0.1063709 -0.366802 3.278108E-08
v -0.1063709 0.00511471 -0.3719168
v 0.1471135 -0.002953422 -0.375349
v -0.106371 0.2680995 -0.2629849
v 0.1689356 0.2615598 -0.2654119
v -0.1063711 0.3770315 -6.626636E-08
v 0.1779746 0.3711247 -2.254482E-08
v -0.3624492 -0.227002 -0.2328291
v -0.3699874 -0.3231479 -1.283682E-08
v -0.3442503 0.005114642 -0.32927
v -0.3260516 0.2372313 -0.2328291
v -0.3185134 0.3333772 -9.248603E-08
v 0.3031843 -0.3217264 8.862001E-08
v 0.3104603 -0.2335317 -0.2136439
v 0.3280261 -0.02061122 -0.302138
v 0.3455918 0.1923093 -0.2136439
v 0.3528677 0.2805039 1.59302E-08
v 0.4579114 -0.2373799 1.007517E-07
v 0.4631493 -0.1738898 -0.1537993
v 0.4757946 -0.02061117 -0.2175051
v 0.4884399 0.1326675 -0.1537994
v 0.4936778 0.182733 5.021092E-08
v 0.6170313 -0.1117707 1.080523E-07
v 0.608663 -0.07861952 -0.0825443
v 0.5884598 0.001414258 -0.1167353
v 0.5682568 0.08144803 -0.08254433
v 0.5598884 0.1276091 6.754863E-08
v 0.6880581 0.03602687 9.909663E-08
v 0.6792136 0.04780952 -0.035568
v 0.6578612 0.07625526 -0.05030077
v 0.6365088 0.104701 -0.03556801
v 0.6276643 0.1164837 7.926395E-08
v 0.6703789 0.08459749 8.995957E-08
v -0.5028184 -0.1790709 -0.1600503
v -0.4998302 -0.2452985 -4.280881E-08
v -0.5100326 -0.01918341 -0.2263452
v -0.5172469 0.1407041 -0.1600503
v -0.5202351 0.2069317 -1.061079E-07
v -0.601697 -0.1011459 -0.07639084
v -0.6017421 -0.132788 -7.317876E-08
v -0.6015888 -0.02475525 -0.1080329
v -0.6014802 0.05163541 -0.07639086
v -0.6014354 0.08327749 -1.019033E-07
v -0.6627377 -0.08440244 -0.03079612
v -0.6594037 -0.09671526 -8.668879E-08
v -0.6707863 -0.05467679 -0.04355226
v -0.6788347 -0.02495108 -0.03079613
v -0.6821685 -0.01263832 -1.013217E-07
v -0.6880581 -0.05467678 -9.661324E-08
vt 0.7266425 0.7882819
vt 0.7116939 0.7741078
vt 0.6968182 0.7922534
vt 0.7091769 0.8040978
vt 0.6831895 0.8070507
vt 0.695921 0.8188469
vt 0.668877 0.8209137
vt 0.68375 0.8344818
vt 0.6513903 0.8360513
vt 0.6700419 0.8535795
vt 0.6810923 0.7803876
vt 0.6906407 0.7613047
vt 0.6711231 0.7954008
vt 0.658642 0.8081833
vt 0.6408438 0.8190084
vt 0.7359954 0.8040758
vt 0.7189313 0.8149748
vt 0.7065263 0.827701
vt 0.6964211 0.8427182
vt 0.6875046 0.861528
vt 0.7412876 0.8207246
vt 0.7267066 0.8269886
vt 0.7163122 0.8370581
vt 0.7090535 0.8499677
vt 0.7051705 0.8658203
vt 0.7429715 0.8418265
vt 0.7332689 0.8431038
vt 0.7251876 0.8480972
vt 0.719363 0.8562862
vt 0.7155491 0.8672388
vt 0.738346 0.8608988
vt 0.733737 0.8597506
vt 0.7295067 0.8609387
vt 0.7264372 0.8643093
vt 0.72586 0.8696711
vt 0.7333261 0.8664659
vt 0.6756187 0.7570286
vt 0.670437 0.7725497
vt 0.6619962 0.7842157
vt 0.6506433 0.7927137
vt 0.6355264 0.7975089
vt 0.6573142 0.7661769
vt 0.6587781 0.7564941
vt 0.6529357 0.7744527
vt 0.6457256 0.7801978
vt 0.6363629 0.7820958
vt 0.649042 0.7610846
vt 0.6486045 0.7561063
vt 0.6467769 0.7648281
vt 0.6430107 0.766731
vt 0.6385692 0.7664541
vt 0.6417542 0.7606747
vt 0.7266425 0.7882819
vt 0.7091769 0.8040978
vt 0.6968182 0.7922534
vt 0.7116939 0.7741078
vt 0.6831895 0.8070507
vt 0.695921 0.8188469
vt 0.668877 0.8209137
vt 0.68375 0.8344818
vt 0.6513903 0.8360513
vt 0.6700419 0.8535795
vt 0.6810923 0.7803876
vt 0.6906407 0.7613047
vt 0.6711231 0.7954008
vt 0.658642 0.8081833
vt 0.6408438 0.8190084
vt 0.7359954 0.8040758
vt 0.7189313 0.8149748
vt 0.7065263 0.827701
vt 0.6964211 0.8427182
vt 0.6875046 0.861528
vt 0.7412876 0.8207246
vt 0.7267066 0.8269886
vt 0.7163122 0.8370581
vt 0.7090535 0.8499677
vt 0.7051705 0.8658203
vt 0.7429715 0.8418265
vt 0.7332689 0.8431038
vt 0.7251876 0.8480972
vt 0.719363 0.8562862
vt 0.7155491 0.8672388
vt 0.738346 0.8608988
vt 0.733737 0.8597506
vt 0.7295067 0.8609387
vt 0.7264372 0.8643093
vt 0.72586 0.8696711
vt 0.7333261 0.8664659
vt 0.670437 0.7725497
vt 0.6756187 0.7570286
vt 0.6619962 0.7842157
vt 0.6506433 0.7927137
vt 0.6355264 0.7975089
vt 0.6573142 0.7661769
vt 0.6587781 0.7564941
vt 0.6529357 0.7744527
vt 0.6457256 0.7801978
vt 0.6363629 0.7820958
vt 0.649042 0.7610846
vt 0.6486045 0.7561063
vt 0.6467769 0.7648281
vt 0.6430107 0.766731
vt 0.6385692 0.7664541
vt 0.6417542 0.7606747
vn 0.1129525 -0.9936004 0
vn -0.104203 -0.994556 0
vn -0.1008078 -0.7005662 0.7064312
vn 0.1311523 -0.7036337 0.6983543
vn -0.0937021 0.006760769 0.9955773
vn 0.1753574 -0.006835959 0.9844811
vn -0.08834828 0.7081743 0.7004882
vn 0.2198956 0.6855846 0.6939883
vn -0.08669261 0.9962351 0
vn 0.2384297 0.9711598 0
vn -0.3339155 -0.6553929 0.6774664
vn -0.3281796 -0.9446153 0
vn -0.3448025 0.01973646 0.9384677
vn -0.3539062 0.6703658 0.6521963
vn -0.3576459 0.9338573 0
vn 0.3727113 -0.9279473 0
vn 0.3891321 -0.6718885 0.630192
vn 0.4286997 -0.04315067 0.902416
vn 0.475825 0.6022069 0.641044
vn 0.4957085 0.868489 0
vn 0.5476807 -0.8366874 0
vn 0.5537035 -0.6031287 0.5741499
vn 0.5724512 -0.02820686 0.8194534
vn 0.5962837 0.5601658 0.5750305
vn 0.603435 0.7974122 0
vn 0.7707428 -0.6371464 0
vn 0.7328715 -0.4378609 0.5207467
vn 0.6387998 0.05552954 0.7673665
vn 0.5080767 0.6045748 0.6134716
vn 0.4599157 0.8879626 0
vn 0.9937389 -0.1117272 0
vn 0.9039543 0.03188 0.4264392
vn 0.6572921 0.4064851 0.6346156
vn 0.396615 0.783909 0.4776852
vn 0.304798 0.952417 0
vn 0.8027871 0.5962657 0
vn -0.6112537 -0.7914346 0
vn -0.6229712 -0.5625649 0.5435326
vn -0.64849 -0.01481248 0.7610791
vn -0.6702299 0.5188565 0.530641
vn -0.6782871 0.7347969 0
vn -0.6859159 -0.5188 0.5102608
vn -0.6541559 -0.7563598 0
vn -0.7462097 -0.01657229 0.6655046
vn -0.793148 0.419793 0.4412369
vn -0.810112 0.5862752 0
vn -0.6923145 -0.5818903 0.4267368
vn -0.6534716 -0.756951 0
vn -0.7818223 -0.1520253 0.6046836
vn -0.8629574 0.2731203 0.4250997
vn -0.8944759 0.4471163 0
vn -0.974537 -0.2242268 0
vn 0.1129525 -0.9936004 0
vn 0.1311525 -0.7036338 -0.6983541
vn -0.1008075 -0.7005664 -0.706431
vn -0.104203 -0.994556 0
vn -0.0937018 0.006760514 -0.9955773
vn 0.1753577 -0.006836221 -0.9844811
vn -0.08834805 0.708174 -0.7004884
vn 0.2198959 0.6855844 -0.6939884
vn -0.08669261 0.9962351 0
vn 0.2384297 0.9711598 0
vn -0.3339154 -0.6553931 -0.6774663
vn -0.3281796 -0.9446153 0
vn -0.3448022 0.0197362 -0.9384678
vn -0.353906 0.6703657 -0.6521966
vn -0.3576459 0.9338573 0
vn 0.3727113 -0.9279473 0
vn 0.3891324 -0.6718886 -0.6301918
vn 0.4287 -0.04315095 -0.9024159
vn 0.4758252 0.6022067 -0.641044
vn 0.4957085 0.868489 0
vn 0.5476807 -0.8366874 0
vn 0.5537037 -0.6031289 -0.5741496
vn 0.5724515 -0.02820709 -0.8194532
vn 0.5962839 0.5601656 -0.5750306
vn 0.603435 0.7974122 0
vn 0.7707428 -0.6371464 0
vn 0.7328717 -0.437861 -0.5207465
vn 0.6388 0.05552934 -0.7673662
vn 0.508077 0.6045746 -0.6134715
vn 0.4599157 0.8879626 0
vn 0.9937389 -0.1117272 0
vn 0.9039543 0.03187988 -0.4264389
vn 0.6572923 0.4064849 -0.6346155
vn 0.3966151 0.7839089 -0.4776853
vn 0.304798 0.952417 0
vn 0.8027871 0.5962657 0
vn -0.6229711 -0.5625651 -0.5435326
vn -0.6112537 -0.7914346 0
vn -0.6484897 -0.01481269 -0.7610793
vn -0.6702297 0.5188564 -0.5306413
vn -0.6782871 0.7347969 0
vn -0.6859157 -0.5188001 -0.5102609
vn -0.6541559 -0.7563598 0
vn -0.7462094 -0.01657249 -0.6655049
vn -0.7931479 0.4197929 -0.4412372
vn -0.810112 0.5862752 0
vn -0.6923143 -0.5818905 -0.426737
vn -0.6534716 -0.756951 0
vn -0.7818221 -0.1520255 -0.6046839
vn -0.8629574 0.2731202 -0.4251
vn -0.8944759 0.4471163 0
vn -0.974537 -0.2242268 0
g yam_0
f 3/3/3 2/2/2 1/1/1
f 4/4/4 3/3/3 1/1/1
f 5/5/5 3/3/3 4/4/4
f 6/6/6 5/5/5 4/4/4
f 7/7/7 5/5/5 6/6/6
f 8/8/8 7/7/7 6/6/6
f 9/9/9 7/7/7 8/8/8
f 10/10/10 9/9/9 8/8/8
f 3/3/3 11/11/11 2/2/2
f 11/11/11 12/12/12 2/2/2
f 13/13/13 11/11/11 3/3/3
f 5/5/5 13/13/13 3/3/3
f 14/14/14 13/13/13 5/5/5
f 7/7/7 14/14/14 5/5/5
f 15/15/15 14/14/14 7/7/7
f 9/9/9 15/15/15 7/7/7
f 1/1/1 16/16/16 4/4/4
f 16/16/16 17/17/17 4/4/4
f 4/4/4 17/17/17 6/6/6
f 17/17/17 18/18/18 6/6/6
f 6/6/6 18/18/18 8/8/8
f 18/18/18 19/19/19 8/8/8
f 8/8/8 19/19/19 10/10/10
f 19/19/19 20/20/20 10/10/10
f 16/16/16 21/21/21 17/17/17
f 21/21/21 22/22/22 17/17/17
f 17/17/17 22/22/22 18/18/18
f 22/22/22 23/23/23 18/18/18
f 18/18/18 23/23/23 19/19/19
f 23/23/23 24/24/24 19/19/19
f 19/19/19 24/24/24 20/20/20
f 24/24/24 25/25/25 20/20/20
f 21/21/21 26/26/26 22/22/22
f 26/26/26 27/27/27 22/22/22
f 22/22/22 27/27/27 23/23/23
f 27/27/27 28/28/28 23/23/23
f 23/23/23 28/28/28 24/24/24
f 28/28/28 29/29/29 24/24/24
f 24/24/24 29/29/29 25/25/25
f 29/29/29 30/30/30 25/25/25
f 26/26/26 31/31/31 27/27/27
f 31/31/31 32/32/32 27/27/27
f 27/27/27 32/32/32 28/28/28
f 32/32/32 33/33/33 28/28/28
f 28/28/28 33/33/33 29/29/29
f 33/33/33 34/34/34 29/29/29
f 29/29/29 34/34/34 30/30/30
f 34/34/34 35/35/35 30/30/30
f 31/31/31 36/36/36 32/32/32
f 32/32/32 36/36/36 33/33/33
f 33/33/33 36/36/36 34/34/34
f 34/34/34 36/36/36 35/35/35
f 38/38/38 37/37/37 12/12/12
f 11/11/11 38/38/38 12/12/12
f 39/39/39 38/38/38 11/11/11
f 13/13/13 39/39/39 11/11/11
f 40/40/40 39/39/39 13/13/13
f 14/14/14 40/40/40 13/13/13
f 41/41/41 40/40/40 14/14/14
f 15/15/15 41/41/41 14/14/14
f 38/38/38 42/42/42 37/37/37
f 42/42/42 43/43/43 37/37/37
f 44/44/44 42/42/42 38/38/38
f 39/39/39 44/44/44 38/38/38
f 45/45/45 44/44/44 39/39/39
f 40/40/40 45/45/45 39/39/39
f 46/46/46 45/45/45 40/40/40
f 41/41/41 46/46/46 40/40/40
f 42/42/42 47/47/47 43/43/43
f 47/47/47 48/48/48 43/43/43
f 49/49/49 47/47/47 42/42/42
f 44/44/44 49/49/49 42/42/42
f 50/50/50 49/49/49 44/44/44
f 45/45/45 50/50/50 44/44/44
f 51/51/51 50/50/50 45/45/45
f 46/46/46 51/51/51 45/45/45
f 47/47/47 52/52/52 48/48/48
f 49/49/49 52/52/52 47/47/47
f 50/50/50 52/52/52 49/49/49
f 51/51/51 52/52/52 50/50/50
f 55/55/55 54/54/54 53/53/53
f 56/56/56 55/55/55 53/53/53
f 55/55/55 57/57/57 54/54/54
f 57/57/57 58/58/58 54/54/54
f 57/57/57 59/59/59 58/58/58
f 59/59/59 60/60/60 58/58/58
f 59/59/59 61/61/61 60/60/60
f 61/61/61 62/62/62 60/60/60
f 63/63/63 55/55/55 56/56/56
f 64/64/64 63/63/63 56/56/56
f 65/65/65 57/57/57 55/55/55
f 63/63/63 65/65/65 55/55/55
f 66/66/66 59/59/59 57/57/57
f 65/65/65 66/66/66 57/57/57
f 67/67/67 61/61/61 59/59/59
f 66/66/66 67/67/67 59/59/59
f 68/68/68 53/53/53 54/54/54
f 69/69/69 68/68/68 54/54/54
f 69/69/69 54/54/54 58/58/58
f 70/70/70 69/69/69 58/58/58
f 70/70/70 58/58/58 60/60/60
f 71/71/71 70/70/70 60/60/60
f 71/71/71 60/60/60 62/62/62
f 72/72/72 71/71/71 62/62/62
f 73/73/73 68/68/68 69/69/69
f 74/74/74 73/73/73 69/69/69
f 74/74/74 69/69/69 70/70/70
f 75/75/75 74/74/74 70/70/70
f 75/75/75 70/70/70 71/71/71
f 76/76/76 75/75/75 71/71/71
f 76/76/76 71/71/71 72/72/72
f 77/77/77 76/76/76 72/72/72
f 78/78/78 73/73/73 74/74/74
f 79/79/79 78/78/78 74/74/74
f 79/79/79 74/74/74 75/75/75
f 80/80/80 79/79/79 75/75/75
f 80/80/80 75/75/75 76/76/76
f 81/81/81 80/80/80 76/76/76
f 81/81/81 76/76/76 77/77/77
f 82/82/82 81/81/81 77/77/77
f 83/83/83 78/78/78 79/79/79
f 84/84/84 83/83/83 79/79/79
f 84/84/84 79/79/79 80/80/80
f 85/85/85 84/84/84 80/80/80
f 85/85/85 80/80/80 81/81/81
f 86/86/86 85/85/85 81/81/81
f 86/86/86 81/81/81 82/82/82
f 87/87/87 86/86/86 82/82/82
f 88/88/88 83/83/83 84/84/84
f 88/88/88 84/84/84 85/85/85
f 88/88/88 85/85/85 86/86/86
f 88/88/88 86/86/86 87/87/87
f 89/89/89 63/63/63 64/64/64
f 90/90/90 89/89/89 64/64/64
f 89/89/89 91/91/91 63/63/63
f 91/91/91 65/65/65 63/63/63
f 91/91/91 92/92/92 65/65/65
f 92/92/92 66/66/66 65/65/65
f 92/92/92 93/93/93 66/66/66
f 93/93/93 67/67/67 66/66/66
f 94/94/94 89/89/89 90/90/90
f 95/95/95 94/94/94 90/90/90
f 96/96/96 91/91/91 89/89/89
f 94/94/94 96/96/96 89/89/89
f 97/97/97 92/92/92 91/91/91
f 96/96/96 97/97/97 91/91/91
f 98/98/98 93/93/93 92/92/92
f 97/97/97 98/98/98 92/92/92
f 99/99/99 94/94/94 95/95/95
f 100/100/100 99/99/99 95/95/95
f 101/101/101 96/96/96 94/94/94
f 99/99/99 101/101/101 94/94/94
f 102/102/102 97/97/97 96/96/96
f 101/101/101 102/102/102 96/96/96
f 103/103/103 98/98/98 97/97/97
f 102/102/102 103/103/103 97/97/97
f 104/104/104 99/99/99 100/100/100
f 104/104/104 101/101/101 99/99/99
f 104/104/104 102/102/102 101/101/101
f 104/104/104 103/103/103 102/102/102
